<?xml version="1.0" encoding="utf-8"?>
<!-- Generator: Adobe Illustrator 16.0.2, SVG Export Plug-In . SVG Version: 6.00 Build 0)  -->
<!DOCTYPE svg PUBLIC "-//W3C//DTD SVG 1.1//EN" "http://www.w3.org/Graphics/SVG/1.1/DTD/svg11.dtd">
<svg version="1.1" id="Layer_1" xmlns="http://www.w3.org/2000/svg" xmlns:xlink="http://www.w3.org/1999/xlink" x="0px" y="0px"
	 width="700px" height="600px" viewBox="0 0 700 600" enable-background="new 0 0 700 600" xml:space="preserve">
<g>
	<g>
		<g>
			<path fill="#F18D42" d="M541.588,63.597c-1.646-6.377-4.172-12.398-7.438-17.935l7.57-11.389l-10.506-10.505L520.71,13.262
				l-11.389,7.573c-5.535-3.264-11.558-5.791-17.935-7.439L488.693,0h-14.857h-14.857l-2.695,13.396
				c-6.376,1.648-12.397,4.175-17.935,7.439l-11.389-7.573l-10.507,10.506l-10.506,10.505l7.572,11.389
				c-3.265,5.536-5.793,11.558-7.439,17.935l-13.396,2.696v14.858v14.857l13.396,2.697c1.646,6.377,4.177,12.399,7.439,17.934
				l-7.572,11.389l10.506,10.506l10.507,10.505l11.389-7.573c5.535,3.264,11.559,5.792,17.935,7.439l2.695,13.396h14.857h14.857
				l2.695-13.396c6.377-1.648,12.397-4.175,17.935-7.439l11.389,7.573l10.506-10.505l10.506-10.506l-7.57-11.389
				c3.266-5.535,5.791-11.557,7.438-17.934l13.397-2.697V81.151V66.293L541.588,63.597z M473.835,133.212
				c-28.753,0-52.062-23.309-52.062-52.061c0-28.753,23.309-52.061,52.062-52.061c28.752,0,52.062,23.308,52.062,52.061
				C525.896,109.903,502.587,133.212,473.835,133.212z"/>
		</g>
		<g>
			<path fill="#F18D42" d="M618.291,114.258c-0.688-2.661-1.742-5.175-3.105-7.485l3.161-4.752l-4.385-4.385l-4.386-4.385
				l-4.753,3.16c-2.313-1.362-4.823-2.417-7.485-3.104l-1.125-5.591h-6.201h-6.201l-1.125,5.591
				c-2.659,0.688-5.175,1.742-7.484,3.104l-4.752-3.16l-4.385,4.385l-4.387,4.385l3.161,4.752c-1.362,2.31-2.416,4.824-3.104,7.485
				l-5.591,1.125v6.201v6.201l5.591,1.125c0.688,2.662,1.741,5.175,3.104,7.485l-3.161,4.753l4.387,4.385l4.385,4.386l4.752-3.161
				c2.312,1.362,4.825,2.417,7.484,3.104l1.125,5.591h6.201h6.201l1.125-5.591c2.662-0.688,5.175-1.742,7.485-3.104l4.753,3.161
				l4.386-4.386l4.385-4.385l-3.161-4.753c1.363-2.31,2.418-4.823,3.105-7.485l5.592-1.125v-6.201v-6.201L618.291,114.258z
				 M590.012,143.313c-11.999,0-21.729-9.728-21.729-21.728c0-12.001,9.729-21.729,21.729-21.729c12,0,21.729,9.728,21.729,21.729
				C611.74,133.584,602.012,143.313,590.012,143.313z"/>
		</g>
		<g>
			<polygon fill="#F7C755" points="461.635,316.52 420.085,316.52 420.085,346.637 455.293,346.637 461.635,352.979 			"/>
		</g>
		<g>
			<polygon fill="#F3E6DE" points="168.236,197.805 109.479,197.805 109.479,240.394 159.267,240.394 168.236,249.364 			"/>
		</g>
		<path fill="#345194" d="M223.371,426.772c0-55.298,4.277-78.858,12.847-99.735c8.556-20.877,26.222-39.069,52.995-54.601
			c8.03-4.818,17.929-10.301,29.709-16.461c11.77-6.148,23.287-13.513,34.527-22.082c11.241-8.556,20.738-18.594,28.505-30.111
			c7.753-11.504,11.644-24.753,11.644-39.747c0-11.241-2.146-21.141-6.424-29.709c-4.291-8.556-9.91-15.783-16.86-21.68
			c-6.963-5.884-15.132-10.3-24.491-13.249c-9.371-2.935-18.87-4.416-28.505-4.416c-11.78,0-22.482,2.008-32.117,6.022
			c-9.637,4.015-18.344,9.108-26.098,15.256c-7.766,6.161-14.729,13.123-20.876,20.876c-6.161,7.767-11.38,15.132-15.658,22.082
			l-69.856-48.177c6.951-16.587,16.185-31.316,27.703-44.164c11.504-12.847,24.613-23.688,39.344-32.521
			c14.716-8.832,30.638-15.519,47.776-20.073c17.126-4.541,34.79-6.826,52.994-6.826c20.338,0,40.412,2.95,60.224,8.833
			c19.798,5.897,37.6,15.256,53.396,28.104c15.781,12.848,28.629,29.308,38.54,49.382c9.899,20.074,14.854,44.038,14.854,71.865
			c0,17.139-2.009,32.256-6.021,45.368c-4.015,13.123-9.772,25.029-17.264,35.73c-7.503,10.715-16.336,20.351-26.498,28.908
			c-10.175,8.568-21.681,16.862-34.525,24.891c-10.717,6.424-21.418,12.584-32.119,18.468c-10.714,5.896-20.477,12.445-29.31,19.673
			c-8.833,7.227-16.059,15.531-21.68,24.893c-5.621,9.373-8.432,20.748-8.432,63.199H223.37L223.371,426.772L223.371,426.772z
			 M224.977,584.787V473.977h89.128v110.813L224.977,584.787L224.977,584.787z"/>
		<path fill="#E3E3E3" d="M186.218,294.032H53.771c-0.375,0-0.681-0.305-0.681-0.681v-6.508c0-0.376,0.306-0.681,0.681-0.681
			h132.446c0.376,0,0.682,0.305,0.682,0.681v6.508C186.899,293.728,186.594,294.032,186.218,294.032z"/>
		<path fill="#E3E3E3" d="M145.45,361.031h-91.68c-0.375,0-0.681-0.307-0.681-0.684v-6.507c0-0.377,0.306-0.681,0.681-0.681h91.679
			c0.376,0,0.681,0.304,0.681,0.681v6.507C146.131,360.727,145.826,361.031,145.45,361.031z"/>
		<path fill="#E3E3E3" d="M129.909,310.783H53.771c-0.375,0-0.681-0.307-0.681-0.684v-6.508c0-0.377,0.306-0.682,0.681-0.682h76.139
			c0.377,0,0.681,0.305,0.681,0.682v6.508C130.59,310.477,130.286,310.783,129.909,310.783z"/>
		<path fill="#E3E3E3" d="M157.962,327.532H53.771c-0.375,0-0.681-0.304-0.681-0.681v-6.511c0-0.377,0.306-0.681,0.681-0.681h104.19
			c0.377,0,0.682,0.304,0.682,0.681v6.511C158.644,327.229,158.339,327.532,157.962,327.532z"/>
		<path fill="#E3E3E3" d="M97.415,344.281H53.771c-0.375,0-0.681-0.305-0.681-0.682v-6.509c0-0.377,0.306-0.683,0.681-0.683h43.645
			c0.376,0,0.683,0.306,0.683,0.683v6.509C98.098,343.979,97.792,344.281,97.415,344.281z"/>
		<path fill="#F18D42" d="M97.415,277.478H53.771c-0.375,0-0.681-0.305-0.681-0.682v-6.507c0-0.377,0.306-0.682,0.681-0.682h43.645
			c0.376,0,0.683,0.305,0.683,0.682v6.507C98.098,277.173,97.792,277.478,97.415,277.478z"/>
		<g>
			<g>
				<g>
					<path fill="#ECA886" d="M335.804,335.544c0,0-5.528-7.305-6.339-8.442c-0.81-1.145-0.821-5.311,0.283-9.662
						c1.074-4.229,1.926-10.309,2.604-10.691c0.677-0.384,1.097-1.035,3.091-0.857c1.994,0.176,3.585,1.412,3.585,1.412
						s2.563-0.93,4.402,0.742c0,0,2.451-0.77,4.23,1.473c0,0,2.413-0.685,3.565,1.049c0,0,0.091,3.906,0.544,5.338
						c0.454,1.438-0.563,11.757-2.132,19.5C349.641,335.4,346.307,340.033,335.804,335.544z"/>
				</g>
			</g>
			<g>
				<g>
					<path fill="#CE8C6C" d="M338.128,322.775c0,0,4.003,2.302,4.798,3.51c0.795,1.209,7.391-6.59,7.391-6.59
						S341.073,318.023,338.128,322.775z"/>
				</g>
			</g>
			<g>
				<g>
					<path fill="#DB9C7C" d="M332.142,307.971c0,0-0.472,11.371,1.365,11.676c1.836,0.303,2.696-0.694,2.696-0.694l1.945,4.771
						c0,0,3.086,2.438,4.856-1.609c0,0,2.646,2.57,3.887-1.536c0,0,2.509,0.925,3.423-0.879c0.915-1.804,0.912-9.134,0.912-9.134
						s-0.637-1.719-3.503-1.222c0,0-1.602-2.233-4.255-1.461c0,0-2.58-2.057-5.438-1.196c0,0-2.996-1.84-5.767,0.113
						C332.266,306.799,332.158,307.49,332.142,307.971z"/>
				</g>
			</g>
			<g>
				<g>
					<path fill="#ECA886" d="M329.44,326.74c0,0,3.877-6.799,7.637-9.59c0.853-0.629,1.791-1.088,2.702-0.543
						s1.271,2.549-0.255,5.576c-1.528,3.029-2.104,7.644-2.104,7.644S334.93,332.486,329.44,326.74z"/>
				</g>
			</g>
			<g>
				<path fill="#ECA886" d="M338.031,306.686c0,0-1.997,12.209-1.52,13.365c0.479,1.16-4.025,0.461-4.364-0.559
					c-0.34-1.018-0.305-11.328-0.063-12.338C332.324,306.143,336.017,304.212,338.031,306.686z"/>
			</g>
			<g>
				<path fill="#ECA886" d="M331.478,309.302c0,0,3.442-19.911,5.791-19.674c2.256,0.229,3.371,5.053,0.113,20.252
					C334.214,324.657,331.478,309.302,331.478,309.302z"/>
			</g>
			<path fill="#ECA886" d="M349.641,335.4c0,0-2.136,5.18-4.146,7.459c-2.01,2.277-8.849-3.137-9.689-7.315
				C334.963,331.366,349.641,335.4,349.641,335.4z"/>
			<g>
				<rect x="207.21" y="238.224" fill="#ED8D28" width="1.083" height="26.676"/>
			</g>
			<path fill="#262A45" d="M296.317,237.565l-57.552,18.417l-57.551-18.417l57.551-21.098L296.317,237.565z"/>
			<path fill="#F4CCA2" d="M260.236,275.142c0,0,18.937,39.608,5.901,41.976c-17.897,3.255-25.139-29.552-25.139-29.552
				L260.236,275.142z"/>
			<path fill="#262A45" d="M284.142,381.355c4.989,7.412,15.591,17.278,20.854,17.209c3.396-0.049,58.18-47.414,58.163-50.15
				c-0.021-3.092-31.854-16.568-31.854-16.568s-9.217,11.258-14.377,18.32c-5.9,8.079-10.493,13.58-12.221,14.775
				c-1.728,1.201-9.621-12.252-9.621-12.252c-3.781-6.412-7.995-13.584-13.771-24.731c-5.579-10.769-27.624-17.647-27.624-17.647
				c-26.31,11.72,22.771,58.149,22.771,58.149S281.763,377.967,284.142,381.355z"/>
			<path fill="#262A45" d="M293.204,474.745H183.987c0.18-2.327,0.35-4.616,0.527-6.855c1.991-25.264,4.198-44.449,6.536-50.716
				c9.349-25.017-4.669-97.32-4.669-97.32s6.669-6.022,31.815-11.567l52.192,10.778c0,0,13.627,10.398,14.93,29.207
				c1.304,18.809-2.616,69.697,0.259,84.141c0.626,3.163,3.035,16.532,6.402,35.479C292.382,470.093,292.783,472.39,293.204,474.745
				z"/>
			<g>
				<path fill="#ECA886" d="M249.959,293.668c0,0-2.277,20.777-1.803,27.541c0,0-11.861,11.791-25.354-13.768
					c0,0,5.677-10.534,1.404-24.89C219.935,268.2,249.959,293.668,249.959,293.668z"/>
			</g>
			<g>
				<polygon fill="#ECA886" points="248.158,321.209 248.158,331.982 234.506,321.863 				"/>
			</g>
			<path fill="#ECA987" d="M217.858,257.241c0,0-2.491-2.968-3.421,0.021c-0.929,2.99,2.115,11.874,2.45,13.161
				c0,0,1.51,4.986,2.112,4.349C219.602,274.137,217.858,257.241,217.858,257.241z"/>
			<path fill="#ECA987" d="M261.377,257.61c0,0,2.492-2.967,3.421,0.021c0.928,2.99-2.114,11.874-2.449,13.161
				c0,0-1.51,4.986-2.113,4.35C259.634,274.506,261.377,257.61,261.377,257.61z"/>
			<path fill="#ECA987" d="M243.527,228.833c0,0,22.867,3.493,19.521,39.226c-3.348,35.731-23.529,32.896-24.877,32.866
				c-1.349-0.028-20.246,0.743-21.88-42.859C216.289,258.065,215.525,225.822,243.527,228.833z"/>
			<path fill="#F4CCA2" d="M220.674,255.928c0,0,25.378,7.488,37.529,5.094c0,0,0.774,4.446,2.521,4.72
				c1.745,0.274,2.635-8.501,2.635-8.501s0.596-29.057-25.901-29.331c-26.497-0.274-21.113,31.473-21.113,31.473l0.36,5.426
				C216.704,264.81,220.5,266.297,220.674,255.928z"/>
			<path fill="#ED8D28" d="M253.691,310.311v39.674l17.889-31.445C271.579,318.537,264.858,312.311,253.691,310.311z"/>
			<g>
				<path fill="#D5C5BE" d="M248.158,331.982l6.938-8.06l-6.024-21.216C249.071,302.709,247.048,314.521,248.158,331.982z"/>
			</g>
			<g>
				<polygon fill="#F3E6DE" points="255.095,323.925 264.401,327.93 249.071,302.709 				"/>
			</g>
			<polygon fill="#B8A9A1" points="253.691,349.982 253.691,325.557 248.158,331.982 241.226,326.666 237.721,331.223 			"/>
			<g>
				<polygon fill="#D5C5BE" points="248.158,331.982 242.489,325.021 223.396,306.145 220.1,310.462 				"/>
			</g>
			<path fill="#262A45" d="M208.177,467.89c0.902,2.978,1.644,5.368,2.099,6.855H174.4c-0.215-2.171,0.8-4.463,0.691-6.855
				c-0.621-13.61-0.578-20.527-0.989-30.58c-0.973-23.878,0.544-40.263,0.777-44.292c0.241-4.039-0.16-28.487,0.831-34.435
				c0.991-5.942-2.536-18.231,3.965-30.862c6.5-12.623,24.823-15.855,24.823-15.855c15.858,5.188,0.456,35.884-1.661,50.751
				c-2.125,14.854-8.938,49.278-5.099,66.918C200.275,441.161,205.151,457.87,208.177,467.89z"/>
			<path fill="#ED8D28" d="M218.195,308.285l35.496,41.697l-65.707-31.313C187.984,318.671,201.02,308.949,218.195,308.285z"/>
			<g>
				<polygon fill="#F3E6DE" points="242.489,325.021 234.506,335.402 218.195,308.285 223.396,306.145 				"/>
			</g>
			<path fill="#ED8D28" d="M207.769,264.056v-0.005c-0.005,0-0.012,0.003-0.017,0.003c-0.006,0-0.012-0.003-0.019-0.003v0.005
				c-2.548,0.119-2.254,13.134-2.254,13.134h2.254h0.035h2.255C210.023,277.19,210.317,264.175,207.769,264.056z"/>
			<path fill="#262A45" d="M261.983,241.354c0,0-2.993-18.743-23.218-16.749s-21.594,8.799-23.135,18.362L261.983,241.354z"/>
			<path fill="#50578F" d="M262.672,250.403c0,0-14.813-7.14-46.734,0.56l-0.307-7.996c0,0,0.504-0.194,1.44-0.501
				c5.504-1.812,25.827-7.643,43.836-1.493c0.356,0.12,0.72,0.25,1.075,0.381L262.672,250.403L262.672,250.403z"/>
			<path fill="#A77860" d="M227.753,296.245c0,0,7.466,9.267,20.073,2.836c0,0-4.152,6.771-10.663,6.296
				C230.652,304.902,227.753,296.245,227.753,296.245z"/>
			
				<linearGradient id="SVGID_1_" gradientUnits="userSpaceOnUse" x1="133.7078" y1="687.3984" x2="325.7439" y2="687.3984" gradientTransform="matrix(1 0 0 1 8.3999 -215.96)">
				<stop  offset="0" style="stop-color:#F79F55"/>
				<stop  offset="1" style="stop-color:#FAD255"/>
			</linearGradient>
			<rect x="142.108" y="468.01" fill="url(#SVGID_1_)" width="192.036" height="6.857"/>
		</g>
		<g>
			<g>
				<g>
					<g>
						<g>
							<g>
								<path fill="#ECA987" d="M541.641,394.465c0,0,2.201-2.043,1.766-3.572c-0.371-1.301,0.188-2.76,0.329-3.359
									c0.188-0.805,0.262-3.401,0.859-3.258c1.014,0.242,0.777,4.393,0.9,5.275c0.123,0.885,2.805-2.076,3.718-2.232
									c0.914-0.152,5.564,4.558,3.493,6.378c-2.071,1.813-4.932,2.556-5.23,2.944c-0.302,0.394-1.721,1.474-1.721,1.474
									L541.641,394.465z"/>
							</g>
						</g>
					</g>
				</g>
				<g>
					<g>
						<g>
							<g>
								<path fill="#ECA987" d="M548.63,387.629c0,0,6.713-5.146,7.447-5.113c0.732,0.03,0.991,0.412,0.385,0.918
									c-0.608,0.51-6.345,5.159-6.345,5.159s8.972-4.755,9.577-4.86c0.354-0.06,0.624,0.619,0.323,0.922
									c-0.3,0.303-8.646,5.551-8.646,5.551s8.383-4.426,8.917-4.363c0.469,0.057,0.803,0.831,0.203,1.2
									c-0.601,0.373-8.146,4.92-8.146,4.92s6.305-2.839,6.726-2.521c0.257,0.197,0.617,0.629-1.029,1.312
									c-1.648,0.681-5.237,2.854-5.237,2.854L548.63,387.629z"/>
							</g>
						</g>
					</g>
				</g>
			</g>
			<g>
				<path fill="#F4CCA2" d="M495.005,332.396c0,0,16.061-1.336,15.62,15.56c-0.44,16.894-3.117,19.435,0.01,31.373
					c3.125,11.937-15.657-6.778-15.657-6.778L495.005,332.396z"/>
			</g>
			<g>
				<g>
					<path fill="#353A5E" d="M446.081,585.239c0,0-5.963,8.378-5.145,9.707c0.817,1.324,7.089,1.517,10.905,0
						c3.816-1.521,3.908-11.342,5.636-15.556c0.724-1.768-0.824-6.979-3.001-7.357c-2.174-0.377-4.54,0.731-4.54,0.731
						S452.194,578.707,446.081,585.239z"/>
				</g>
			</g>
			<g>
				<g>
					<g>
						<path fill="#ECA886" d="M449.897,572.699c0,0-1.254,3.564-1.714,6.973c-0.38,2.824-4.248,8.824-4.064,9.584
							c0.183,0.759,5.089,1.445,7.089-0.512c2-1.954,3.285-7.646,3.727-11.046c0.41-3.169,0.929-4.736,0.929-4.736
							S451.807,570.612,449.897,572.699z"/>
					</g>
				</g>
			</g>
			<g>
				<g>
					<path fill="#353A5E" d="M497.988,585.378c0,0-5.749,8.239-4.931,9.568c0.818,1.324,7.089,1.517,10.905,0
						c3.816-1.521,3.907-11.342,5.635-15.556c0.724-1.768-0.822-6.979-2.999-7.357c-2.174-0.377-4.726,0.813-4.726,0.813
						S504.1,578.848,497.988,585.378z"/>
				</g>
			</g>
			<g>
				<g>
					<g>
						<path fill="#ECA886" d="M501.875,572.846c0,0-0.455,3.893-1.183,6.643c-0.729,2.749-4.638,9.01-4.454,9.77
							c0.182,0.759,5.09,1.445,7.09-0.512c1.998-1.954,3.544-7.617,3.727-11.046c0.183-3.428-0.455-5.665-0.455-5.665
							S503.781,570.759,501.875,572.846z"/>
					</g>
				</g>
			</g>
			<g>
				<g>
					<g>
						<path fill="#303657" d="M473.149,436.461c0,0-5.117,24.842-6.292,31.099c-1.177,6.254-4.469,36.543-4.82,41.693
							c-0.353,5.149-5.339,24.558-5.104,26.397c0.233,1.839-8.099,38.301-8.099,38.301s5.904,0.638,8.26-0.351
							c1.609-0.671,14.535-33.556,14.535-42.753c0-12.716,7.102-29.313,8.13-32.207c10.131-28.483,11.989-35.243,13.397-36.963
							c0,0,0.215,2.325,0.696,6.188c0.553,4.438,2.972,36.14,4.028,40.31c1.059,4.167,0.235,18.272,0.822,25.385
							c0.589,7.112,1.679,39.56,1.679,39.56s5.307,0.23,7.643-1.162c0.784-0.469,3.487-34.863,3.606-43.325
							c0.117-8.462,0.244-20.132,0.47-23.792c2.179-35.063,7.529-40.075-0.898-64.892
							C495.423,393.48,473.149,436.461,473.149,436.461z"/>
					</g>
				</g>
			</g>
			<g>
				<g>
					<polygon fill="#353A5E" points="457.64,578.654 457.64,587.424 456.549,587.424 456.549,580.646 					"/>
				</g>
			</g>
			<g>
				<g>
					<polygon fill="#353A5E" points="509.758,578.654 509.758,587.424 508.668,587.424 508.668,580.646 					"/>
				</g>
			</g>
			<g>
				<path fill="#ECA886" d="M488.321,377.348c0,0,1.409-3.32,2.461-7.041c0.049-0.178,0.097-0.354,0.143-0.533
					c0.125-0.484,0.238-0.978,0.345-1.465c0.059-0.275,0.11-0.552,0.162-0.824c0.371-2.055,0.478-4.018,0.001-5.416
					c-1.559-4.602,9.766-1.418,9.766-1.418s-2.193,12.173,0,16.271C503.39,381.027,488.321,377.348,488.321,377.348z"/>
			</g>
			<g>
				<path fill="#E9DAD3" d="M507.523,377.148c1.261-1.578-7.604-2.131-7.604-2.131l-10.347-0.893c0,0-7.11,1.186-12.629,3.096
					c-5.521,1.91-12.748,12.365-12.748,12.365s9.976,23.416,11.886,30.139c1.909,6.722-2.166,23.823-2.166,23.823
					c11.957,6.507,35.571,0.694,35.571,0.694S500.071,386.477,507.523,377.148z"/>
			</g>
			<g>
				<path fill="#CEBEB8" d="M511.739,405.374c0,0-0.464,0.981-1.74,4.847c-1.299-10.855-0.618-16.506-0.618-16.506
					C509.521,399.518,511.739,405.374,511.739,405.374z"/>
			</g>
			<g>
				<path fill="#ECA886" d="M500.491,374.654l-12.174,9.926l1.254-10.453C489.572,374.127,496.672,372.593,500.491,374.654z"/>
			</g>
			<g>
				<path fill="#484F80" d="M508.526,416.471c-1.676,6.943,6.795,28.677,6.795,28.677l-14.295,4.842
					c-1.77,0.598-3.654-0.518-3.98-2.354c-1.611-9.041-5.791-33.275-6.264-44.023c-0.589-13.353,9.133-29.104,9.133-29.104
					c17.277,2.967,12.541,29.104,12.541,29.104s-0.626,1.646-1.466,4.222l0,0c-0.21,0.647-0.435,1.353-0.666,2.103
					C509.733,411.867,509.097,414.107,508.526,416.471z"/>
			</g>
			<g>
				<path fill="#484F80" d="M488.35,374.698l0.214-0.571c0,0-8.848,1.344-13.347,3.589c-4.496,2.248-13.104,13.853-13.104,13.853
					l11.26,14.865c0.015,11.426-3.973,38.227-3.973,38.227l7.825,3.204c1.219,0.497,2.558-0.388,2.577-1.702
					c0.126-8.158,0.504-32.322,0.696-41.752c0.233-11.428,8.389-29.902,8.389-29.902
					C488.703,374.568,488.526,374.633,488.35,374.698z"/>
			</g>
			<g>
				<path fill="#ECA886" d="M472.307,428.263c0,0,8.49,0.332,9.813,0c1.319-0.33,10.128-4.147,10.657-7.924
					c0.529-3.772-20.471,3.383-20.471,3.383L472.307,428.263L472.307,428.263z"/>
			</g>
			<g>
				<polygon fill="#293C57" points="498.648,416.471 464.195,412.439 479.759,425.104 				"/>
			</g>
			<g>
				<polygon fill="#6DA0CB" points="479.759,425.104 498.648,418.666 498.648,416.471 479.122,422.735 				"/>
			</g>
			<g>
				<polygon fill="#F3E6DE" points="490.211,372.199 483.664,382.585 480.498,384.58 487.877,374.236 				"/>
			</g>
			<g>
				<polygon fill="#D5C5BE" points="483.664,382.585 488.318,384.58 489.572,374.127 490.211,372.199 				"/>
			</g>
			<g>
				<path fill="#484F80" d="M473.345,423.404c0,0-0.354,4.388,0,5.307c0,0-21.248-2.122-23.229-5.093
					c-1.979-2.972-1.912-6.579-1.912-6.579L473.345,423.404z"/>
			</g>
			<g>
				<polygon fill="#6DA0CB" points="479.759,425.104 469.713,387.747 431.509,383.716 441.979,418.1 				"/>
			</g>
			<g>
				<path fill="#484F80" d="M529.277,403.75c1.914-1.582,3.042-2.161,5.352-4.148c3.595-3.095,8.188-7.012,8.188-7.012l4.364,6.411
					c0,0-10.56,9.281-16.171,14.792l0,0c0,0-7.103,7.626-8.688,6.951c-1.586-0.676-7.25-8.885-11.771-16.771
					c-4.521-7.893-6.547-12.93-6.773-16.367c-0.227-3.435,11.149-5.09,11.149-5.09l8.906,19.45c0,0,1.586,2.782,2.393,3.624
					C526.225,405.59,528.227,404.452,529.277,403.75z"/>
			</g>
			<g>
				<path fill="#ECA886" d="M496.575,334.107c-3.98-0.65-13.089,0.346-15.672,10.799c0,0-0.006,2.895,0.432,5.222
					s-2.335,8.724-1.848,9.108c0.487,0.384,2.611,1.053,2.611,1.053s1.508,7.506,4.057,7.732c2.548,0.229,12.395-0.656,17.953-9.143
					C509.67,350.393,512.649,336.738,496.575,334.107z"/>
			</g>
			<g>
				<path fill="#F4CCA2" d="M480.904,344.906c0,0,5.99,5.173,12.338,6.805c6.349,1.633,9.706,8.762,9.706,8.762
					s11.229-11.201,4.454-22.07C500.626,327.532,480.915,332.381,480.904,344.906z"/>
			</g>
			<g>
				<path fill="#F4CCA2" d="M494.408,352.084c0,0,6.645,17.432,5.866,21.637c0,0,3.282-0.57,9.402,1.297
					C509.679,375.018,506.722,343.877,494.408,352.084z"/>
			</g>
			<g>
				<polygon fill="#D5C5BE" points="491.839,382.896 488.318,384.58 500.275,372.729 				"/>
			</g>
			<g>
				<polygon fill="#F3E6DE" points="500.275,372.729 491.839,382.896 496.455,387.014 501.438,374.843 				"/>
			</g>
			<g>
				<path fill="#A77860" d="M497.961,364.828c-0.056,0.09-1.886,2.934-7.037,4.943c0.125-0.484,0.238-0.978,0.345-1.463
					c0.059-0.277,0.11-0.554,0.162-0.826C491.431,367.482,495.694,366.439,497.961,364.828z"/>
			</g>
			<g>
				
					<ellipse transform="matrix(-0.8832 0.469 -0.469 -0.8832 1046.2976 548.2034)" fill="#6595C5" cx="454.892" cy="404.375" rx="2.223" ry="4.1"/>
			</g>
			<g>
				<path fill="#484F80" d="M501.438,374.843c0,0,11.128-1.513,14.369,10.14C515.807,384.98,501.656,383.459,501.438,374.843z"/>
			</g>
		</g>
		<g>
			<path fill="#1F2338" d="M333.538,583.396c0,0-1.954,3.647-3.231,5.097c-1.277,1.444-6.17,4.035-6.196,8.337
				c-0.029,4.661,8.247,3.369,11.481,3.198c3.237-0.17,3.48-2.66,4.847-5.303c1.361-2.642,2.734-2.193,2.99-4.321
				c0.255-2.131-1.319-7.009-1.319-7.009L333.538,583.396L333.538,583.396z"/>
			<g>
				<path fill="#1F2338" d="M382.805,582.973c0,0,3.988,4.451,8.038,5.387c4.05,0.934,6.881,2.12,6.91,4.679
					c0.03,2.554-11.65,4.237-16.284,1.663c-6.916-3.846-7.616-2.688-8.385-4.607c-0.768-1.922,0.921-7.062,0.871-7.673
					C373.894,581.664,382.805,582.973,382.805,582.973z"/>
			</g>
			<g>
				<path fill="#81807E" d="M382.358,580.841c0,0,0.523,2.087,0.445,2.132c-0.078,0.043-9.124,1.121-8.85-0.554
					c0.223-1.355,0.538-2.831,0.538-2.831L382.358,580.841z"/>
			</g>
			<g>
				<path fill="#81807E" d="M341.996,581.988c0,0,0.379,1.989,0.306,2.04c-0.071,0.045-9.173,1.672-9.12,0.019
					c0.04-1.313,0.841-2.843,0.841-2.843L341.996,581.988z"/>
			</g>
			<g>
				<path fill="#282C47" d="M374.131,455.971c0,0,3.292,31.946,5.002,42.886c2.001,12.784,2.681,23.352,3.237,29.969
					c0.7,8.325,0.835,49.274,1.326,51.708c0.492,2.436-10.896,0.673-10.896,0.673s-5.602-53.504-7.69-62.371
					c-1.944-8.254-9.167-43.792-10.941-41.538c-1.776,2.254-3.979,41.474-5.293,47.984c-1.314,6.512-5.314,57.479-5.314,57.479
					s-9.063,1.81-11.474-0.234c0,0-1.098-43.925-0.261-56.13c0.317-4.651-5.449-55.776,1.947-76.356
					C337.684,439.16,374.131,455.971,374.131,455.971z"/>
			</g>
			<g>
				<path fill="#DBD8DE" d="M344.604,448.892c0,0,2.195-3.318,4.518-3.748c2.327-0.426-32.018-17.025-31.925-22.958
					c0.07-4.81,12.367-12.791,12.367-12.791s0,0.006,0.003,0.021c0.003,0.006,0.003,0.013,0.003,0.017
					c0,0.01,0.004,0.016,0.004,0.021c0.261,0.951,3.813,14.131,3.937,20.463c0.131,6.575-0.394,29.183-0.394,29.183l8.805,2.357
					l28.115,0.263l6.416-2.62c0,0-0.7-7.268-0.96-12.375c-0.163-3.246-0.793-9.057-0.631-14.719c0,0-0.104-5.963,0.488-8.533
					c0.063-11.339,0.749-22.569,0.749-22.569c0.384-5.141,0.646-9.948,0.798-14.437c-1.24-0.653-2.731-1.422-3.927-1.989
					c-3.691-1.761-8.839-4.127-12.141-5.645c-1.936-0.889-3.827-1.537-3.827-1.537s-13.196-1.264-14.269-1.195
					c-0.34,0.021-1.987,0.596-4.151,1.42c-4.681,1.774-13.701,5.393-15.14,6.424c-2.108,1.51-15.902,38.004-16.104,40.515
					C306.979,428.974,344.604,448.892,344.604,448.892z"/>
			</g>
			<path fill="#1C2033" d="M375.606,456.696c0,0-19.313,1.646-36.229,0v5.552c0,0,25.188,2.403,37.074-1.06L375.606,456.696z"/>
			<g>
				<path fill="#313657" d="M359.134,378.1c0,0,3.142,7.381,5.498,23.879c0.906,6.338,2.586,17.002,3.806,27.888v0.002
					c0.963,8.582,3.158,17.389,3.854,23.957c0.724,6.807,2.902,26.854,2.902,26.854l5.281-3.332
					c0.755-0.697,1.811-1.604,1.505-2.582c-1.453-4.689-4.232-20.196-5.875-33.713c0-0.01-0.005-0.016-0.005-0.024
					c-0.076-0.652-0.152-1.299-0.229-1.938c-0.003-0.032-0.008-0.064-0.012-0.104c-0.311-2.702-0.566-5.291-0.751-7.665
					c-0.141-1.817-0.014-3.595,0.236-5.329c0.735-12.133,1.102-24.924,1.102-24.924c0.39-5.234,0.608-10.129,0.759-14.688
					C377.206,386.38,360.634,378.548,359.134,378.1z"/>
			</g>
			<g>
				<path fill="#313657" d="M321.137,420.51c-2.29,5.023,21.021,13.977,20.496,15.214c-1.262,2.974-6.404,9.026-6.404,9.026
					s-30.692-15.179-30.35-18.623c0.25-2.507,14.629-40.395,16.735-41.902c1.216-0.873,10.23-4.067,14.653-5.812
					c0.81-0.322,3.568-1.356,4.292-1.63c0.938,1.043,7.407,8.18,9.688,35.143c0.386,4.545-0.828,14.173-1.642,22.026
					c-0.865,8.381-1.825,14.925-2.528,21.934c-1.386,13.808-2.354,24.794-2.354,24.794l-13.742-6.12
					c-2.225-1.108-6.07-4.015-5.233-6.356c3.178-8.896,7.944-25.761,7.949-33.57c0,0-2.247-21.545-3.462-25.748
					C329.237,408.883,323.699,414.895,321.137,420.51z"/>
			</g>
			<g>
				<path fill="#ECA987" d="M343.954,377.5c0,0-0.091-4.532-1.837-13.699c-0.468-2.451,14.245,6.456,14.245,6.456
					s-0.046,0.86-0.074,2.021c-0.019,0.615-0.027,1.313-0.021,2.008c0.002,0.247,0.005,0.49,0.011,0.73
					c0.016,0.649,0.043,1.271,0.098,1.799c0.058,0.545,0.378,1.504,0.491,1.769C357.472,379.98,348.908,381.044,343.954,377.5z"/>
			</g>
			<path fill="#E7734D" d="M353.138,382.247l2.438,3.276c0,0-1.428,1.91-3.966,0.5L353.138,382.247z"/>
			<path fill="#E7734D" d="M354.923,385.656c0,0,9.249,35.605,7.342,63.326l-3.11,5.482l-2.911-5.743c0,0-0.799-49.581-3.335-63.153
				L354.923,385.656z"/>
			<path fill="#ECA987" d="M355.748,379.191l-2.61,3.056c0,0-4.189-0.813-5.421-3C346.486,377.059,355.748,379.191,355.748,379.191z
				"/>
			<path fill="#C4C1CA" d="M356.348,376.516c0,0-0.304,2.332-3.21,5.731l3.171,4.261l1.72-8.841L356.348,376.516z"/>
			<path fill="#C4C1CA" d="M343.674,373.926c0,0,5.228,6.645,9.464,8.321l-1.972,4.872l-9.005-10.883L343.674,373.926z"/>
			<g>
				<path fill="#ECA886" d="M430.967,423.188c0,0,9.688,1.131,10.233,1.752c0.546,0.618,0.415,1.146-0.498,1.074
					c-0.911-0.067-9.409-0.815-9.409-0.815s11.105,3.277,11.672,3.683c0.331,0.236,0.141,1.265-0.354,1.276
					c-0.495,0.006-11.733-2.604-11.733-2.604s10.361,3.081,10.726,3.568c0.315,0.422-0.094,1.337-0.882,1.163
					c-0.789-0.173-10.605-2.479-10.605-2.479s7.368,2.729,7.417,3.336c0.031,0.369-0.092,1.266-1.968,0.499
					c-1.874-0.766-6.521-2.091-6.521-2.091L430.967,423.188z"/>
			</g>
			<g>
				<g>
					<path fill="#ECA886" d="M419.511,423.645c0,0,3.227,0.167,4.212-1.466c0.84-1.386,2.888-2.645,3.519-3.034
						c0.843-0.518,2.898-3.031,3.494-2.021c0.594,1.011-3.201,4.296-3.871,5.134c-0.668,0.84,3.98,0.531,4.828,1.145
						c0.848,0.607,0.388,8.304-2.803,8.146c-3.189-0.158-6.347-2.436-6.923-2.35c-0.573,0.081-2.331-0.024-2.331-0.024
						L419.511,423.645z"/>
				</g>
			</g>
			<g>
				<path fill="#313657" d="M420.857,431.25c0,0-23.769-3.328-29.042-4.624c-2.438-0.599-5.651-3.968-8.703-7.926
					c-1.006-1.302-1.993-2.671-2.935-4.025c-0.003-0.002-0.003-0.004-0.003-0.004c-3.743-5.405-6.68-10.589-6.68-10.589
					s-11.067-12.971-2.188-18.752c0,0,3.809-0.086,5.896,1.05c2.146,1.168,6.728,10.728,7.502,12.415
					c0.776,1.691,9.188,17.413,9.751,17.766c0.563,0.354,8.957,2.179,12.7,2.957c5.419,1.133,15.603,3.244,15.603,3.244
					L420.857,431.25z"/>
			</g>
			<rect x="352.331" y="456.994" fill="#394066" width="9.033" height="6.852"/>
			<path fill="#EDAA88" d="M346.276,449.299c0,0-1.123-0.047-1.604-0.304c0,0-0.842-0.54-1.46-0.887
				c-0.198-0.11-0.372-0.201-0.491-0.246c-0.495-0.2-1.645-0.483-2.701-1.29c-1.057-0.808-4.506-4.031-4.506-4.031l2.229-3.426
				l1.029-3.394c0,0,8.036,0.801,9.109,1.437c0.104,0.063,0.205,0.129,0.295,0.202c0.854,0.625,1.229,1.449,1.643,1.83
				c0.148,0.143,1.55,1.641,1.471,2.25c-0.105,0.842-0.523,1.384-1.047,1.641c0,0-0.283,1.643-1.135,2.376
				c0,0-0.213,1.524-1.528,2.138C347.577,447.595,347.189,449.117,346.276,449.299z"/>
			<path fill="#313657" d="M335.229,444.75c0,0,4.47-3.668,6.891-9.026l-13.72-7.514l-5.092,10.367L335.229,444.75z"/>
			<g>
				<path fill="#ECA886" d="M364.108,347.705c0,0,3.231,5.99,1.631,6.923c-1.324,0.769,1.551,6.649,1.929,7.608
					c0.375,0.963-2.399,1.662-2.988,2.279c-0.589,0.614-2.334,8.228-4.618,8.454c-2.283,0.23-12.577-3.351-15.38-6.265
					c-2.803-2.912-5.104-16.078-3.231-21.629C343.318,339.527,358.404,337.234,364.108,347.705z"/>
			</g>
			<g>
				<path fill="#E7734D" d="M364.755,349.003c0,0,3.299-6.474-2.694-11.272c-5.991-4.801-17.042,3.625-18.287,3.945
					c-1.244,0.32-8.313,0.809-4.744,13.215c3.063,10.652,3.49,11.103,3.49,11.103s2.287-6.173,3.584-7.11
					c2.023-1.47,6.461-1.115,6.461-1.115s-2.114-5.613,1.188-6.41C357.057,350.563,361.411,347.762,364.755,349.003z"/>
			</g>
			<g>
				<path fill="#ECA886" d="M349.044,354.55c-0.292-0.771-1.233-4.079-4.072-2.136c-2.84,1.941,1.769,8.179,2.263,8.261
					C347.729,360.754,351.494,361.027,349.044,354.55z"/>
			</g>
			<path fill="#A77860" d="M356.267,374.284c0.002,0.247,0.006,0.491,0.011,0.731c-8.417-2.82-10.045-7.074-10.045-7.074
				c2.625,1.857,10.058,4.336,10.058,4.336C356.271,372.893,356.261,373.589,356.267,374.284z"/>
		</g>
		<rect x="303.325" y="116.384" fill="#F18D42" width="33.602" height="2.509"/>
		<rect x="303.325" y="119.99" fill="#F18D42" width="33.602" height="6.793"/>
		<rect x="109.865" y="46.336" fill="#F18D42" width="27.775" height="1.946"/>
		<rect x="109.865" y="50.006" fill="#F18D42" width="27.775" height="8.185"/>
		<rect x="142.203" y="35.842" fill="#F18D42" width="1.222" height="22.935"/>
		<polygon fill="#F18D42" points="608.545,61.895 616.385,61.895 613.986,56.917 606.146,56.917 		"/>
		<polygon fill="#F18D42" points="604.877,61.895 606.744,61.895 604.346,56.917 602.477,56.917 		"/>
		<polygon fill="#F18D42" points="577.787,55.967 609.536,55.967 608.482,53.477 576.734,53.477 		"/>
		<g>
			<g>
				<rect x="148.261" y="482.551" fill="#E1D2CA" width="39.198" height="2.327"/>
			</g>
			<g>
				<rect x="178.771" y="490.935" fill="#706865" width="3.435" height="105.821"/>
			</g>
			<g>
				<rect x="127.15" y="481.893" fill="#CCBDB7" width="27.246" height="3.322"/>
			</g>
			<g>
				<rect x="135.614" y="453.542" fill="#FBAA55" width="10.317" height="31.336"/>
			</g>
			<g>
				<rect x="20" y="484.308" fill="#B49074" width="181.521" height="7.236"/>
			</g>
			<g>
				<path fill="#D44040" d="M230.493,448.502c0,0,1.65,23.151-2.873,25.925c-2.835,1.734-14.135,7.59-13.8,8.69
					c0.335,1.095,6.381,9.769,6.381,9.769s21.704-14.293,22.404-18.797c0.685-4.4-1.067-33.906-4.051-35.264
					c-2.234-1.021-3.414-0.175-6.229,1.914C228.373,443.674,230.493,448.502,230.493,448.502z"/>
			</g>
			<g>
				<g>
					<g>
						<path fill="#E7D8CF" d="M190.934,455.111l-1.913-0.707c0,0,2.387-5.603,3.428-5.462c1.198,0.154,2.696,0.552,2.696,0.552
							L190.934,455.111z"/>
					</g>
				</g>
			</g>
			<g>
				<g>
					<g>
						<path fill="#DA9B5B" d="M190.497,456.077c0.245-0.184,4.065-7.512,4.065-7.512l8.167,1.106l-4.413,8.686L190.497,456.077z"/>
					</g>
				</g>
			</g>
			<g>
				<g>
					<g>
						<path fill="#414773" d="M203.788,582.305c0,0,0.676,4.688,0.759,5.393c0.084,0.703,7.508-0.416,7.508-0.416l0.601-5.578
							C212.656,581.701,204.715,581.646,203.788,582.305z"/>
					</g>
				</g>
			</g>
			<g>
				<g>
					<g>
						<path fill="#282C47" d="M204.468,587.098c0,0-2.353,2.825-4.627,4.058c-2.276,1.229-5.851,1.716-7.196,2.99
							c-0.971,0.921-3.538,4.879,5.912,4.797c9.45-0.079,14.004,0.561,15.019-0.956c1.012-1.521-1.466-11.202-1.466-11.202
							S209.871,587.589,204.468,587.098z"/>
					</g>
				</g>
			</g>
			<g>
				<g>
					<g>
						<path fill="#414773" d="M156.222,582.352c0,0,0.675,4.688,0.76,5.391c0.083,0.705,7.508-0.416,7.508-0.416l0.602-5.576
							C165.091,581.748,157.15,581.689,156.222,582.352z"/>
					</g>
				</g>
			</g>
			<g>
				<g>
					<g>
						<path fill="#282C47" d="M156.903,587.146c0,0-2.352,2.822-4.627,4.053c-2.274,1.229-10.646,2.242-11.991,3.516
							c-0.972,0.917-2.588,4.62,10.708,4.273c9.445-0.244,14.005,0.561,15.017-0.958c1.012-1.518-1.465-11.202-1.465-11.202
							S162.435,587.685,156.903,587.146z"/>
					</g>
				</g>
			</g>
			<g>
				<g>
					<g>
						<path fill="#282C47" d="M227.733,501.38c0,0-26.991,4.567-33.087,5.524c-6.097,0.956-39.15,9.18-43.284,11.688
							c-3.291,1.993,1.727,49.908,2.897,68.189h13.02l0.944-54.837c15.622,0.392,26.771-3.656,38.148-1.928
							c11.377,1.729,20.861,4.184,28.091-5.515C234.463,524.505,234.73,503.497,227.733,501.38z"/>
					</g>
				</g>
			</g>
			<g>
				<g>
					<g>
						<path fill="#282C47" d="M201.129,586.825l12.688-0.785l1.236-54.095c6.725,0.17,9.033-0.259,14.474-0.919l10.245-23.812
							c-8.978,1.793-37.743,9.049-41.578,11.376C194.904,520.588,199.958,568.544,201.129,586.825z"/>
					</g>
				</g>
			</g>
			<g>
				<g>
					<g>
						<path fill="#ECA886" d="M215.309,400.207c0,0-9.895-2.734-13.669,4.943c-3.774,7.685-2.063,22.245,2.922,23.613
							c4.986,1.37,12.158-0.208,14.229-4.986c2.068-4.779,3.721-11.576,3.226-15.975
							C221.52,403.404,217.936,401.257,215.309,400.207z"/>
					</g>
				</g>
			</g>
			<g>
				<g>
					<g>
						<path fill="#ECA886" d="M207.148,427.231c0,0,0.108,5.843-0.536,7.088c-0.644,1.245,13.778,0.932,13.778,0.932
							s-2.272-7.015-0.984-12.988C220.683,416.35,207.148,427.231,207.148,427.231z"/>
					</g>
				</g>
			</g>
			<g>
				<g>
					<g>
						<path fill="#3A3F47" d="M220.183,420.05c0,0-0.771,1.566-4.503,1.314c-3.733-0.253-8.657-4.757-10.242-5.158
							c-1.584-0.404-1.678-1.306-1.678-1.306l-0.839,1.49l-1.623,0.246c0,0,1.103-4.513-1.301-6.101
							c-2.404-1.591,1.083-14.394,13.255-11.306c0,0,9.289,1.701,9.414,6.89C222.79,411.309,221.987,417.3,220.183,420.05z"/>
					</g>
				</g>
			</g>
			<g>
				<g>
					<g>
						<path fill="#E1D2CA" d="M205.854,434.171c0,0,0.041-2.381,1.119-2.611c1.078-0.226,11.337-1.638,12.661-1.112l0.567,3.141
							C220.201,433.586,217.65,435.155,205.854,434.171z"/>
					</g>
				</g>
			</g>
			<g>
				<g>
					<g>
						<path fill="#ECA886" d="M202.886,413.836c0.276-1.951,2.494-4.189,3.763-1.148c1.271,3.035-0.856,7.459-2.281,7.224
							C202.943,419.67,202.51,416.482,202.886,413.836z"/>
					</g>
				</g>
			</g>
			<g>
				<g>
					<g>
						<path fill="#313657" d="M162.889,462.283c0.004-0.005,0.01-0.005,0.019-0.005
							C162.833,462.313,162.821,462.315,162.889,462.283z"/>
					</g>
				</g>
			</g>
			<g>
				<g>
					<g>
						<path fill="#3A3F47" d="M218.194,401.6c0,0,12.064-0.564,2.105,18.269L218.194,401.6z"/>
					</g>
				</g>
			</g>
			<g>
				<g>
					<polygon fill="#918783" points="245.074,593.242 244.176,595.768 206.258,584.019 208.075,578.907 					"/>
				</g>
			</g>
			<g>
				<g>
					<rect x="204.957" y="540.992" fill="#918783" width="4.31" height="41.229"/>
				</g>
			</g>
			<g>
				<g>
					<rect x="194.402" y="538.804" fill="#5E5854" width="25.419" height="2.431"/>
				</g>
			</g>
			<g>
				<g>
					<polygon fill="#918783" points="168.816,593.242 169.715,595.768 207.633,584.019 205.966,578.585 					"/>
				</g>
			</g>
			<g>
				<g>
					<polygon fill="#918783" points="195.533,595.496 195.533,598.434 207.633,584.019 205.966,578.585 					"/>
				</g>
			</g>
			<g>
				<g>
					<path fill="#BFB2AC" d="M165.273,596.756c0,1.957,1.586,3.54,3.543,3.54s3.543-1.583,3.543-3.54
						c0-1.961-1.586-3.544-3.543-3.544S165.273,594.795,165.273,596.756z"/>
				</g>
			</g>
			<g>
				<g>
					<path fill="#BFB2AC" d="M195.231,596.756c0,1.957,1.588,3.54,3.544,3.54c1.957,0,3.544-1.583,3.544-3.54
						c0-1.961-1.587-3.544-3.544-3.544C196.819,593.212,195.231,594.795,195.231,596.756z"/>
				</g>
			</g>
			<g>
				<g>
					<path fill="#BFB2AC" d="M241.529,596.756c0,1.957,1.588,3.54,3.545,3.54c1.956,0,3.543-1.583,3.543-3.54
						c0-1.961-1.587-3.544-3.543-3.544C243.116,593.212,241.529,594.795,241.529,596.756z"/>
				</g>
			</g>
			<g>
				<path fill="#F7F7F7" d="M180.073,538.804h53.744c1.788,0,3.238-1.447,3.238-3.234v-2.727c0-1.79-1.451-3.241-3.238-3.241
					h-53.744c-1.788,0-3.238,1.451-3.238,3.241v2.727C176.834,537.354,178.284,538.804,180.073,538.804z"/>
			</g>
			<g>
				<rect x="69.874" y="490.935" fill="#706865" width="3.435" height="105.821"/>
			</g>
			<g>
				
					<linearGradient id="SVGID_2_" gradientUnits="userSpaceOnUse" x1="87.8269" y1="653.1719" x2="176.9177" y2="653.1719" gradientTransform="matrix(1 0 0 1 8.3999 -215.96)">
					<stop  offset="0" style="stop-color:#F79F55"/>
					<stop  offset="1" style="stop-color:#FAD255"/>
				</linearGradient>
				<path fill="url(#SVGID_2_)" d="M99.457,468.635h82.63c1.785,0,3.23-1.442,3.23-3.229v-56.389c0-1.783-1.446-3.229-3.23-3.229
					h-82.63c-1.784,0-3.23,1.446-3.23,3.229v56.389C96.227,467.19,97.673,468.635,99.457,468.635z"/>
			</g>
			<g>
				<rect x="99.716" y="409.186" fill="#F7F7F8" width="82.113" height="49.604"/>
			</g>
			<g>
				<path fill="#F7C655" d="M122.328,484.998v-1.118c0,0,1.572-6.954,12.694-6.954s10.897,8.072,10.897,8.072H122.328
					L122.328,484.998z"/>
			</g>
			<g>
				<g>
					<path fill="#ECA886" d="M146.054,477.957c0,0-2.415-0.188-3.3-0.724c-0.886-0.534-6.183-4.096-7.426-3.523
						c-1.244,0.568-9.522,3.105-9.235,4.316c0.288,1.211,1.054,1.095,1.638,0.88c0.584-0.216,6.596-1.479,7.126-1.265
						c0,0-5.904,2.153-5.929,3.728c-0.024,1.57,1.236,1.956,1.796,2.549c0.561,0.594,1.232,2.068,2.754,2.183
						c1.522,0.115,8.946-2.47,10.476-2.588c1.527-0.118,4.356,0.096,4.55-0.153C148.695,483.109,146.054,477.957,146.054,477.957z"
						/>
				</g>
			</g>
			<g>
				<g>
					<g>
						<path fill="#D44040" d="M190.042,437.468c7.704-1.354,15.812-3.297,15.812-3.297l14.348-0.587c0,0,13.167,2.897,18.354,5.241
							c0.492,0.223,0.495,11.747,1.845,14.77l-4.3,9.071c0,0-2.482,17.967-2.999,25.956c-0.235,3.67,0.669,35.453,0.669,35.453
							s-1.289,0.638-11.08,1.718c-9.792,1.078-34.259-0.394-34.413-1.547c-0.153-1.157,4.739-43.067,4.955-45.235
							c0.333-3.33-0.962-18.721-0.962-18.721c-1.846,2.478-6.549,13.669-11.451,18.994c-2.885,3.13-17.164,5.05-19.854,5.14
							c-5.859,0.195-16.548,1.363-16.86,0.793c-0.249-0.341-0.931-9.485-0.262-9.709c0.587-0.196,20.434-1.34,25.519-4.038
							c1.86-0.984,7.423-13.11,7.423-13.11S185.792,439.376,190.042,437.468z"/>
					</g>
				</g>
			</g>
			<g>
				<path fill="#F7F7F7" d="M215.813,523.158h29.093c3.436,0,6.22-2.784,6.22-6.222v-45.077c0-3.438-2.784-6.222-6.22-6.222h-29.093
					c-3.434,0-6.218,2.783-6.218,6.222v45.077C209.594,520.374,212.378,523.158,215.813,523.158z"/>
			</g>
			<g>
				<path fill="#F7F7F7" d="M216.954,536.515c6.122,0,11.088-2.057,14.761-6.112c8.302-9.164,6.81-25.277,6.742-25.958
					c-0.125-1.271-1.258-2.198-2.527-2.072s-2.196,1.258-2.071,2.527c0.019,0.184,1.341,14.789-5.578,22.41
					c-2.799,3.086-6.504,4.584-11.326,4.584c-1.276,0-2.312,1.032-2.312,2.31S215.677,536.515,216.954,536.515z"/>
			</g>
			<g>
				<g>
					<g>
						<path fill="#DFE1E3" d="M152.418,415.758h23.126c0.256,0,0.463-0.21,0.463-0.465V413.6c0-0.257-0.207-0.463-0.463-0.463
							h-23.126c-0.256,0-0.463,0.206-0.463,0.463v1.693C151.955,415.548,152.162,415.758,152.418,415.758z"/>
					</g>
				</g>
			</g>
			<g>
				<g>
					<g>
						<path fill="#DFE1E3" d="M152.418,421.378h23.126c0.256,0,0.463-0.208,0.463-0.465v-1.692c0-0.256-0.207-0.463-0.463-0.463
							h-23.126c-0.256,0-0.463,0.207-0.463,0.463v1.692C151.955,421.17,152.162,421.378,152.418,421.378z"/>
					</g>
				</g>
			</g>
			<g>
				<g>
					<g>
						<path fill="#DFE1E3" d="M153.512,454.836h20.938c0.859,0,1.557-0.695,1.557-1.555V426.76c0-0.858-0.697-1.56-1.557-1.56
							h-20.938c-0.86,0-1.557,0.699-1.557,1.56v26.521C151.955,454.141,152.652,454.836,153.512,454.836z"/>
					</g>
				</g>
			</g>
			<g>
				<g>
					<g>
						<path fill="#DFE1E3" d="M106.73,454.836h37.903c1.361,0,2.465-1.103,2.465-2.464v-36.771c0-1.36-1.104-2.465-2.465-2.465
							H106.73c-1.361,0-2.465,1.104-2.465,2.465v36.771C104.265,453.733,105.368,454.836,106.73,454.836z"/>
					</g>
				</g>
			</g>
		</g>
	</g>
	<g>
		
			<linearGradient id="SVGID_3_" gradientUnits="userSpaceOnUse" x1="-6422.874" y1="663.5879" x2="-6327.8696" y2="663.5879" gradientTransform="matrix(-1 0 0 1 -5734.6074 -215.96)">
			<stop  offset="0" style="stop-color:#3DB6D0"/>
			<stop  offset="1" style="stop-color:#5072B3"/>
		</linearGradient>
		<path fill="url(#SVGID_3_)" d="M679.966,322.091c-8.19-3.918-16.346,22.16-16.346,22.16
			c-13.923,18.397-33.382-6.078-31.479,21.426c3.329,48.126-55.396,15.134-28.304,65.379c27.092,50.246-23.922,28.41-7.086,68.927
			c16.837,40.515-4.985,88.835,20.348,68.979c0,0,22.307-48.915,45.311-64.049s-13.78-33.091-6.584-53.646
			c10.454-29.854,35.643-28.683,17.479-60.767C655.146,358.412,707.813,335.408,679.966,322.091z"/>
		<g>
			<path fill="#FFFFFF" d="M609.077,550.55c10.98-7.723,23.833-61.539,24.601-93.594c0.394-16.419,5.246-23.26,9.527-29.295
				c4.095-5.771,7.629-10.752,5.569-22.191c-3.937-21.862,6.41-31.301,6.516-31.393l-1.196-1.365
				c-0.461,0.401-11.234,10.138-7.105,33.08c1.925,10.688-1.247,15.158-5.264,20.818c-4.213,5.938-9.457,13.326-9.861,30.303
				c-0.823,34.398-13.962,85.213-23.828,92.15L609.077,550.55z"/>
		</g>
		<g>
			
				<linearGradient id="SVGID_4_" gradientUnits="userSpaceOnUse" x1="-6353.1836" y1="716.5996" x2="-6267.2686" y2="716.5996" gradientTransform="matrix(-1 0 0 1 -5734.6074 -215.96)">
				<stop  offset="0" style="stop-color:#3DB6D0"/>
				<stop  offset="1" style="stop-color:#5072B3"/>
			</linearGradient>
			<path fill="url(#SVGID_4_)" d="M586.063,534.854c-1.036-2.352-2.108-4.778-3.322-7.344c-6.272-13.241-11.83-15.422-21.036-19.035
				c-2.249-0.883-4.799-1.884-7.599-3.142c-13.188-5.927-10.635-14.661-8.382-22.366c0.314-1.078,0.63-2.15,0.901-3.216
				c1.159-4.532-1.068-6.806-4.441-10.247c-2.507-2.559-5.627-5.742-8.031-10.77c-2.633-5.503-1.29-8.453,0.299-9.959
				c3.347-3.172,11.061-2.586,18.344,1.389l0,0c2.263,1.236,4.125,3.187,6.097,5.251c4.645,4.862,10.422,10.912,25.035,10.981
				c8.333,0.038,12.896,1.188,15.262,3.846c2.684,3.014,2.178,7.527,1.478,13.771c-0.241,2.16-0.517,4.609-0.683,7.256
				c-0.994,15.783,8.322,27.171,8.414,27.279c5.567,6.629,12.427,20.383,9.466,28.85c-1.24,3.548-4.017,5.779-8.247,6.637
				c-1.688,0.341-3.228,0.503-4.645,0.503C594.75,554.538,591.007,546.063,586.063,534.854z M551.923,451.76
				c-6.505-3.552-13.479-4.267-16.225-1.665c-2.085,1.979-1.103,5.363,0.091,7.856c2.275,4.757,5.152,7.69,7.69,10.282
				c3.529,3.602,6.316,6.443,4.903,11.969c-0.276,1.083-0.599,2.178-0.918,3.273c-2.243,7.676-4.362,14.924,7.383,20.2
				c2.759,1.239,5.286,2.231,7.519,3.106c9.293,3.646,15.433,6.057,22.015,19.949c1.225,2.585,2.301,5.024,3.343,7.387
				c5.682,12.875,9.108,20.645,21.528,18.136c3.561-0.72,5.88-2.556,6.895-5.456c2.607-7.461-3.633-20.521-9.143-27.082
				c-0.404-0.481-9.878-12.031-8.837-28.561c0.169-2.69,0.446-5.162,0.689-7.345c0.647-5.777,1.115-9.952-1.027-12.362
				c-1.961-2.203-6.252-3.201-13.913-3.237c-15.387-0.072-21.46-6.433-26.341-11.543C555.623,454.626,553.938,452.86,551.923,451.76
				L551.923,451.76z"/>
		</g>
		<g>
			
				<linearGradient id="SVGID_5_" gradientUnits="userSpaceOnUse" x1="-6345.8369" y1="729.0918" x2="-6281.3535" y2="729.0918" gradientTransform="matrix(-1 0 0 1 -5734.6074 -215.96)">
				<stop  offset="0" style="stop-color:#3DB6D0"/>
				<stop  offset="1" style="stop-color:#5072B3"/>
			</linearGradient>
			<path fill="url(#SVGID_5_)" d="M609.416,565.023l1.813-0.098c-0.09-1.703-2.378-41.866-18.504-53.62
				c-17.69-12.896-23.271-26.754-25.926-36.055c-3.13-10.962-19.063-13.892-19.739-14.011l-0.314,1.788
				c0.154,0.026,15.491,2.854,18.31,12.721c2.729,9.561,8.458,23.799,26.604,37.023
				C607.092,524.025,609.396,564.614,609.416,565.023z"/>
		</g>
		
			<linearGradient id="SVGID_6_" gradientUnits="userSpaceOnUse" x1="-6369.123" y1="677.2021" x2="-6294.0254" y2="677.2021" gradientTransform="matrix(-1 0 0 1 -5734.6074 -215.96)">
			<stop  offset="0" style="stop-color:#3DB6D0"/>
			<stop  offset="1" style="stop-color:#5072B3"/>
		</linearGradient>
		<path fill="url(#SVGID_6_)" d="M572.547,362.62c11.462-3.931,9.081,18.161,13.924,34.506c4.844,16.347,53.877,7.131,33.295,48.06
			c-20.582,40.931,26.03,13.688,12.106,49.404c-13.924,35.717-1.211,73.916-16.345,64.199c-15.136-9.717-8.503-54.693-24.242-60.037
			c-15.738-5.345-18.308-11.577-2.724-26.104c15.582-14.529-40.836-28.953-26.912-58.29
			C575.573,385.02,559.306,367.161,572.547,362.62z"/>
		<g>
			<path fill="#FFFFFF" d="M608.506,557.077c1.44-6.114,13.751-59.922,2.266-66.427c-10.122-5.732-9.873-28.03-8.295-49.085
				c1.396-18.64-22.539-27.351-23.559-27.712l-0.607,1.713c0.236,0.084,23.648,8.61,22.354,25.862
				c-1.62,21.622-1.795,44.567,9.211,50.802c8.724,4.938,0.692,48.184-3.138,64.43L608.506,557.077z"/>
		</g>
		
			<linearGradient id="SVGID_7_" gradientUnits="userSpaceOnUse" x1="568.0227" y1="784.918" x2="637.3206" y2="784.918" gradientTransform="matrix(1 0 0 1 14.4277 -215.96)">
			<stop  offset="0" style="stop-color:#F89340"/>
			<stop  offset="1" style="stop-color:#FCCE45"/>
		</linearGradient>
		<polygon fill="url(#SVGID_7_)" points="651.748,537.917 635.386,600 598.815,600 582.45,537.917 		"/>
		
			<linearGradient id="SVGID_8_" gradientUnits="userSpaceOnUse" x1="568.0247" y1="784.918" x2="637.3206" y2="784.918" gradientTransform="matrix(1 0 0 1 14.4277 -215.96)">
			<stop  offset="0" style="stop-color:#C97332"/>
			<stop  offset="1" style="stop-color:#FCCE45"/>
		</linearGradient>
		<path fill="url(#SVGID_8_)" d="M651.748,537.917c0,0-36.023,6.764-36.023,62.083h-16.908l-16.364-62.083H651.748z"/>
	</g>
	<g>
		
			<linearGradient id="SVGID_9_" gradientUnits="userSpaceOnUse" x1="38.5393" y1="698.4131" x2="38.5393" y2="687.0974" gradientTransform="matrix(1 0 0 1 8.3999 -215.96)">
			<stop  offset="0" style="stop-color:#F79F55"/>
			<stop  offset="1" style="stop-color:#FAD255"/>
		</linearGradient>
		<path fill="url(#SVGID_9_)" d="M68.349,483.389H28.442c-1.607,0-2.912-1.304-2.912-2.911v-4.728c0-1.608,1.305-2.912,2.912-2.912
			h39.907V483.389z"/>
		<path fill="#F79F55" d="M75.202,473.925v8.379h0.699v1.086H46.977c-1.607,0-2.912-1.304-2.912-2.912v-4.727
			c0-1.608,1.305-2.912,2.912-2.912h28.926v1.086H75.202L75.202,473.925z"/>
		<path fill="#F2F5F6" d="M75.202,482.303H49.112c-1.607,0-2.911-1.304-2.911-2.912v-2.554c0-1.606,1.304-2.913,2.911-2.913h26.091
			V482.303z"/>
		
			<linearGradient id="SVGID_10_" gradientUnits="userSpaceOnUse" x1="38.1404" y1="672.8984" x2="38.1404" y2="688.5633" gradientTransform="matrix(1 0 0 1 8.3999 -215.96)">
			<stop  offset="0" style="stop-color:#3DB6D0"/>
			<stop  offset="1" style="stop-color:#5072B3"/>
		</linearGradient>
		<path fill="url(#SVGID_10_)" d="M70.213,472.838H26.526c-2.021,0-3.658-1.639-3.658-3.659v-4.952c0-2.021,1.638-3.657,3.658-3.657
			h43.688V472.838z"/>
		<path fill="#4F80BA" d="M77.962,461.831v9.745h0.603v1.263h-23.76c-2.021,0-3.659-1.639-3.659-3.659v-4.953
			c0-2.021,1.64-3.656,3.659-3.656h23.76v1.263L77.962,461.831L77.962,461.831z"/>
		<path fill="#F2F5F6" d="M77.962,471.575H56.643c-2.021,0-3.659-1.641-3.659-3.659v-2.427c0-2.021,1.639-3.659,3.659-3.659h21.319
			V471.575z"/>
		
			<linearGradient id="SVGID_11_" gradientUnits="userSpaceOnUse" x1="48.9197" y1="673.6504" x2="48.9197" y2="661.9395" gradientTransform="matrix(1 0 0 1 8.3999 -215.96)">
			<stop  offset="0" style="stop-color:#F79F55"/>
			<stop  offset="1" style="stop-color:#FAD255"/>
		</linearGradient>
		<path fill="url(#SVGID_11_)" d="M38.738,460.565h33.205c2.188,0,3.959-1.772,3.959-3.96v-7.124c0-2.188-1.772-3.959-3.959-3.959
			H38.738V460.565z"/>
		<path fill="#F79F55" d="M32.79,447.07v11.945h-0.607v1.551h23.674c2.188,0,3.959-1.773,3.959-3.96v-7.124
			c0-2.188-1.772-3.96-3.959-3.96H32.182v1.548H32.79L32.79,447.07z"/>
		<path fill="#F2F5F6" d="M32.791,459.018h20.935c2.173,0,3.937-1.763,3.937-3.937v-4.075c0-2.174-1.764-3.936-3.937-3.936H32.791
			V459.018z"/>
		
			<linearGradient id="SVGID_12_" gradientUnits="userSpaceOnUse" x1="35.5173" y1="642.1641" x2="35.5173" y2="655.3204" gradientTransform="matrix(1 0 0 1 8.3999 -215.96)">
			<stop  offset="0" style="stop-color:#3DB6D0"/>
			<stop  offset="1" style="stop-color:#5072B3"/>
		</linearGradient>
		<path fill="url(#SVGID_12_)" d="M63.603,445.519H28.394c-2.299,0-4.162-1.861-4.162-4.161v-6.72c0-2.299,1.863-4.162,4.162-4.162
			h35.208L63.603,445.519L63.603,445.519z"/>
		<path fill="#4F80BA" d="M69.904,432.023v11.945h0.645v1.549H45.437c-2.299,0-4.163-1.862-4.163-4.161v-6.72
			c0-2.3,1.863-4.163,4.163-4.163h25.112v1.55H69.904L69.904,432.023z"/>
		<path fill="#F2F5F6" d="M69.904,443.971h-22.3c-2.289,0-4.145-1.854-4.145-4.146v-3.656c0-2.289,1.855-4.146,4.145-4.146h22.3
			V443.971z"/>
		
			<linearGradient id="SVGID_13_" gradientUnits="userSpaceOnUse" x1="45.448" y1="635.6768" x2="45.448" y2="646.1996" gradientTransform="matrix(1 0 0 1 8.3999 -215.96)">
			<stop  offset="0" style="stop-color:#3DB6D0"/>
			<stop  offset="1" style="stop-color:#5072B3"/>
		</linearGradient>
		<path fill="url(#SVGID_13_)" d="M73.533,430.471H36.746c-1.428,0-2.584-1.154-2.584-2.583v-6.217c0-1.427,1.156-2.584,2.584-2.584
			h36.787V430.471z"/>
		<path fill="#4F80BA" d="M79.835,420.26v9.04h0.644v1.172H53.789c-1.428,0-2.584-1.155-2.584-2.584v-6.217
			c0-1.427,1.156-2.583,2.584-2.583h26.689v1.172H79.835L79.835,420.26z"/>
		<path fill="#F2F5F6" d="M79.834,429.299H55.751c-1.427,0-2.583-1.156-2.583-2.583v-3.873c0-1.428,1.157-2.584,2.583-2.584h24.083
			V429.299z"/>
	</g>
</g>
</svg>
