<?xml version="1.0" encoding="utf-8"?>
<!-- Generator: Adobe Illustrator 16.0.2, SVG Export Plug-In . SVG Version: 6.00 Build 0)  -->
<!DOCTYPE svg PUBLIC "-//W3C//DTD SVG 1.1//EN" "http://www.w3.org/Graphics/SVG/1.1/DTD/svg11.dtd">
<svg version="1.1" id="Layer_1" xmlns="http://www.w3.org/2000/svg" xmlns:xlink="http://www.w3.org/1999/xlink" x="0px" y="0px"
	 width="384px" height="384px" viewBox="0 0 384 384" enable-background="new 0 0 384 384" xml:space="preserve">
<path d="M368,195.668H16c-8.832,0-16-7.168-16-16s7.168-16,16-16h352c8.832,0,16,7.168,16,16S376.832,195.668,368,195.668z"/>
<path d="M368,73H16C7.168,73,0,65.832,0,57s7.168-16,16-16h352c8.832,0,16,7.168,16,16S376.832,73,368,73z"/>
<path d="M368,318.332H16c-8.832,0-16-7.168-16-16s7.168-16,16-16h352c8.832,0,16,7.168,16,16S376.832,318.332,368,318.332z"/>
</svg>
