<?xml version="1.0" encoding="utf-8"?>
<!-- Generator: Adobe Illustrator 16.0.2, SVG Export Plug-In . SVG Version: 6.00 Build 0)  -->
<!DOCTYPE svg PUBLIC "-//W3C//DTD SVG 1.1//EN" "http://www.w3.org/Graphics/SVG/1.1/DTD/svg11.dtd">
<svg version="1.1" id="Capa_1" xmlns="http://www.w3.org/2000/svg" xmlns:xlink="http://www.w3.org/1999/xlink" x="0px" y="0px"
	 width="612px" height="792px" viewBox="0 0 612 792" enable-background="new 0 0 612 792" xml:space="preserve">
<circle fill="#7795DB" cx="306.001" cy="457.327" r="235.09"/>
<path fill="#000000" d="M224.229,406.221c0-74.43,34.629-140.735,88.611-183.811c-2.278-0.065-4.547-0.172-6.84-0.172
	c-129.837,0-235.09,105.252-235.09,235.089c0,129.837,105.252,235.09,235.09,235.09c55.407,0,106.295-19.215,146.479-51.279
	C325.814,637.511,224.229,533.765,224.229,406.221z"/>
<path fill="#C3C8D1" d="M423.546,140.466H188.455l-11.899,95.196c-1.95,15.599,8.214,30.148,23.532,33.682l92.122,21.259
	c9.075,2.094,18.506,2.094,27.581,0l92.121-21.259c15.318-3.536,25.482-18.083,23.532-33.682L423.546,140.466z"/>
<path fill="#ABB0B7" d="M432.177,209.519l-8.631-69.051H188.455l-11.899,95.196c-1.95,15.599,8.214,30.148,23.532,33.682
	l92.123,21.258c4.537,1.046,9.163,1.571,13.791,1.571v-59.715L432.177,209.519z"/>
<path fill="#E4EAF8" d="M306.001,99.582L66.304,143.97c-7.452,1.379-7.452,12.057,0,13.438l239.697,44.387l239.696-44.388
	c7.451-1.379,7.451-12.057,0-13.438L306.001,99.582z"/>
<g>
	<circle fill="#C8A227" cx="500.23" cy="273.343" r="20.442"/>
	<path fill="#C8A227" d="M500.232,293.787L500.232,293.787c-11.291,0-20.442,9.151-20.442,20.442v51.107h40.886v-51.107
		C520.675,302.939,511.521,293.787,500.232,293.787z"/>
</g>
<path fill="#FFFFFF" d="M431.759,341.667c12.894-2.653,29.541-6.666,42.257-10.139l0.048-19.914
	c-14.784,4.177-33.537,8.753-48.574,11.784c-5.819-15.397-12.673-29.705-20.476-42.627l-12.77-5.405l-6.974,9.962
	c8.052,12.411,15.113,26.389,21.084,41.595c-29.947,5.036-60.279,7.822-90.77,8.302v-34.15c-3.834-5.159-4.816-7.439-8.146-7.608
	c-4.911-0.247-11.02,7.608-11.02,7.608v34.144c-30.509-0.48-60.829-3.262-90.767-8.298c5.971-15.204,13.03-29.184,21.081-41.593
	l-5.694-11.876l-14.045,7.322c-7.801,12.918-14.652,27.221-20.47,42.613c-17.412-3.509-34.68-7.774-51.758-12.823l-13.812,3.35
	l1.137,12.821c19.168,5.919,38.57,10.9,58.157,14.932c-10.005,32.332-15.747,68.515-16.585,106.083H69.218l-0.007,19.165h94.446
	c0.83,37.589,6.529,73.703,16.568,106.086c-19.534,4.021-38.885,8.986-57.999,14.886l-1.997,13.532l14.669,2.637
	c17.025-5.027,34.238-9.275,51.596-12.776c4.981,13.148,10.73,25.54,17.208,36.999c9.955,17.612,21.21,32.283,33.418,43.787
	c0,0,28.124,21.035,70.963,20.346c19.671-0.317,41.436-12.075,66.801-20.346c12.209-11.504,23.464-26.175,33.419-43.787
	c6.478-11.459,12.227-23.851,17.208-36.999c17.355,3.499,34.569,7.751,51.593,12.777l15.089-3.177l-2.413-12.994
	c-19.117-5.899-38.467-10.863-57.999-14.886c10.038-32.384,15.738-68.499,16.566-106.087h94.447v-19.164h-94.451
	C447.502,410.176,441.762,373.996,431.759,341.667z M296.418,682.137c-28.356-4.079-55.06-26.183-76.034-63.291
	c-5.472-9.681-10.385-20.097-14.722-31.115c29.933-5.033,60.251-7.813,90.756-8.295V682.137z M296.418,560.271
	c-32.703,0.5-65.205,3.539-97.267,9.109c-9.872-31.056-15.489-65.977-16.327-102.471h113.593V560.271z M296.418,447.744H182.83
	c0.847-36.501,6.514-71.489,16.341-102.469c32.055,5.569,64.549,8.609,97.249,9.108L296.418,447.744L296.418,447.744z
	 M315.582,354.391c32.677-0.5,65.177-3.566,97.242-9.135c9.829,30.984,15.5,65.977,16.346,102.488H315.581L315.582,354.391
	L315.582,354.391z M391.616,618.846c-20.975,37.108-47.678,59.212-76.034,63.291V579.436c30.505,0.481,60.822,3.263,90.755,8.296
	C402.001,598.75,397.089,609.165,391.616,618.846z M412.849,569.382c-32.062-5.571-64.562-8.612-97.266-9.11V466.91h113.594
	C428.338,503.407,422.721,538.328,412.849,569.382z"/>
<path fill="#474D54" d="M547.442,166.829c7.904-1.464,13.426-8.102,13.426-16.141s-5.521-14.676-13.426-16.14L307.746,90.16
	c-1.154-0.214-2.336-0.214-3.489,0L64.559,134.547c-7.905,1.464-13.426,8.102-13.426,16.141c0,8.038,5.52,14.677,13.426,16.142
	l108.434,20.081l-5.947,47.565c-0.87,6.954,0.082,13.729,2.497,19.835C101.67,299.959,61.328,375.376,61.328,457.329
	c0,134.913,109.76,244.672,244.673,244.672c134.912,0,244.672-109.759,244.672-244.672c0-34.098-6.889-67.028-20.442-97.958v-45.143
	c0-7.893-3.064-15.078-8.062-20.442c4.996-5.364,8.062-12.551,8.062-20.442c0-13.205-8.572-24.438-20.441-28.449v-71.095
	L547.442,166.829z M531.291,447.744v19.165c-1.89,44.948-16.982,86.539-41.513,120.973l-12.675,16.172
	c-26.85,31.267-62.103,55.109-102.22,68.009c-80.603,26.278-137.763,0-137.763,0c-40.117-12.9-75.371-36.743-102.221-68.01
	l-12.671-16.171c-24.534-34.434-39.627-76.024-41.517-120.973l0.007-19.165c1.849-44.209,16.439-86.007,41.373-121.013
	l12.674-16.169c13.196-15.34,28.573-29.031,45.892-40.625c4.813,4.151,10.672,7.221,17.278,8.746l9.057,2.091l19.739,4.555
	l63.325,14.614c2.099,0.484,4.226,0.845,6.363,1.133c0,0,11.339,3.297,19.164,0c2.138-0.291,4.264-0.649,6.363-1.133l63.324-14.614
	l19.74-4.556l9.057-2.091c6.603-1.523,12.459-4.591,17.271-8.738c14.791,9.911,28.357,21.529,40.444,34.629
	c-0.864,2.534-1.402,5.215-1.554,7.999l-0.049,19.914v32.849c0,5.292,4.29,9.583,9.583,9.583h36.202
	C525.125,398.167,530.251,422.58,531.291,447.744z M186.063,236.853l5.806-46.446l104.548,19.359v71.914
	c-0.686-0.129-1.374-0.255-2.054-0.411l-92.122-21.259C191.673,257.569,184.719,247.614,186.063,236.853z M315.582,281.68v-71.915
	l104.549-19.36l5.806,46.446c1.346,10.761-5.61,20.717-16.179,23.157l-92.122,21.259C316.956,281.424,316.269,281.55,315.582,281.68
	z M470.18,273.343c0,0.944,0.05,1.877,0.135,2.798c-8.746-7.933-18.059-15.22-27.862-21.822c2.418-6.108,3.372-12.888,2.501-19.847
	l-5.946-47.566l51.615-9.557v67.545C478.754,248.906,470.18,260.139,470.18,273.343z M489.345,314.229
	c0-5.988,4.872-10.86,10.861-10.86c5.988,0,10.86,4.872,10.86,10.86v41.524h-21.72v-41.524H489.345z M511.065,273.343
	c0,5.989-4.872,10.861-10.86,10.861c-5.989,0-10.861-4.872-10.861-10.861c0-5.988,4.872-10.86,10.861-10.86
	C506.193,262.483,511.065,267.356,511.065,273.343z M306.001,192.05L82.65,150.688l223.351-41.361l223.351,41.36L306.001,192.05z"/>
</svg>
