<?xml version="1.0" encoding="utf-8"?>
<!-- Generator: Adobe Illustrator 16.0.2, SVG Export Plug-In . SVG Version: 6.00 Build 0)  -->
<!DOCTYPE svg PUBLIC "-//W3C//DTD SVG 1.1//EN" "http://www.w3.org/Graphics/SVG/1.1/DTD/svg11.dtd">
<svg version="1.1" id="Layer_1" xmlns="http://www.w3.org/2000/svg" xmlns:xlink="http://www.w3.org/1999/xlink" x="0px" y="0px"
	 width="200px" height="200px" viewBox="0 0 200 200" enable-background="new 0 0 200 200" xml:space="preserve">
<path d="M78.691,99.906L4.438,26.744c-5.856-5.755-5.925-15.182-0.152-21.051c5.769-5.844,15.195-5.925,21.051-0.153l74.276,73.146
	l73.142-74.248c5.759-5.856,15.186-5.925,21.042-0.152c5.863,5.788,5.941,15.201,0.17,21.059l-73.146,74.25l74.254,73.156
	c5.843,5.783,5.928,15.198,0.156,21.049c-5.771,5.869-15.218,5.934-21.081,0.149l-74.243-73.146l-73.155,74.271
	c-5.756,5.856-15.196,5.929-21.059,0.151c-5.85-5.773-5.925-15.205-0.147-21.056L78.691,99.906z"/>
</svg>
