<?xml version="1.0" encoding="utf-8"?>
<!-- Generator: Adobe Illustrator 16.0.2, SVG Export Plug-In . SVG Version: 6.00 Build 0)  -->
<!DOCTYPE svg PUBLIC "-//W3C//DTD SVG 1.1//EN" "http://www.w3.org/Graphics/SVG/1.1/DTD/svg11.dtd">
<svg version="1.1" id="Layer_1" xmlns="http://www.w3.org/2000/svg" xmlns:xlink="http://www.w3.org/1999/xlink" x="0px" y="0px"
	 width="512px" height="512px" viewBox="0 0 512 512" enable-background="new 0 0 512 512" xml:space="preserve">
<g>
	<path fill="#FFFFFF" d="M418.039,100.152c-0.004-0.109-0.008-0.219-0.016-0.328c-0.031-0.434-0.074-0.859-0.16-1.281
		c0,0,0,0,0-0.004c-0.086-0.422-0.207-0.84-0.345-1.246c-0.034-0.102-0.069-0.203-0.108-0.305c-0.146-0.387-0.31-0.766-0.496-1.133
		c-0.012-0.02-0.021-0.039-0.031-0.059c-0.203-0.383-0.438-0.746-0.69-1.102c-0.063-0.09-0.13-0.176-0.195-0.266
		c-0.271-0.352-0.551-0.691-0.867-1.008L324.637,2.93c-0.315-0.316-0.655-0.598-1.008-0.867c-0.09-0.066-0.18-0.137-0.27-0.199
		c-0.355-0.254-0.716-0.488-1.095-0.688c-0.026-0.016-0.055-0.023-0.077-0.039c-0.359-0.188-0.734-0.348-1.113-0.492
		c-0.105-0.039-0.207-0.074-0.316-0.109c-0.406-0.137-0.815-0.258-1.242-0.344c-0.004,0-0.008,0-0.008,0
		c-0.418-0.082-0.844-0.129-1.272-0.16c-0.109-0.004-0.22-0.012-0.328-0.016C317.793,0.012,317.68,0,317.566,0H91
		c-5.523,0-10,4.477-10,10v428.023c0,5.522,4.477,10,10,10h150.555V502c0,3.637,1.977,6.988,5.16,8.75
		c3.188,1.762,7.074,1.656,10.156-0.277l38.086-23.895l38.086,23.895c1.621,1.017,3.469,1.527,5.316,1.527
		c1.664,0,3.332-0.414,4.84-1.246c3.184-1.762,5.16-5.113,5.16-8.754v-53.977h59.694c5.523,0,10-4.478,10-10V100.492
		C418.055,100.379,418.043,100.266,418.039,100.152z M327.566,34.145l56.348,56.348h-56.348V34.145z M236.621,308.871
		c-0.703-1.91-1.848-5.031-1.875-6.309c0.781-0.97,3.492-2.685,5.152-3.73c3.563-2.25,7.602-4.805,10.531-8.797
		c2.957-4.035,4.16-8.695,5.223-12.805c0.465-1.797,1.215-4.699,1.855-5.797c0.353-0.074,1.091-0.181,2.478-0.181
		c1.113,0,2.358,0.063,3.68,0.129c1.516,0.074,3.078,0.152,4.711,0.152c3.602,0,6.508-0.406,9.145-1.285
		c4.605-1.531,8.289-4.496,11.539-7.113c1.797-1.444,4.805-3.866,5.853-4.016c1.146,0.147,4.147,2.569,5.944,4.016
		c3.25,2.617,6.938,5.582,11.544,7.113c2.637,0.879,5.538,1.285,9.145,1.285c1.629,0,3.195-0.078,4.707-0.152
		c1.32-0.065,2.566-0.129,3.684-0.129c1.388,0,2.121,0.103,2.478,0.181c0.641,1.098,1.391,4,1.852,5.797
		c1.063,4.108,2.271,8.77,5.228,12.805c2.926,3.992,6.965,6.543,10.53,8.797c1.656,1.051,4.367,2.762,5.148,3.73
		c-0.027,1.276-1.172,4.397-1.871,6.309c-1.488,4.051-3.172,8.645-3.172,13.734c0,5.088,1.684,9.684,3.168,13.737
		c0.703,1.91,1.848,5.031,1.875,6.31c-0.781,0.969-3.492,2.68-5.148,3.729c-3.565,2.25-7.604,4.806-10.53,8.798
		c-2.957,4.034-4.164,8.694-5.228,12.805c-0.461,1.793-1.215,4.699-1.852,5.797c-0.355,0.074-1.09,0.18-2.478,0.18
		c-1.116,0-2.362-0.063-3.684-0.129c-1.512-0.074-3.078-0.152-4.707-0.152c-3.604,0-6.508,0.406-9.145,1.285
		c-4.605,1.531-8.294,4.5-11.544,7.113c-1.77,1.43-4.723,3.801-5.897,4.012c-1.176-0.211-4.125-2.582-5.896-4.012
		c-3.254-2.613-6.938-5.582-11.543-7.113c-2.637-0.879-5.543-1.285-9.145-1.285c-1.629,0-3.195,0.078-4.711,0.152
		c-1.316,0.066-2.563,0.129-3.68,0.129c-1.387,0-2.121-0.105-2.478-0.18c-0.641-1.098-1.391-4-1.855-5.797
		c-1.059-4.109-2.266-8.771-5.223-12.805c-2.926-3.992-6.965-6.548-10.531-8.798c-1.656-1.047-4.367-2.762-5.148-3.729
		c0.027-1.273,1.172-4.398,1.871-6.31c1.488-4.051,3.172-8.645,3.172-13.733C239.793,317.516,238.105,312.922,236.621,308.871z
		 M328.359,483.922l-28.086-17.621c-3.25-2.035-7.383-2.035-10.633,0l-28.086,17.621V393.93c1.063-0.031,2.104-0.07,3.116-0.121
		c1.324-0.07,2.574-0.133,3.703-0.133c1.772,0,2.531,0.164,2.824,0.262c1.19,0.398,3.479,2.242,5.319,3.724
		c4.668,3.758,10.478,8.434,18.438,8.434s13.77-4.676,18.438-8.434c1.841-1.48,4.13-3.324,5.316-3.72
		c0.297-0.098,1.055-0.262,2.828-0.262c1.129,0,2.379,0.063,3.703,0.129c1.012,0.051,2.055,0.094,3.113,0.121v89.992H328.359z
		 M348.359,428.023v-42.152c2.973-4.039,4.215-8.82,5.266-12.883c0.551-2.133,1.305-5.051,1.992-5.984
		c0.684-0.938,3.227-2.543,5.082-3.715c4.922-3.109,11.047-6.98,13.479-14.301c2.406-7.223-0.098-14.047-2.108-19.531
		c-0.914-2.488-1.949-5.313-1.949-6.852s1.035-4.359,1.949-6.849c2.012-5.483,4.516-12.313,2.108-19.534
		c-2.434-7.316-8.559-11.188-13.479-14.298c-1.855-1.172-4.398-2.78-5.082-3.711c-0.688-0.938-1.441-3.854-1.992-5.987
		c-1.438-5.566-3.227-12.496-9.352-16.988c-4.875-3.57-10.521-3.984-14.345-3.984c-1.616,0-3.18,0.078-4.688,0.156
		c-1.324,0.066-2.574,0.129-3.699,0.129c-1.777,0-2.535-0.164-2.828-0.262c-1.188-0.395-3.477-2.238-5.315-3.723
		c-4.673-3.754-10.48-8.43-18.441-8.43c-7.957,0-13.77,4.676-18.438,8.43c-1.84,1.48-4.129,3.328-5.316,3.723
		c-0.293,0.098-1.055,0.262-2.828,0.262c-1.125,0-2.379-0.063-3.703-0.133c-1.508-0.074-3.066-0.152-4.688-0.152
		c-3.82,0-9.465,0.414-14.336,3.984c-6.129,4.492-7.922,11.422-9.359,16.988c-0.551,2.133-1.305,5.051-1.988,5.983
		c-0.688,0.935-3.23,2.543-5.086,3.715c-4.922,3.109-11.043,6.98-13.48,14.298c-2.406,7.227,0.098,14.051,2.109,19.534
		c0.914,2.488,1.949,5.31,1.949,6.849s-1.035,4.362-1.949,6.852c-2.012,5.484-4.516,12.309-2.109,19.535
		c2.438,7.316,8.563,11.188,13.48,14.297c1.859,1.172,4.398,2.781,5.086,3.715c0.684,0.934,1.438,3.852,1.988,5.984
		c1.051,4.063,2.297,8.848,5.27,12.883v42.152H101V20h206.566v80.492c0,5.523,4.477,10,10,10h80.487v317.531H348.359z"/>
	<path fill="#FFFFFF" d="M139.863,110.492h128.836c5.52,0,10-4.477,10-10c0-5.523-4.48-10-10-10H139.863c-5.523,0-10,4.477-10,10
		C129.863,106.015,134.344,110.492,139.863,110.492z"/>
	<path fill="#FFFFFF" d="M360.309,140.969H139.863c-5.523,0-10,4.477-10,10c0,5.523,4.477,10,10,10h220.445c5.523,0,10-4.477,10-10
		C370.308,145.446,365.832,140.969,360.309,140.969z"/>
	<path fill="#FFFFFF" d="M320.309,191.445H139.863c-5.523,0-10,4.48-10,10c0,5.523,4.477,10,10,10h180.445c5.523,0,10-4.477,10-10
		C330.309,195.926,325.832,191.445,320.309,191.445z"/>
	<path fill="#FFFFFF" d="M360.309,191.445c-5.508,0-10,4.492-10,10c0,5.508,4.492,10,10,10c5.513,0,10-4.492,10-10
		C370.309,195.937,365.82,191.445,360.309,191.445z"/>
</g>
</svg>
