<?xml version="1.0" encoding="utf-8"?>
<!-- Generator: Adobe Illustrator 16.0.2, SVG Export Plug-In . SVG Version: 6.00 Build 0)  -->
<!DOCTYPE svg PUBLIC "-//W3C//DTD SVG 1.1//EN" "http://www.w3.org/Graphics/SVG/1.1/DTD/svg11.dtd">
<svg version="1.1" id="Capa_1" xmlns="http://www.w3.org/2000/svg" xmlns:xlink="http://www.w3.org/1999/xlink" x="0px" y="0px"
	 width="612px" height="792px" viewBox="0 0 612 792" enable-background="new 0 0 612 792" xml:space="preserve">
<path fill="#7795DB" d="M581.975,585.094H70.911c-11.291,0-20.442-9.151-20.442-20.442v-316.86c0-11.291,9.151-20.442,20.442-20.442
	h511.064c11.291,0,20.442,9.151,20.442,20.442v316.86C602.417,575.941,593.265,585.094,581.975,585.094z"/>
<rect x="295.779" y="544.209" fill="#000000" width="61.328" height="40.886"/>
<g>
	<path fill="#FFFFFF" d="M346.886,206.906c-11.29,0-20.442,9.151-20.442,20.442c0-11.291-9.153-20.442-20.442-20.442H91.353v337.303
		H306c11.29,0,20.442,9.151,20.442,20.442c0-11.291,9.153-20.442,20.442-20.442h214.646V206.906H346.886z"/>
	<path fill="#FFFFFF" d="M111.795,462.438H30.025c-11.291,0-20.442,9.151-20.442,20.442v143.099h122.654V482.881
		C132.237,471.591,123.086,462.438,111.795,462.438z"/>
</g>
<g>
	<path fill="#C8A227" d="M132.237,625.979H9.583v20.442c0,11.291,9.151,20.441,20.442,20.441h81.771
		c11.291,0,20.442-9.15,20.442-20.441V625.979z"/>
	<path fill="#C8A227" d="M408.212,431.774l-20.441,51.106l-20.442-51.106V135.357c0-5.645,4.576-10.221,10.221-10.221h20.442
		c5.645,0,10.221,4.577,10.221,10.221V431.774z"/>
</g>
<g>
	<path fill="#FFFFFF" d="M397.991,125.136h-20.442c-5.645,0-10.221,4.577-10.221,10.221v30.663h40.886v-30.663
		C408.212,129.712,403.637,125.136,397.991,125.136z"/>
	<polygon fill="#FFFFFF" points="367.328,421.554 367.328,431.774 387.771,482.881 408.212,431.774 408.212,421.554 	"/>
</g>
<path fill="#474D54" d="M581.975,217.766h-10.86v-10.86c0-5.292-4.29-9.583-9.583-9.583H417.795v-61.965
	c0-10.92-8.883-19.804-19.804-19.804h-20.442c-10.92,0-19.804,8.884-19.804,19.804v61.966h-10.86
	c-7.893,0-15.078,3.064-20.442,8.062c-5.364-4.996-12.551-8.062-20.442-8.062H91.353c-5.292,0-9.583,4.29-9.583,9.583v10.861H70.91
	c-16.557,0-30.025,13.469-30.025,30.025v205.064h-10.86C13.469,452.856,0,466.325,0,482.881v163.541
	c0,16.556,13.469,30.024,30.025,30.024h81.771c16.556,0,30.025-13.469,30.025-30.024v-51.745h175.039v0.638
	c0,5.292,4.29,9.583,9.583,9.583c5.292,0,9.583-4.29,9.583-9.583v-0.638h245.949c16.557,0,30.025-13.469,30.025-30.025v-316.86
	C612,231.236,598.531,217.766,581.975,217.766z M60.05,247.791c0-5.989,4.872-10.861,10.86-10.861h10.861v215.925H60.05V247.791z
	 M122.656,646.422c0,5.988-4.872,10.86-10.86,10.86H30.025c-5.988,0-10.86-4.872-10.86-10.86V482.881
	c0-5.988,4.872-10.86,10.86-10.86h81.771c5.988,0,10.86,4.872,10.86,10.86V646.422z M316.86,575.512H141.82v-21.72H306
	c5.988,0,10.86,4.872,10.86,10.86V575.512z M316.86,536.657c-3.369-1.313-7.032-2.032-10.86-2.032H141.82V482.88
	c0-16.556-13.469-30.024-30.025-30.024h-10.861V216.488H306c5.988,0,10.86,4.872,10.86,10.861V536.657z M376.911,135.357
	c0-0.353,0.285-0.638,0.638-0.638h20.442c0.353,0,0.639,0.286,0.639,0.638v276.613l-0.483,19.164l-10.378,25.944l-10.377-25.944
	l-0.483-19.164V135.357H376.911z M336.025,227.349c0-5.989,4.872-10.861,10.86-10.861h10.86v215.287c0,1.22,0.233,2.427,0.687,3.56
	l20.442,51.107c1.454,3.637,4.977,6.022,8.896,6.022c3.918,0,7.441-2.386,8.896-6.022l20.442-51.107
	c0.452-1.132,0.686-2.34,0.686-3.56V216.488h134.155v318.137H346.886c-3.827,0-7.491,0.72-10.86,2.032V227.349z M592.836,564.651
	c0,5.988-4.872,10.86-10.861,10.86H336.025v-10.86c0-5.988,4.872-10.86,10.86-10.86h214.647c5.291,0,9.582-4.29,9.582-9.583V236.932
	h10.861c5.988,0,10.86,4.872,10.86,10.86L592.836,564.651L592.836,564.651z"/>
<g>
	<path fill="#ABFFDB" d="M50.467,594.677h40.886c5.292,0,9.583-4.29,9.583-9.583c0-5.292-4.29-9.583-9.583-9.583H50.467
		c-5.292,0-9.583,4.29-9.583,9.583C40.886,590.387,45.176,594.677,50.467,594.677z"/>
	<path fill="#ABFFDB" d="M50.467,553.791h40.886c5.292,0,9.583-4.29,9.583-9.583c0-5.292-4.29-9.583-9.583-9.583H50.467
		c-5.292,0-9.583,4.29-9.583,9.583C40.886,549.501,45.176,553.791,50.467,553.791z"/>
	<path fill="#ABFFDB" d="M50.467,512.906h40.886c5.292,0,9.583-4.29,9.583-9.583c0-5.291-4.29-9.583-9.583-9.583H50.467
		c-5.292,0-9.583,4.29-9.583,9.583C40.886,508.615,45.176,512.906,50.467,512.906z"/>
</g>
<path fill="#FFFFFF" d="M68.961,630.839h-0.103c-5.292,0-9.531,4.29-9.531,9.583s4.341,9.582,9.633,9.582
	c5.292,0,9.583-4.289,9.583-9.582S74.254,630.839,68.961,630.839z"/>
<g>
	<path fill="#ABB0B7" d="M142.46,267.595h132.876c5.292,0,9.583-4.29,9.583-9.583c0-5.292-4.29-9.583-9.583-9.583H142.46
		c-5.292,0-9.583,4.29-9.583,9.583C132.877,263.305,137.167,267.595,142.46,267.595z"/>
	<path fill="#ABB0B7" d="M275.336,289.315h-61.33c-5.292,0-9.583,4.29-9.583,9.583s4.29,9.583,9.583,9.583h61.33
		c5.292,0,9.583-4.29,9.583-9.583S280.628,289.315,275.336,289.315z"/>
	<path fill="#ABB0B7" d="M142.46,308.48h30.662c5.292,0,9.583-4.29,9.583-9.583c0-5.292-4.29-9.583-9.583-9.583H142.46
		c-5.292,0-9.583,4.29-9.583,9.583C132.877,304.19,137.167,308.48,142.46,308.48z"/>
	<path fill="#ABB0B7" d="M142.46,349.365h51.106c5.292,0,9.583-4.29,9.583-9.583c0-5.293-4.29-9.583-9.583-9.583H142.46
		c-5.292,0-9.583,4.29-9.583,9.583C132.877,345.075,137.167,349.365,142.46,349.365z"/>
</g>
</svg>
