<?xml version="1.0" encoding="utf-8"?>
<!-- Generator: Adobe Illustrator 16.0.2, SVG Export Plug-In . SVG Version: 6.00 Build 0)  -->
<!DOCTYPE svg PUBLIC "-//W3C//DTD SVG 1.1//EN" "http://www.w3.org/Graphics/SVG/1.1/DTD/svg11.dtd">
<svg version="1.1" id="Layer_1" xmlns="http://www.w3.org/2000/svg" xmlns:xlink="http://www.w3.org/1999/xlink" x="0px" y="0px"
	 width="612px" height="792px" viewBox="0 0 612 792" enable-background="new 0 0 612 792" xml:space="preserve">
<g>
	<g>
		<path fill="#000000" d="M196.776,346.577c-8.651-8.65-22.708-8.65-31.358,0c-8.65,8.651-8.65,22.707,0,31.358l102.184,102.182
			c4.325,4.327,9.731,6.489,15.679,6.489c0.541,0,0.541,0,1.081,0c5.948-0.541,11.895-3.244,16.221-8.109l255.729-306.551
			c7.569-9.191,6.489-23.249-2.703-31.358c-9.19-7.569-23.248-6.488-31.358,2.703L281.658,431.46L196.776,346.577L196.776,346.577z"
			/>
		<path fill="#000000" d="M451.172,162.586C342.056,94.27,202.103,110.4,111.014,201.488
			c-107.219,107.219-107.219,282.279,0,389.498c53.609,53.609,124.297,80.65,194.511,80.65s140.902-27.041,194.512-80.65
			c91.563-91.563,107.219-231.991,38.428-341.107c-5.692-9.014-17.553-11.86-26.567-6.167c-9.014,5.693-11.86,17.554-6.167,26.568
			c59.302,93.935,45.544,214.437-33.21,293.19c-92.037,92.037-242.428,92.037-334.465,0s-92.037-242.428,0-334.465
			c78.753-78.279,198.781-92.038,292.717-33.684c9.014,5.693,20.874,2.847,26.567-6.167
			C463.032,180.14,460.186,168.279,451.172,162.586L451.172,162.586z"/>
	</g>
</g>
</svg>
