<?xml version="1.0" encoding="utf-8"?>
<!-- Generator: Adobe Illustrator 16.0.2, SVG Export Plug-In . SVG Version: 6.00 Build 0)  -->
<!DOCTYPE svg PUBLIC "-//W3C//DTD SVG 1.1//EN" "http://www.w3.org/Graphics/SVG/1.1/DTD/svg11.dtd">
<svg version="1.1" id="Layer_1" xmlns="http://www.w3.org/2000/svg" xmlns:xlink="http://www.w3.org/1999/xlink" x="0px" y="0px"
	 width="200px" height="200px" viewBox="0 0 200 200" enable-background="new 0 0 200 200" xml:space="preserve">
<g>
	<g>
		<path fill="#C8A227" d="M108.766,0.018c-1.175-0.106-2.313,0.29-3.178,1.08c-0.863,0.789-1.354,1.905-1.354,3.073v41.98
			c0,2.055,1.5,3.807,3.535,4.12c24.526,3.795,42.33,24.56,42.33,49.374c0,6.136-1.148,12.199-3.404,18.03
			c-0.75,1.917,0.017,4.089,1.802,5.118l36.317,20.965c0.646,0.371,1.359,0.559,2.084,0.559c0.425,0,0.848-0.063,1.256-0.191
			c1.115-0.35,2.025-1.152,2.523-2.209c6.271-13.425,9.454-27.648,9.454-42.27C200.133,48.199,160.002,4.437,108.766,0.018z"/>
		<path fill="#000000" d="M53.437,117.675c-2.255-5.831-3.403-11.894-3.403-18.03c0-24.813,17.802-45.579,42.33-49.374
			c2.036-0.313,3.535-2.065,3.535-4.121V4.171c0-1.168-0.489-2.284-1.352-3.073c-0.864-0.795-2.02-1.189-3.176-1.08
			C40.13,4.437,0,48.199,0,99.645c0,14.623,3.184,28.845,9.455,42.27c0.497,1.058,1.409,1.858,2.524,2.209
			c0.408,0.128,0.83,0.19,1.255,0.19c0.724,0,1.441-0.187,2.083-0.558l36.32-20.965C53.421,121.764,54.186,119.592,53.437,117.675z"
			/>
		<path fill="#B7B7B7" d="M180.662,150.994l-36.316-20.971c-1.763-1.004-4.033-0.609-5.336,0.994
			c-9.563,11.859-23.755,18.662-38.943,18.662c-15.187,0-29.382-6.803-38.941-18.662c-1.312-1.604-3.576-2.009-5.335-0.994
			l-36.319,20.971c-1.01,0.588-1.735,1.566-1.987,2.71c-0.253,1.142-0.017,2.338,0.659,3.294
			c18.754,26.747,49.381,42.713,81.923,42.713c32.55,0,63.178-15.97,81.924-42.713c0.674-0.956,0.911-2.152,0.657-3.294
			S181.673,151.582,180.662,150.994z"/>
	</g>
</g>
</svg>
