<?xml version="1.0" encoding="utf-8"?>
<!-- Generator: Adobe Illustrator 16.0.2, SVG Export Plug-In . SVG Version: 6.00 Build 0)  -->
<!DOCTYPE svg PUBLIC "-//W3C//DTD SVG 1.1//EN" "http://www.w3.org/Graphics/SVG/1.1/DTD/svg11.dtd">
<svg version="1.1" id="Layer_1" xmlns="http://www.w3.org/2000/svg" xmlns:xlink="http://www.w3.org/1999/xlink" x="0px" y="0px"
	 width="400px" height="400px" viewBox="0 0 400 400" enable-background="new 0 0 400 400" xml:space="preserve">
<g>
	<g>
		<rect x="0.087" y="310.068" fill="#FFFFFF" width="399.913" height="12.5"/>
	</g>
</g>
<g>
	<g>
		<rect y="347.031" fill="#FFFFFF" width="399.9" height="12.5"/>
	</g>
</g>
<g>
	<g>
		<path fill="#FFFFFF" d="M268.35,44.744v55.4H400v-55.4H268.35z M387.5,87.644H280.85v-30.4H387.5V87.644z"/>
	</g>
</g>
<g>
	<g>
		<path fill="#FFFFFF" d="M268.35,199.744v55.4H400v-55.4H268.35z M387.5,242.645H280.85v-30.399H387.5V242.645z"/>
	</g>
</g>
<g>
	<g>
		<path fill="#FFFFFF" d="M268.35,122.344v55.4H400v-55.4H268.35z M387.5,165.231H280.85v-30.4H387.5V165.231z"/>
	</g>
</g>
<g>
	<g>
		<path fill="#FFFFFF" d="M76.737,95.569V204.52l92.8-54.476L76.737,95.569z M89.237,117.394l55.6,32.638l-55.6,32.638V117.394z"/>
	</g>
</g>
<g>
	<g>
		<path fill="#FFFFFF" d="M197.212,40.469H32.675C14.65,40.456,0,55.306,0,73.544v152.813c0,18.225,14.65,33.074,32.675,33.074
			h164.538c17.988,0,32.637-14.851,32.637-33.074V73.544C229.85,55.306,215.2,40.469,197.212,40.469z M217.338,226.355
			c0,11.351-9.038,20.576-20.138,20.576H32.675c-11.125,0-20.175-9.227-20.175-20.589v-152.8c0-11.35,9.05-20.575,20.163-20.575
			H197.2c11.112,0,20.138,9.225,20.138,20.575V226.355z"/>
	</g>
</g>
</svg>
