<?xml version="1.0" encoding="utf-8"?>
<!-- Generator: Adobe Illustrator 16.0.2, SVG Export Plug-In . SVG Version: 6.00 Build 0)  -->
<!DOCTYPE svg PUBLIC "-//W3C//DTD SVG 1.1//EN" "http://www.w3.org/Graphics/SVG/1.1/DTD/svg11.dtd">
<svg version="1.1" id="Capa_1" xmlns="http://www.w3.org/2000/svg" xmlns:xlink="http://www.w3.org/1999/xlink" x="0px" y="0px"
	 width="512px" height="512px" viewBox="0 0 512 512" enable-background="new 0 0 512 512" xml:space="preserve">
<g>
	<path fill="#FFFFFF" d="M261.365,188.732v-19.436c19.062-3.181,29.238-17.015,29.238-31.779c0-16.635-9.621-26.36-28.682-34.206
		c-16.098-6.73-22.945-11.589-22.945-21.313c0-7.479,5.366-16.074,19.617-16.074c11.843,0,19.426,4.11,23.315,6.356l4.625-12.337
		c-5.366-3.181-12.955-6.168-24.057-6.543V35.268h-11.473v18.88c-17.023,2.801-27.94,14.578-27.94,30.095
		c0,16.261,11.658,24.862,30.534,32.334c13.689,5.607,20.908,11.963,20.908,22.249c0,10.654-8.886,18.319-22.02,18.319
		c-10.367,0-19.988-3.555-26.65-8.041l-4.44,12.525c6.478,4.672,17.58,8.041,28.312,8.221v18.88L261.365,188.732L261.365,188.732z"
		/>
	<path fill="#FFFFFF" d="M96,401.92c26.157,0,47.359-21.204,47.359-47.359c0-23.428-17.015-42.871-39.359-46.673v-31.996h301.766
		v32.432c-21.234,4.679-37.126,23.597-37.126,46.237c0,26.156,21.203,47.36,47.359,47.36s47.358-21.204,47.358-47.36
		c0-24.203-18.159-44.15-41.594-46.997v-47.671H264v-36.17c59.154-4.048,106.015-52.612,106.015-111.721
		C370.015,50.25,318.875,0,256,0c-62.875,0-114.016,50.25-114.016,112c0,59.108,46.86,107.672,106.015,111.721v36.169H88v47.997
		c-22.344,3.804-39.359,23.245-39.359,46.673C48.641,380.716,69.843,401.92,96,401.92z M447.359,354.559
		c0,17.293-14.066,31.361-31.359,31.361s-31.359-14.068-31.359-31.361c0-17.291,14.066-31.359,31.359-31.359
		C433.293,323.201,447.359,337.268,447.359,354.559z M157.984,112c0-52.938,43.968-96,98.016-96c54.047,0,98.016,43.063,98.016,96
		S310.047,208,256,208C201.953,208,157.984,164.937,157.984,112z M96,323.201c17.293,0,31.359,14.066,31.359,31.359
		c0,17.291-14.066,31.359-31.359,31.359s-31.359-14.068-31.359-31.359C64.641,337.268,78.707,323.201,96,323.201z"/>
	<path fill="#FFFFFF" d="M0,457.6C0,501.76,0,512,0,512s93.438,0,93.762,0L48,412.8C48,412.8,0,413.438,0,457.6z M16,496v-38.399
		c0-18.271,12.7-24.964,22.403-27.41l30.359,65.812H16V496z"/>
	<path fill="#FFFFFF" d="M144,412.8L98.238,512H192c0,0,0-10.24,0-54.4C192,413.438,144,412.8,144,412.8z M176,496h-52.762
		l30.36-65.811c9.703,2.446,22.402,9.139,22.402,27.41V496L176,496z"/>
	<polygon fill="#FFFFFF" points="96,412.8 63.04,412.8 96,485.76 128.96,412.8 	"/>
	<path fill="#FFFFFF" d="M320,457.6c0,44.16,0,54.4,0,54.4s93.438,0,93.762,0l-45.761-99.2C368.001,412.8,320,413.438,320,457.6z
		 M336.001,496v-38.399c0-18.271,12.699-24.964,22.402-27.41l30.359,65.812h-52.762V496z"/>
	<path fill="#FFFFFF" d="M464.001,412.8L418.238,512H512c0,0,0-10.24,0-54.4C512,413.438,464.001,412.8,464.001,412.8z M496.001,496
		h-52.763l30.359-65.811c9.703,2.446,22.403,9.139,22.403,27.41V496z"/>
	<polygon fill="#FFFFFF" points="416,412.8 383.04,412.8 416,485.76 448.96,412.8 	"/>
</g>
</svg>
