<?xml version="1.0" encoding="utf-8"?>
<!-- Generator: Adobe Illustrator 16.0.2, SVG Export Plug-In . SVG Version: 6.00 Build 0)  -->
<!DOCTYPE svg PUBLIC "-//W3C//DTD SVG 1.1//EN" "http://www.w3.org/Graphics/SVG/1.1/DTD/svg11.dtd">
<svg version="1.1" id="Capa_1" xmlns="http://www.w3.org/2000/svg" xmlns:xlink="http://www.w3.org/1999/xlink" x="0px" y="0px"
	 width="512px" height="512px" viewBox="0 0 512 512" enable-background="new 0 0 512 512" xml:space="preserve">
<g>
	<g>
		<path fill="#FFFFFF" d="M503.322,394.848h-63.783l49.655-19.864c4.449-1.78,6.613-6.831,4.834-11.28v-0.001l-80.575-201.424
			l-19.335-48.345c-1.779-4.45-6.83-6.614-11.28-4.833h-0.001l-70.43,28.16v-2.751c0-4.792-3.886-8.678-8.679-8.678h-78.102V73.763
			c0-4.792-3.885-8.678-8.678-8.678H43.39c-4.792,0-8.678,3.885-8.678,8.678v321.085H8.678c-4.792,0-8.678,3.886-8.678,8.678v34.712
			c0,4.792,3.886,8.678,8.678,8.678h494.645c4.792,0,8.678-3.886,8.678-8.678v-34.712C512,398.733,508.114,394.848,503.322,394.848z
			 M400.558,176.779l74.127,185.318l-64.46,25.809l-74.127-185.344L400.558,176.779z M381.223,128.434l12.887,32.221l-64.459,25.791
			l-12.904-32.23L381.223,128.434z M312.407,190.047l81.911,204.8h-81.911V190.047z M225.627,143.187h69.424v34.712h-69.424V143.187
			z M225.627,195.254h69.424v147.525h-69.424V195.254z M225.627,360.136h69.424v34.712h-69.424V360.136z M138.848,82.44h69.423
			v52.068v156.204h-69.423V82.44z M138.848,308.068h69.423v17.355h-69.423V308.068z M138.848,342.779h69.423v52.068h-69.423V342.779
			z M52.068,82.44h69.424v208.271H52.068V82.44z M52.068,308.068h69.424v17.355H52.068V308.068z M52.068,342.779h69.424v52.068
			H52.068V342.779z M494.645,429.56H17.356v-17.356h477.289V429.56z"/>
	</g>
</g>
<g>
	<g>
		<path fill="#FFFFFF" d="M95.458,91.119H78.102c-4.792,0-8.678,3.886-8.678,8.678c0,4.792,3.885,8.678,8.678,8.678h17.356
			c4.792,0,8.678-3.886,8.678-8.678C104.136,95.004,100.25,91.119,95.458,91.119z"/>
	</g>
</g>
<g>
	<g>
		<path fill="#FFFFFF" d="M86.78,125.831c-4.792,0-8.678,3.885-8.678,8.678V256c0,4.793,3.886,8.678,8.678,8.678
			s8.678-3.885,8.678-8.678V134.508C95.458,129.716,91.572,125.831,86.78,125.831z"/>
	</g>
</g>
<g>
	<g>
		<path fill="#FFFFFF" d="M182.237,91.119h-17.356c-4.792,0-8.678,3.886-8.678,8.678c0,4.792,3.885,8.678,8.678,8.678h17.356
			c4.792,0,8.678-3.886,8.678-8.678C190.915,95.004,187.03,91.119,182.237,91.119z"/>
	</g>
</g>
<g>
	<g>
		<path fill="#FFFFFF" d="M173.56,125.831c-4.792,0-8.678,3.885-8.678,8.678V256c0,4.793,3.886,8.678,8.678,8.678
			c4.792,0,8.678-3.885,8.678-8.678V134.508C182.237,129.716,178.352,125.831,173.56,125.831z"/>
	</g>
</g>
<g>
	<g>
		<path fill="#FFFFFF" d="M260.339,212.61c-4.792,0-8.678,3.885-8.678,8.678v95.458c0,4.792,3.885,8.678,8.678,8.678
			c4.792,0,8.679-3.886,8.679-8.678v-95.458C269.018,216.496,265.131,212.61,260.339,212.61z"/>
	</g>
</g>
<g>
	<g>
		<path fill="#FFFFFF" d="M421.506,299.242l-35.449-88.628c-1.78-4.45-6.832-6.614-11.281-4.833
			c-4.449,1.78-6.613,6.832-4.834,11.281l35.45,88.637c1.783,4.449,6.836,6.612,11.285,4.828
			C421.127,308.744,423.289,303.691,421.506,299.242z"/>
	</g>
</g>
</svg>
