<?xml version="1.0" encoding="utf-8"?>
<!-- Generator: Adobe Illustrator 16.0.2, SVG Export Plug-In . SVG Version: 6.00 Build 0)  -->
<!DOCTYPE svg PUBLIC "-//W3C//DTD SVG 1.1//EN" "http://www.w3.org/Graphics/SVG/1.1/DTD/svg11.dtd">
<svg version="1.1" id="Layer_1" xmlns="http://www.w3.org/2000/svg" xmlns:xlink="http://www.w3.org/1999/xlink" x="0px" y="0px"
	 width="512px" height="512px" viewBox="0 0 512 512" enable-background="new 0 0 512 512" xml:space="preserve">
<g>
	<g>
		<rect x="244.992" y="111.504" fill="#FFFFFF" width="183.728" height="16"/>
	</g>
</g>
<g>
	<g>
		<rect x="244.992" y="177.92" fill="#FFFFFF" width="265.392" height="16"/>
	</g>
</g>
<g>
	<g>
		<rect x="246.608" y="318.16" fill="#FFFFFF" width="183.728" height="16"/>
	</g>
</g>
<g>
	<g>
		<rect x="246.608" y="384.48" fill="#FFFFFF" width="265.392" height="16"/>
	</g>
</g>
<g>
	<g>
		<path fill="#FFFFFF" d="M0,281.92v154.816h176.928V281.92H0z M160.928,420.736H16V297.92h144.928V420.736z"/>
	</g>
</g>
<g>
	<g>
		<path fill="#FFFFFF" d="M55.744,318.128v82.4l71.36-41.2L55.744,318.128z M71.744,345.84l23.36,13.488l-23.36,13.488V345.84z"/>
	</g>
</g>
<g>
	<g>
		<path fill="#FFFFFF" d="M0,75.264V230.08h176.928V75.264H0z M160.928,214.08H16V91.264h144.928V214.08z"/>
	</g>
</g>
<g>
	<g>
		<path fill="#FFFFFF" d="M55.744,111.472v82.4l71.36-41.2L55.744,111.472z M71.744,139.184l23.36,13.488l-23.36,13.488V139.184z"/>
	</g>
</g>
</svg>
