<?xml version="1.0" encoding="utf-8"?>
<!-- Generator: Adobe Illustrator 16.0.2, SVG Export Plug-In . SVG Version: 6.00 Build 0)  -->
<!DOCTYPE svg PUBLIC "-//W3C//DTD SVG 1.1//EN" "http://www.w3.org/Graphics/SVG/1.1/DTD/svg11.dtd">
<svg version="1.1" id="Layer_1" xmlns="http://www.w3.org/2000/svg" xmlns:xlink="http://www.w3.org/1999/xlink" x="0px" y="0px"
	 width="512px" height="512px" viewBox="0 0 512 512" enable-background="new 0 0 512 512" xml:space="preserve">
<g>
	<g>
		<path fill="#FFFFFF" d="M99.216,44.288c-24.96,0-45.248,20.592-45.248,45.904s20.304,45.888,45.248,45.888
			c24.96,0,45.248-20.592,45.248-45.888C144.464,64.896,124.176,44.288,99.216,44.288z M99.216,120.08
			c-16.128,0-29.248-13.408-29.248-29.888s13.12-29.904,29.248-29.904c16.128,0,29.248,13.408,29.248,29.904
			S115.344,120.08,99.216,120.08z"/>
	</g>
</g>
<g>
	<g>
		<path fill="#FFFFFF" d="M142.72,146.576l-3.936-1.2l-39.568,30.336l-39.552-30.336l-3.952,1.2C-0.064,163.6,0,221.408,0,222
			l0.096,7.904h198.24v-0.016l0.096-7.904C198.432,221.408,198.48,163.6,142.72,146.576z M16.672,213.888
			c1.968-13.296,9.68-39.632,39.872-50.72l42.672,32.72l42.672-32.72c30.192,11.088,37.904,37.408,39.872,50.72H16.672z"/>
	</g>
</g>
<g>
	<g>
		<rect x="248.24" y="63.728" fill="#FFFFFF" width="263.76" height="16"/>
	</g>
</g>
<g>
	<g>
		<rect x="248.24" y="127.872" fill="#FFFFFF" width="263.76" height="16"/>
	</g>
</g>
<g>
	<g>
		<rect x="248.24" y="192" fill="#FFFFFF" width="263.76" height="16"/>
	</g>
</g>
<g>
	<g>
		<path fill="#FFFFFF" d="M99.216,282.111c-24.944,0-45.248,20.593-45.248,45.889c0,25.313,20.304,45.904,45.248,45.904
			c24.944,0,45.248-20.592,45.248-45.904C144.464,302.704,124.16,282.111,99.216,282.111z M99.216,357.904
			c-16.128,0-29.248-13.424-29.248-29.904s13.12-29.889,29.248-29.889c16.128,0,29.248,13.408,29.248,29.889
			S115.344,357.904,99.216,357.904z"/>
	</g>
</g>
<g>
	<g>
		<path fill="#FFFFFF" d="M142.72,384.384l-3.936-1.2l-39.568,30.353l-39.568-30.353l-3.936,1.2C-0.064,401.424,0,459.232,0,459.808
			l0.096,7.904h198.24l0.096-7.904C198.432,459.232,198.48,401.424,142.72,384.384z M16.672,451.728
			c1.968-13.327,9.68-39.663,39.872-50.735l42.672,32.72l42.672-32.72c30.192,11.072,37.904,37.424,39.872,50.735H16.672z"/>
	</g>
</g>
<g>
	<g>
		<rect x="248.24" y="301.568" fill="#FFFFFF" width="263.76" height="16"/>
	</g>
</g>
<g>
	<g>
		<rect x="248.24" y="365.695" fill="#FFFFFF" width="263.76" height="16"/>
	</g>
</g>
<g>
	<g>
		<rect x="248.24" y="429.824" fill="#FFFFFF" width="263.76" height="16"/>
	</g>
</g>
</svg>
