<?xml version="1.0" encoding="utf-8"?>
<!-- Generator: Adobe Illustrator 16.0.2, SVG Export Plug-In . SVG Version: 6.00 Build 0)  -->
<!DOCTYPE svg PUBLIC "-//W3C//DTD SVG 1.1//EN" "http://www.w3.org/Graphics/SVG/1.1/DTD/svg11.dtd">
<svg version="1.1" id="Layer_1_1_" xmlns="http://www.w3.org/2000/svg" xmlns:xlink="http://www.w3.org/1999/xlink" x="0px" y="0px"
	 width="512px" height="512px" viewBox="0 0 512 512" enable-background="new 0 0 512 512" xml:space="preserve">
<path fill="#FFFFFF" d="M488,416h-56V24c0-4.416-3.584-8-8-8H24c-4.416,0-8,3.584-8,8v432c0,22.056,17.944,40,40,40h400
	c22.056,0,40-17.944,40-40v-32C496,419.584,492.416,416,488,416z M80,424v32c0,13.232-10.768,24-24,24s-24-10.768-24-24V32h384v384
	H88C83.584,416,80,419.584,80,424z M480,456c0,13.232-10.768,24-24,24H87.984C93.008,473.313,96,465,96,456v-24h384V456z"/>
<path fill="#FFFFFF" d="M176,120h16v24h-56c-4.416,0-8,3.584-8,8v48c0,4.416,3.584,8,8,8h56v42.728l-51.152,21.92
	C137.904,273.904,136,276.8,136,280s1.904,6.096,4.848,7.352L192,309.271V344h-40c-13.232,0-24,10.768-24,24s10.768,24,24,24h96
	c13.232,0,24-10.768,24-24s-10.768-24-24-24h-40v-34.729L257.641,288H376c4.416,0,8-3.584,8-8V176c0-4.416-3.584-8-8-8H272v-16
	c0-4.416-3.584-8-8-8h-56v-24h16c17.648,0,32-14.352,32-32s-14.352-32-32-32h-48c-14.864,0-27.288,10.24-30.864,24H96v16h49.136
	C148.712,109.76,161.136,120,176,120z M256,368c0,4.408-3.592,8-8,8h-96c-4.408,0-8-3.592-8-8s3.592-8,8-8h96
	C252.408,360,256,363.592,256,368z M200,295.296L164.312,280L200,264.704L235.688,280L200,295.296z M272,200v-16h96v88H257.641
	L208,250.728V208h56C268.416,208,272,204.416,272,200z M256,192H144v-32h112V192z M176,72h48c8.824,0,16,7.176,16,16
	s-7.176,16-16,16h-48c-8.824,0-16-7.176-16-16S167.176,72,176,72z"/>
<path fill="#FFFFFF" d="M336,240h16v16h-16V240z"/>
<path fill="#FFFFFF" d="M304,240h16v16h-16V240z"/>
<path fill="#FFFFFF" d="M272,240h16v16h-16V240z"/>
<path fill="#FFFFFF" d="M64,80h16v16H64V80z"/>
</svg>
