<?xml version="1.0" encoding="utf-8"?>
<!-- Generator: Adobe Illustrator 16.0.2, SVG Export Plug-In . SVG Version: 6.00 Build 0)  -->
<!DOCTYPE svg PUBLIC "-//W3C//DTD SVG 1.1//EN" "http://www.w3.org/Graphics/SVG/1.1/DTD/svg11.dtd">
<svg version="1.1" id="Layer_1" xmlns="http://www.w3.org/2000/svg" xmlns:xlink="http://www.w3.org/1999/xlink" x="0px" y="0px"
	 width="400px" height="400px" viewBox="0 0 400 400" enable-background="new 0 0 400 400" xml:space="preserve">
<g>
	<g>
		<rect y="270.568" fill="#FFFFFF" width="111.9" height="12.5"/>
	</g>
</g>
<g>
	<g>
		<rect x="15.987" y="318.52" fill="#FFFFFF" width="79.938" height="12.5"/>
	</g>
</g>
<g>
	<g>
		<rect x="143.888" y="270.568" fill="#FFFFFF" width="111.899" height="12.5"/>
	</g>
</g>
<g>
	<g>
		<rect x="159.862" y="318.52" fill="#FFFFFF" width="79.938" height="12.5"/>
	</g>
</g>
<g>
	<g>
		<rect x="287.75" y="270.568" fill="#FFFFFF" width="111.912" height="12.5"/>
	</g>
</g>
<g>
	<g>
		<rect x="303.75" y="318.52" fill="#FFFFFF" width="79.938" height="12.5"/>
	</g>
</g>
<g>
	<g>
		<circle fill="#FFFFFF" cx="55.95" cy="212.869" r="15.988"/>
	</g>
</g>
<g>
	<g>
		<circle fill="#FFFFFF" cx="199.837" cy="212.869" r="15.988"/>
	</g>
</g>
<g>
	<g>
		<circle fill="#FFFFFF" cx="343.713" cy="212.869" r="15.988"/>
	</g>
</g>
<g>
	<g>
		<path fill="#FFFFFF" d="M55.95,68.981C25.05,68.981,0,94.044,0,124.944s25.05,55.95,55.95,55.95c30.9,0,55.95-25.05,55.95-55.95
			S86.85,68.981,55.95,68.981z M55.95,168.381c-23.963,0-43.45-19.475-43.45-43.438c0-23.963,19.487-43.462,43.45-43.462
			c23.962,0,43.45,19.487,43.45,43.45C99.4,148.894,79.913,168.381,55.95,168.381z"/>
	</g>
</g>
<g>
	<g>
		<path fill="#FFFFFF" d="M200,68.981c-30.9,0-55.95,25.05-55.95,55.95s25.05,55.962,55.95,55.962c30.9,0,55.95-25.05,55.95-55.95
			S230.9,68.981,200,68.981z M200,168.381c-23.962,0-43.45-19.488-43.45-43.45c0-23.95,19.488-43.45,43.45-43.45
			c23.963,0,43.45,19.487,43.45,43.45C243.45,148.894,223.963,168.381,200,168.381z"/>
	</g>
</g>
<g>
	<g>
		<path fill="#FFFFFF" d="M344.05,68.994c-30.898,0-55.95,25.05-55.95,55.95s25.052,55.95,55.95,55.95
			c30.9,0,55.95-25.05,55.95-55.95S374.95,68.994,344.05,68.994z M344.05,168.381c-23.962,0-43.45-19.488-43.45-43.45
			c-0.012-23.95,19.488-43.45,43.45-43.45c23.963,0,43.45,19.487,43.45,43.45C387.5,148.894,368.013,168.381,344.05,168.381z"/>
	</g>
</g>
</svg>
