<?xml version="1.0" encoding="utf-8"?>
<!-- Generator: Adobe Illustrator 16.0.2, SVG Export Plug-In . SVG Version: 6.00 Build 0)  -->
<!DOCTYPE svg PUBLIC "-//W3C//DTD SVG 1.1//EN" "http://www.w3.org/Graphics/SVG/1.1/DTD/svg11.dtd">
<svg version="1.1" id="Layer_1" xmlns="http://www.w3.org/2000/svg" xmlns:xlink="http://www.w3.org/1999/xlink" x="0px" y="0px"
	 width="94.935px" height="94.752px" viewBox="0 0 94.935 94.752" enable-background="new 0 0 94.935 94.752" xml:space="preserve">
<path fill="#E25545" d="M47.969,0.003C21.624-0.272,0.26,20.45,0.002,46.53C-0.261,73.22,20.386,94.503,46.78,94.749
	c26.441,0.248,47.833-20.646,48.151-47.029C95.244,21.81,74.051,0.276,47.969,0.003z M47.204,91.657
	C22.528,91.603,2.994,71.874,3.065,47.085C3.136,22.481,22.988,2.956,47.79,3.095c24.297,0.137,44.057,20.031,44.024,44.324
	C91.78,71.937,71.837,91.712,47.204,91.657z"/>
<path fill="#E25545" d="M64.402,32.81c0.817-0.834,2.558-1.58,1.12-3.193c-1.721-1.932-2.603,0.078-3.523,0.975
	c-3.82,3.711-7.769,7.326-11.25,11.342c-2.605,3.004-4.258,2.518-6.651-0.154c-3.438-3.84-7.227-7.365-10.905-10.984
	c-0.799-0.785-1.4-1.908-3.516-2.09c-0.07,0.131-0.447,0.689-0.678,1.305c-0.457,1.217,0.568,1.799,1.229,2.467
	c4.1,4.141,8.138,8.348,12.389,12.328c2.065,1.934,2.135,3.219,0.026,5.186c-4.257,3.975-8.285,8.193-12.387,12.332
	c-0.903,0.912-2.251,1.832-0.65,3.242c1.346,1.184,2.103-0.08,2.879-0.846c3.908-3.861,7.938-7.615,11.617-11.686
	c2.41-2.666,4.054-3.129,6.661-0.145c3.605,4.127,7.698,7.83,11.591,11.707c0.918,0.912,1.787,2.23,3.195,0.602
	c1.176-1.361-0.027-2.072-0.81-2.859c-4.108-4.131-8.14-8.346-12.391-12.326c-2.098-1.965-2.038-3.285,0.025-5.217
	C56.503,40.927,60.442,36.854,64.402,32.81z"/>
</svg>
