<?xml version="1.0" encoding="utf-8"?>
<!-- Generator: Adobe Illustrator 16.0.2, SVG Export Plug-In . SVG Version: 6.00 Build 0)  -->
<!DOCTYPE svg PUBLIC "-//W3C//DTD SVG 1.1//EN" "http://www.w3.org/Graphics/SVG/1.1/DTD/svg11.dtd">
<svg version="1.1" id="Layer_1" xmlns="http://www.w3.org/2000/svg" xmlns:xlink="http://www.w3.org/1999/xlink" x="0px" y="0px"
	 width="512px" height="512px" viewBox="0 0 512 512" enable-background="new 0 0 512 512" xml:space="preserve">
<path fill="#EDF2FA" d="M189.735,403.508c-1.422,0.559-2.84,1.121-4.273,1.691c-16.063,6.391-36.535,14.531-74.527,18.301
	L57,493.668h7.559c20.242,0,37.613-0.961,52.652-2.543c15.668-4.121,27.262-8.73,36.852-12.547
	c11.758-4.676,18.855-7.496,27.496-7.496c4.211,0,7.883,0.969,11.063,2.477c2.996-1.145,5.797-2.258,8.441-3.313
	C212.821,465.57,211.028,499,219.668,499c9.531,0,30.227-4.98,34.664,0l-5-52.23C238.321,428.277,218.25,407,189.735,403.508z"/>
<path fill="#EDF2FA" d="M401.536,424.867c-13.613-5.418-26.477-10.531-43.094-10.531c-32.293,0-54.903,22.715-67.11,42.676V502
	h6.645c0,0,5.328-11.355,5.191-11.043c0.938-2.137,9.212-19.875,27.274-19.875c8.641,0,15.738,2.82,27.496,7.5
	C381.384,487.906,416.821,502,494.442,502h7.559l-47.422-61.691C429.782,436.094,414.271,429.93,401.536,424.867z"/>
<path fill="#000000" d="M289.957,142.688c-0.797,1.301-1.574,2.59-2.348,3.879L294.5,189h-28.738
	c-10.644,24.941-16.222,47.488-17.507,66.75L272,280h-22.902c1.117,7.266,3.043,13.77,5.691,19.445
	c4.121,1.336,8.57,2.102,13.328,2.238c34.762,1,67.556-13.434,83.81-85.145c1.66-7.32,3.602-15.516,5.746-24.309l-25.672-1.73
	l30.402-17.371c10.98-43.707,25.023-95.945,34.109-129.324C368.013,55.914,326.731,82.863,289.957,142.688z"/>
<path fill="#000000" d="M509.927,495.906l-53.934-70.164c-1.68-2.191-4.191-3.586-6.941-3.859
	c-36.59-3.629-56.125-11.398-71.828-17.645c-13.891-5.523-28.25-11.234-46.781-11.234c-28.228,0-49.806,15.051-64.442,32.109v-0.371
	c8.152-18.797,29.883-48.457,63.642-48.457c14.523,0,25.832,4.5,38.938,9.711c10.934,4.348,24.543,9.762,44.438,13.941
	c5.406,1.137,10.707-2.324,11.844-7.73c1.133-5.402-2.328-10.707-7.73-11.84c-18.215-3.828-30.402-8.676-41.164-12.957
	c-13.75-5.469-27.969-11.125-46.324-11.125c-35.146,0-59.88,23.551-73.641,45c-13.762-21.449-38.496-45-73.645-45
	c-18.352,0-32.574,5.656-46.328,11.129c-15.52,6.172-34.836,13.855-71.016,17.441c-5.496,0.547-9.508,5.441-8.965,10.938
	c0.547,5.496,5.445,9.508,10.941,8.965c38.977-3.867,60.625-12.477,76.434-18.762c13.098-5.211,24.41-9.711,38.934-9.711
	c33.762,0,55.496,29.664,63.645,48.461v0.367C231.36,408.055,209.786,393,181.555,393c-18.527,0-32.891,5.715-46.789,11.242
	c-15.695,6.242-35.227,14.012-71.82,17.641c-2.746,0.273-5.258,1.668-6.941,3.859l-53.93,70.164
	c-2.324,3.02-2.727,7.098-1.043,10.516C2.715,509.836,6.192,512,10,512h492c3.809,0,7.285-2.164,8.969-5.578
	C512.653,503.004,512.251,498.926,509.927,495.906z M330.442,413c14.699,0,26.141,4.551,39.398,9.824
	c15.375,6.117,36.223,14.406,72.91,18.504l38.844,50.535c-66.832-1.441-98.551-14.059-119.961-22.574
	c-12.426-4.941-20.633-8.207-31.191-8.207c-18.48,0-31.149,13.871-36.399,25.785c-0.047,0.094-0.094,0.188-0.141,0.285L291.625,492
	H266v-29.926C274.242,443.051,296.246,413,330.442,413z M69.25,441.328c36.688-4.098,57.531-12.391,72.918-18.508
	c13.246-5.27,24.691-9.82,39.387-9.82c34.195,0,56.203,30.051,64.445,49.074V492h-25.629l-2.273-4.848
	c-0.047-0.098-0.094-0.191-0.141-0.285c-5.254-11.914-17.918-25.785-36.398-25.785c-10.559,0-18.766,3.266-31.191,8.207
	c-21.41,8.516-53.133,21.133-119.961,22.574L69.25,441.328z M157.762,487.871c11.008-4.379,17.07-6.789,23.793-6.789
	c8.629,0,14.047,6.789,16.547,10.918H147.18C150.985,490.566,154.485,489.176,157.762,487.871z M313.899,492
	c2.5-4.129,7.918-10.918,16.543-10.918c6.727,0,12.789,2.41,23.801,6.793c3.273,1.301,6.777,2.691,10.578,4.125H313.899z"/>
<path fill="#C8A227" d="M444.657,404.723l0.363,0.035c0.332,0.031,0.664,0.051,0.988,0.051c5.086,0,9.434-3.859,9.941-9.023
	c0.539-5.496-3.477-10.391-8.973-10.93l-0.355-0.035c-5.496-0.547-10.391,3.473-10.934,8.969S439.161,404.18,444.657,404.723z"/>
<path fill="#C8A227" d="M222.247,246.039c-2.598,0.223-5.023,1.453-6.734,3.449c-1.902,2.215-2.738,5.148-2.297,8.031
	c4.145,26.996,18.512,45.441,39.488,51.766c-0.48,3.781-0.926,7.566-1.324,11.363l-5.324,50.777
	c-0.574,5.492,3.41,10.414,8.902,10.988c0.355,0.039,0.707,0.055,1.055,0.055c5.054,0,9.394-3.816,9.933-8.957l5.324-50.777
	c0.387-3.691,0.82-7.367,1.281-11.035c46.517-0.574,74.915-30.234,89.13-92.949c1.582-6.977,3.5-15.102,5.707-24.152
	c0.699-2.867,0.098-5.895-1.648-8.277c-0.648-0.883-1.43-1.645-2.305-2.262l3.934-2.25c2.363-1.348,4.074-3.605,4.734-6.246
	c17.473-69.531,43.051-161.965,43.309-162.891c0.863-3.109,0.172-6.441-1.855-8.949c-2.023-2.512-5.148-3.898-8.355-3.703
	c-3.387,0.191-83.723,5.996-149.758,113.43c-0.82,1.332-1.617,2.652-2.406,3.977c-1.215,2.023-1.672,4.414-1.297,6.742L256.746,155
	h-16.98c-4.008,0-7.625,2.391-9.199,6.074c-10.707,25.09-16.859,48.641-18.289,70.008c-0.191,2.84,0.84,5.629,2.832,7.664
	L222.247,246.039z M353.747,166.559L327.04,181.82c-3.828,2.188-5.773,6.625-4.785,10.922s4.676,7.441,9.074,7.738l13.848,0.93
	c-1.102,4.641-2.105,8.957-3.004,12.918c-14.434,63.688-41.091,76.262-66.692,77.324c14.672-88.473,51.802-170.633,108.61-240.254
	C375.364,83.586,363.454,128.125,353.747,166.559z M246.45,175.004h22.05c2.93,0,5.715-1.289,7.617-3.523
	c1.898-2.234,2.723-5.188,2.254-8.082l-6.301-38.809c0.133-0.223,0.27-0.441,0.406-0.664c31.527-51.293,66.286-76.82,89.892-89.203
	c5.59-2.934,10.832-5.281,15.617-7.172c-34.41,39.953-62.645,84.613-83.966,132.898c-18.199,41.211-31.059,84.367-38.382,128.672
	c-10.891-4.461-16.73-14.008-19.863-23.121H246c4.027,0,7.66-2.414,9.219-6.125c1.558-3.707,0.742-7.992-2.074-10.871
	l-20.547-20.984C234.215,211.77,238.864,193.98,246.45,175.004z"/>
</svg>
