<?xml version="1.0" encoding="utf-8"?>
<!-- Generator: Adobe Illustrator 15.1.0, SVG Export Plug-In  -->
<!DOCTYPE svg PUBLIC "-//W3C//DTD SVG 1.1//EN" "http://www.w3.org/Graphics/SVG/1.1/DTD/svg11.dtd" [
	<!ENTITY ns_flows "http://ns.adobe.com/Flows/1.0/">
]>
<svg version="1.1"
	 xmlns="http://www.w3.org/2000/svg" xmlns:xlink="http://www.w3.org/1999/xlink" xmlns:a="http://ns.adobe.com/AdobeSVGViewerExtensions/3.0/"
	 x="0px" y="0px" width="150px" height="150px" viewBox="0 0 150 150" enable-background="new 0 0 150 150" xml:space="preserve">
<defs>
</defs>
<path id="XMLID_3_" fill="#828E9F" d="M74.891,90.259c20.48,0,38.072,12.397,45.653,30.12c11.683-11.743,18.937-27.96,18.937-45.879
	c0-35.904-29.078-64.984-64.981-64.984c-35.902,0-64.982,29.08-64.982,64.984c0,18.182,7.45,34.587,19.498,46.402
	C36.463,102.889,54.183,90.259,74.891,90.259z M74.891,30.16c14.442,0,26.125,11.685,26.125,26.126
	c0,14.438-11.684,26.122-26.125,26.122c-14.437,0-26.121-11.684-26.121-26.122C48.77,41.844,60.454,30.16,74.891,30.16z"/>
<path id="XMLID_2_" fill="#AAB5C3" d="M74.498,0C33.343,0,0,33.343,0,74.5S33.343,149,74.498,149C115.654,149,149,115.657,149,74.5
	S115.654,0,74.498,0z M74.498,139.482c-17.722,0-33.771-7.086-45.485-18.58C16.966,109.087,9.516,92.682,9.516,74.5
	c0-35.904,29.08-64.984,64.982-64.984c35.902,0,64.982,29.08,64.982,64.984c0,17.919-7.254,34.136-18.974,45.879
	C108.766,132.165,92.482,139.482,74.498,139.482z"/>
</svg>
