<?xml version="1.0" encoding="utf-8"?>
<!-- Generator: Adobe Illustrator 16.0.2, SVG Export Plug-In . SVG Version: 6.00 Build 0)  -->
<!DOCTYPE svg PUBLIC "-//W3C//DTD SVG 1.1//EN" "http://www.w3.org/Graphics/SVG/1.1/DTD/svg11.dtd">
<svg version="1.1" id="Capa_1" xmlns="http://www.w3.org/2000/svg" xmlns:xlink="http://www.w3.org/1999/xlink" x="0px" y="0px"
	 width="612px" height="792px" viewBox="0 0 612 792" enable-background="new 0 0 612 792" xml:space="preserve">
<g>
	<path fill="#FFFFFF" d="M0,644.626h612v-497.25H0V644.626z M19.125,166.5h573.75v459H19.125V166.5z"/>
	<rect x="226.486" y="241.431" fill="#FFFFFF" width="153" height="19.125"/>
	<rect x="226.486" y="279.681" fill="#FFFFFF" width="286.876" height="19.126"/>
	<path fill="#FFFFFF" d="M89.361,314.775h89.312v-89.312H89.361V314.775z M108.486,244.587h51.062v51.062h-51.062V244.587z"/>
	<rect x="226.486" y="367.612" fill="#FFFFFF" width="153" height="19.125"/>
	<rect x="226.486" y="405.862" fill="#FFFFFF" width="286.876" height="19.124"/>
	<path fill="#FFFFFF" d="M89.361,440.954h89.312v-89.312H89.361V440.954z M108.486,370.768h51.062v51.062h-51.062V370.768z"/>
	<rect x="226.486" y="493.791" fill="#FFFFFF" width="153" height="19.126"/>
	<rect x="226.486" y="532.041" fill="#FFFFFF" width="286.876" height="19.126"/>
	<path fill="#FFFFFF" d="M89.361,567.135h89.312v-89.312H89.361V567.135z M108.486,496.947h51.062v51.063h-51.062V496.947z"/>
</g>
</svg>
