<?xml version="1.0" encoding="utf-8"?>
<!-- Generator: Adobe Illustrator 16.0.2, SVG Export Plug-In . SVG Version: 6.00 Build 0)  -->
<!DOCTYPE svg PUBLIC "-//W3C//DTD SVG 1.1//EN" "http://www.w3.org/Graphics/SVG/1.1/DTD/svg11.dtd">
<svg version="1.1" id="Layer_3" xmlns="http://www.w3.org/2000/svg" xmlns:xlink="http://www.w3.org/1999/xlink" x="0px" y="0px"
	 width="512px" height="512px" viewBox="0 0 512 512" enable-background="new 0 0 512 512" xml:space="preserve">
<path fill="#000000" d="M496,296v-80h-35.88c-5.424-27.848-16.376-53.728-31.712-76.4L456,112l-56-56l-27.6,27.6
	c-22.673-15.344-48.553-26.288-76.4-31.72V16h-80v35.88c-27.848,5.424-53.728,16.376-76.4,31.712L112,56l-56,56l27.6,27.6
	c-15.344,22.672-26.288,48.552-31.72,76.4H16v80h35.88c5.424,27.848,16.376,53.729,31.712,76.4L56,400l56,56l27.6-27.6
	c22.672,15.336,48.552,26.287,76.4,31.712V496h80v-35.88c27.848-5.424,53.728-16.376,76.4-31.712L400,456l56-56l-27.6-27.6
	c15.336-22.672,26.287-48.553,31.712-76.4H496z"/>
<circle fill="#FFFFFF" cx="256" cy="256" r="176"/>
<circle fill="#C8A227" cx="256" cy="256" r="112"/>
<circle fill="#CCCCCC" cx="256" cy="256" r="80"/>
<circle fill="#C8A227" cx="256" cy="256" r="48"/>
<path fill="#000000" d="M242.301,258.348l110.982-110.982l11.312,11.312L253.613,269.66L242.301,258.348z"/>
<path fill="#F4B23E" d="M344,168v-24l32-32v24h24l-32,32H344z"/>
<g>
	<path fill="#000000" d="M264,144.4c-2.656-0.184-5.296-0.4-8-0.4s-5.344,0.216-8,0.4v68.264h16V144.4z"/>
	<path fill="#000000" d="M248,367.6c2.656,0.185,5.296,0.4,8,0.4s5.344-0.216,8-0.4v-74.264h-16V367.6z"/>
	<path fill="#000000" d="M294,264h73.6c0.185-2.656,0.4-5.296,0.4-8s-0.216-5.344-0.4-8H294V264z"/>
	<path fill="#000000" d="M144,256c0,2.704,0.216,5.344,0.4,8h70.264v-16H144.4C144.216,250.656,144,253.296,144,256z"/>
	<path fill="#000000" d="M280,272h-32c-4.424,0-8-3.576-8-8v-32h16v24h24V272z"/>
</g>
</svg>
