<?xml version="1.0" encoding="utf-8"?>
<!-- Generator: Adobe Illustrator 16.0.2, SVG Export Plug-In . SVG Version: 6.00 Build 0)  -->
<!DOCTYPE svg PUBLIC "-//W3C//DTD SVG 1.1//EN" "http://www.w3.org/Graphics/SVG/1.1/DTD/svg11.dtd">
<svg version="1.1" id="Capa_1" xmlns="http://www.w3.org/2000/svg" xmlns:xlink="http://www.w3.org/1999/xlink" x="0px" y="0px"
	 width="50px" height="50px" viewBox="0 0 50 50" enable-background="new 0 0 50 50" xml:space="preserve">
<g>
	<path fill="#FFFFFF" d="M6.667,18.333C2.991,18.333,0,21.324,0,25s2.991,6.666,6.667,6.666s6.667-2.99,6.667-6.666
		S10.342,18.333,6.667,18.333z M6.667,30c-2.757,0-5-2.242-5-5c0-2.757,2.243-5,5-5c2.758,0,5,2.243,5,5
		C11.667,27.758,9.424,30,6.667,30z"/>
	<path fill="#FFFFFF" d="M43.334,18.333c-3.676,0-6.668,2.991-6.668,6.667s2.992,6.666,6.668,6.666S50,28.676,50,25
		S47.01,18.333,43.334,18.333z M43.334,30c-2.758,0-5-2.242-5-5c0-2.757,2.242-5,5-5c2.757,0,5,2.243,5,5
		C48.334,27.758,46.091,30,43.334,30z"/>
	<path fill="#FFFFFF" d="M25,18.333c-3.676,0-6.667,2.991-6.667,6.667s2.991,6.666,6.667,6.666s6.666-2.99,6.666-6.666
		S28.676,18.333,25,18.333z M25,30c-2.757,0-5-2.242-5-5c0-2.757,2.243-5,5-5c2.758,0,5,2.243,5,5C30,27.758,27.758,30,25,30z"/>
</g>
</svg>
