<?xml version="1.0" encoding="utf-8"?>
<!-- Generator: Adobe Illustrator 16.0.2, SVG Export Plug-In . SVG Version: 6.00 Build 0)  -->
<!DOCTYPE svg PUBLIC "-//W3C//DTD SVG 1.1//EN" "http://www.w3.org/Graphics/SVG/1.1/DTD/svg11.dtd">
<svg version="1.1" id="Layer_1" xmlns="http://www.w3.org/2000/svg" xmlns:xlink="http://www.w3.org/1999/xlink" x="0px" y="0px"
	 width="150.096px" height="155.918px" viewBox="0 0 150.096 155.918" enable-background="new 0 0 150.096 155.918"
	 xml:space="preserve">
<g>
	<path fill="#D9E0ED" d="M146.816,63.875c-8.334-40.117-45.703-64.737-83.709-59.042C19.98,11.296-8.559,53.971,2.322,96.528
		c1.316,5.151,4.325,9.717,4.853,15.094c1.941,1.152,3.605-0.033,5.186-0.549c-0.846,1.563-3.914-0.047-4.217,2.697
		c1.9,0.456,2.314,2.221,3.178,3.596c4.369,6.969,9.647,13.291,16.193,18.147c26.762,19.86,55.103,22.374,84.343,5.944
		c12.036-6.764,21.796-16.223,27.227-29.394c0.189-0.31,0.297-0.653,0.132-0.921c-6.213-10.066-4.931-12.721,6.853-14.155
		c0.154-1.313,0.22-2.644,0.478-3.935C148.492,83.342,148.832,73.576,146.816,63.875z"/>
	<path fill="#000000" d="M140.229,0.002c4.299,0.093,7.847,3.732,7.822,8.026c-0.024,4.479-3.948,8.188-8.402,7.944
		c-4.288-0.234-7.732-4.002-7.568-8.275C132.246,3.392,135.934-0.091,140.229,0.002z"/>
	<path fill="#000000" d="M20.123,27.565c-1.997-1.908-4.399-3.461-4.952-6.525c-1.213-6.724,4.685-10.976,11.937-8.551
		c3.309,2.374,4.902,5.488,3.545,9.498C28.937,27.051,24.695,27.704,20.123,27.565z"/>
	<path fill="#000000" d="M140.065,130.241c-0.563,2.299-1.9,3.928-4.436,3.631c-2.183-0.256-3.663-1.779-3.466-4.07
		c0.212-2.448,1.834-3.959,4.342-3.699C138.723,126.331,139.889,127.922,140.065,130.241z"/>
	<path fill="#000000" d="M28.125,151.812c-0.449,2.63-1.77,4.254-4.322,4.099c-2.244-0.139-3.727-1.631-3.66-3.932
		c0.073-2.512,1.656-4.023,4.188-3.916C26.641,148.161,27.713,149.827,28.125,151.812z"/>
	<path fill="#D3D3D3" d="M128.158,5.881c-1.111-0.059-1.851-0.652-1.931-1.77c-0.082-1.136,0.62-1.866,1.724-1.953
		c1.138-0.09,1.857,0.62,1.957,1.722C130.012,5.038,129.266,5.64,128.158,5.881z"/>
	<path fill="#FEFEFD" d="M138.112,84.76c-0.417,2.809-1.953,4.826-4.633,5.08c-3.053,0.289-5.111-1.785-5.257-4.682
		c-0.147-2.982,1.932-5.004,4.916-5.037C135.94,80.092,137.367,82.224,138.112,84.76z"/>
	<path fill="#000000" d="M13.982,69.988c4.611,3.052,9.223,6.104,13.832,9.155c-0.356,0.564-0.715,1.131-1.071,1.695
		c-4.639-3.021-9.275-6.041-13.914-9.061C13.213,71.183,13.598,70.585,13.982,69.988z"/>
	<path fill="#000000" d="M7.375,83.26c5.295,1.593,10.59,3.186,15.884,4.777c-0.179,0.646-0.358,1.291-0.538,1.935
		c-5.311-1.556-10.623-3.11-15.936-4.663C6.982,84.625,7.179,83.942,7.375,83.26z"/>
	<path fill="#FEFCF8" d="M134.082,44.263c0.951,0.075,1.582,0.651,1.67,1.516c0.117,1.143-0.566,1.938-1.725,1.92
		c-1.156-0.019-1.826-0.841-1.671-1.971C132.475,44.889,133.12,44.298,134.082,44.263z"/>
	<g>
		<path fill="#000000" d="M59.468,130.456c4.791-0.836,9.636-1.523,14.314-2.799c3.751-1.025,6.566-0.15,9.604,2.059
			c6.421,4.668,5.737,4.707,9.931-1.961c2.037-3.239,4.433-4.924,8.232-5.373c4.695-0.557,9.327-1.651,13.974-2.592
			c6.52-1.319,8.775-4.639,7.556-11.229c-1.979-10.67-4.01-21.329-6.087-31.978c-1.314-6.732-4.707-8.975-11.518-7.698
			c-9.195,1.722-18.38,3.491-27.567,5.24c-9.435,1.796-18.879,3.539-28.298,5.409c-5.757,1.139-8.308,4.824-7.259,10.555
			c2.021,11.041,4.128,22.065,6.293,33.08C49.822,129.167,53.365,131.518,59.468,130.456z M46.172,89.01
			c-0.674-3.659,1.496-5.151,4.778-5.758c9.212-1.698,18.406-3.483,27.607-5.236c9.201-1.751,18.399-3.526,27.608-5.245
			c4.688-0.874,6.106,0.111,6.998,4.753c2.021,10.551,4.035,21.102,6.023,31.654c0.846,4.482-0.117,5.9-4.537,6.77
			c-4.777,0.938-9.532,2.133-14.362,2.649c-4.642,0.495-7.978,2.356-9.961,6.608c-1.129,2.416-2.59,3.438-4.929,1.148
			c-3.553-3.48-7.638-3.896-12.377-2.568c-4.675,1.307-9.563,1.834-14.326,2.846c-3.332,0.707-5.439-0.447-6.086-3.758
			C50.406,111.598,48.252,100.312,46.172,89.01z"/>
		<path fill="#000000" d="M95.772,58.518c-6.863,1.306-13.729,2.612-20.593,3.92c-2.943,0.56-5.891,1.093-8.822,1.702
			c-1.206,0.251-2.104,0.97-1.866,2.348c0.247,1.423,1.375,1.635,2.586,1.477c0.987-0.128,1.965-0.346,2.944-0.532
			c17.776-3.382,35.549-6.776,53.328-10.143c4.923-0.932,6.346,0.023,7.284,4.878c1.779,9.188,3.509,18.386,5.262,27.581
			c1.513,7.947,1.519,7.965-5.846,11.078c-1.057,0.444-1.777,1.129-1.624,2.209c0.184,1.293,1.136,1.658,2.474,1.623
			c7.226-0.197,10.926-4.688,9.585-11.85c-1.979-10.549-3.986-21.089-6.021-31.628c-1.285-6.66-4.83-9.081-11.477-7.838
			C113.911,55.044,104.845,56.792,95.772,58.518z"/>
		<path fill="#000000" d="M41.924,76.62c2.083-0.453,1.395-2.313,1.131-3.734c-1.115-6.009-2.303-12.005-3.405-18.017
			c-0.849-4.622,0.159-6.043,4.85-6.98c3.301-0.659,6.613-1.267,9.924-1.896c15.071-2.868,30.138-5.758,45.217-8.591
			c4.46-0.839,5.886,0.192,6.769,4.604c0.394,1.955,0.699,3.932,1.176,5.868c0.297,1.204,1.175,2.001,2.479,1.646
			c1.107-0.301,1.469-1.291,1.285-2.384c-0.326-1.97-0.677-3.934-1.073-5.89c-1.37-6.723-4.716-8.973-11.526-7.697
			c-9.195,1.723-18.381,3.491-27.571,5.241c-9.436,1.796-18.88,3.539-28.302,5.407c-5.757,1.142-8.265,4.819-7.249,10.568
			c1.104,6.264,2.354,12.502,3.55,18.75C39.479,75.103,39.638,77.116,41.924,76.62z"/>
		<path fill="#000000" d="M60.813,93.584c13.354-2.522,26.701-5.063,40.053-7.619c1.436-0.272,3.391-0.391,2.994-2.471
			c-0.431-2.265-2.364-1.652-3.954-1.352c-6.49,1.232-12.98,2.47-19.474,3.706c-6.736,1.282-13.472,2.562-20.207,3.851
			c-1.475,0.28-3.308,0.461-3.004,2.516C57.54,94.368,59.361,93.858,60.813,93.584z"/>
		<path fill="#000000" d="M101.992,93.952c-12.98,2.471-25.966,4.928-38.941,7.43c-1.598,0.313-4.034,0.166-3.522,2.756
			c0.465,2.348,2.563,1.388,4.049,1.117c6.621-1.207,13.229-2.496,19.845-3.752c6.492-1.236,12.983-2.461,19.472-3.717
			c1.546-0.301,3.729-0.375,3.198-2.658C105.589,92.972,103.577,93.649,101.992,93.952z"/>
		<path fill="#000000" d="M65.086,117.183c3.421-0.618,6.832-1.29,10.247-1.937c3.415-0.649,6.834-1.279,10.243-1.957
			c1.551-0.311,3.662-0.438,3.176-2.683c-0.403-1.856-2.229-1.519-3.751-1.224c-6.826,1.316-13.658,2.603-20.486,3.91
			c-1.49,0.285-3.212,0.56-2.776,2.646C62.13,117.831,63.748,117.424,65.086,117.183z"/>
	</g>
	<path fill="#000000" d="M6.439,111.586c5.375-1.295,10.75-2.59,16.125-3.887c0.17,0.647,0.341,1.297,0.511,1.941
		c-5.369,1.336-10.741,2.673-16.111,4.012C6.788,112.963,6.613,112.274,6.439,111.586z"/>
</g>
</svg>
