<?xml version="1.0" encoding="utf-8"?>
<!-- Generator: Adobe Illustrator 16.0.2, SVG Export Plug-In . SVG Version: 6.00 Build 0)  -->
<!DOCTYPE svg PUBLIC "-//W3C//DTD SVG 1.1//EN" "http://www.w3.org/Graphics/SVG/1.1/DTD/svg11.dtd">
<svg version="1.1" id="Layer_1" xmlns="http://www.w3.org/2000/svg" xmlns:xlink="http://www.w3.org/1999/xlink" x="0px" y="0px"
	 width="250px" height="250px" viewBox="0 0 250 250" enable-background="new 0 0 250 250" xml:space="preserve">
<g id="search" transform="translate(540.561628, 881.704416) rotate(-50.000000) translate(-540.561628, -881.704416) translate(413.561628, 734.204416)">
	<path id="Fill-1" fill="#989898" d="M523.383-724.716c1.932,1.313,3.603,2.988,4.914,4.924c1.311-1.937,2.982-3.61,4.914-4.924
		c-1.932-1.313-3.602-2.987-4.914-4.922C526.986-727.702,525.314-726.029,523.383-724.716 M531.442-709.523h-6.291
		c0-6.64-5.392-12.041-12.019-12.041l0-6.303c6.627,0,12.02-5.4,12.019-12.038l6.291,0c0.001,6.639,5.395,12.039,12.022,12.039
		l0.001,6.303C536.837-721.564,531.443-716.162,531.442-709.523"/>
	<path id="Fill-3" fill="#989898" d="M357.466-575.621c1.932,1.313,3.604,2.988,4.914,4.922c1.31-1.934,2.982-3.608,4.913-4.921
		c-1.932-1.313-3.603-2.987-4.914-4.922C361.069-578.608,359.397-576.934,357.466-575.621 M365.525-560.431l-6.291,0
		c0.001-6.638-5.391-12.039-12.021-12.039l0-6.301c6.629-0.002,12.021-5.401,12.021-12.04l6.291,0
		c0.001,6.639,5.395,12.04,12.021,12.04l0.001,6.302C370.92-572.469,365.526-567.069,365.525-560.431"/>
	<path id="Fill-5" fill="#989898" d="M437.954-697.57c-21.481,0-38.957,17.506-38.958,39.024c0,21.518,17.476,39.022,38.957,39.023
		c21.483,0,38.958-17.505,38.959-39.022C476.912-680.065,459.435-697.57,437.954-697.57 M437.955-613.22
		c-24.951-0.001-45.249-20.332-45.25-45.326c0-24.993,20.299-45.325,45.249-45.325c24.951,0,45.249,20.333,45.249,45.326
		C483.204-633.552,462.905-613.221,437.955-613.22"/>
	<path id="Fill-7" fill="#989898" d="M473.047-658.546l-6.292-0.001c0-15.906-12.921-28.849-28.8-28.849l0-6.302
		C457.305-693.698,473.047-677.929,473.047-658.546"/>
	<path id="Fill-9" fill="#989898" d="M453.907-627.226l-2.865-5.61c5.122-2.628,9.308-6.677,12.102-11.713l5.5,3.062
		C465.24-635.354,460.143-630.421,453.907-627.226"/>
	<path id="Fill-11" fill="#989898" d="M437.954-709.969c-28.306,0-51.336,23.068-51.336,51.424c0,28.353,23.03,51.423,51.336,51.422
		c28.304,0,51.335-23.068,51.334-51.422C489.29-686.9,466.26-709.968,437.954-709.969 M437.954-600.821
		c-31.774-0.001-57.627-25.896-57.626-57.724c-0.001-31.831,25.851-57.726,57.626-57.726c31.775,0,57.628,25.897,57.627,57.727
		C495.582-626.717,469.729-600.821,437.954-600.821"/>
	<polygon id="Fill-13" fill="#989898" points="448.392,-589.714 427.516,-589.715 427.517,-603.972 433.808,-603.972 
		433.809,-596.017 442.1,-596.016 442.1,-603.973 448.392,-603.972 	"/>
	<g id="Group-17" transform="translate(105.000000, 199.430471)">
		<g id="Clip-16">
		</g>
		<defs>
			<filter id="Adobe_OpacityMaskFilter" filterUnits="userSpaceOnUse" x="281.119" y="749.769" width="103.295" height="13.204">
				<feColorMatrix  type="matrix" values="1 0 0 0 0  0 1 0 0 0  0 0 1 0 0  0 0 0 1 0"/>
			</filter>
		</defs>
		<mask maskUnits="userSpaceOnUse" x="281.119" y="749.769" width="103.295" height="13.204" id="mask-2_2_">
			<g filter="url(#Adobe_OpacityMaskFilter)">
				<polygon id="path-1_2_" fill="#FFFFFF" points="314.389,-716.127 351.522,-716.126 351.522,-795.447 314.389,-795.447 				"/>
			</g>
		</mask>
		<path id="Fill-15" mask="url(#mask-2_2_)" fill="#989898" d="M325.627-789.145l-4.931,61.285
			c-0.113,1.418,0.353,2.771,1.313,3.813c0.962,1.044,2.271,1.619,3.689,1.619l14.516,0.001c1.415,0,2.726-0.577,3.687-1.62
			c0.961-1.043,1.428-2.396,1.314-3.813l-4.931-61.284L325.627-789.145z M340.212-716.126l-14.514,0.001
			c-3.15-0.001-6.179-1.331-8.314-3.648c-2.135-2.32-3.212-5.449-2.959-8.594l5.396-67.08h26.265l5.399,67.082
			c0.253,3.143-0.827,6.276-2.962,8.593C346.389-717.457,343.36-716.126,340.212-716.126L340.212-716.126z"/>
	</g>
	<polygon id="Fill-18" fill="#989898" points="538.712,-642.894 511.984,-647.047 512.948,-653.275 539.677,-649.124 	"/>
	<polygon id="Fill-20" fill="#989898" points="463.13,-735.724 457.174,-737.754 465.899,-763.401 471.855,-761.369 	"/>
	<polygon id="Fill-22" fill="#989898" points="403.475,-734.489 393.7,-759.75 399.566,-762.027 409.341,-736.765 	"/>
	<polygon id="Fill-24" fill="#989898" points="364.434,-697.407 340.735,-710.465 343.767,-715.988 367.466,-702.93 	"/>
	<polygon id="Fill-26" fill="#989898" points="331.788,-638.61 330.567,-644.792 357.101,-650.049 358.321,-643.866 	"/>
	<polygon id="Fill-28" fill="#989898" points="501.997,-580.518 484.189,-600.908 488.923,-605.057 506.733,-584.667 	"/>
</g>
</svg>
