<?xml version="1.0" encoding="utf-8"?>
<!-- Generator: Adobe Illustrator 16.0.2, SVG Export Plug-In . SVG Version: 6.00 Build 0)  -->
<!DOCTYPE svg PUBLIC "-//W3C//DTD SVG 1.1//EN" "http://www.w3.org/Graphics/SVG/1.1/DTD/svg11.dtd">
<svg version="1.1" xmlns="http://www.w3.org/2000/svg" xmlns:xlink="http://www.w3.org/1999/xlink" x="0px" y="0px" width="500px"
	 height="500px" viewBox="0 0 500 500" enable-background="new 0 0 500 500" xml:space="preserve">
<g id="BACKGROUND">
	<rect fill="#FFFFFF" width="500" height="500"/>
</g>
<g id="OBJECTS">
	<g>
		<path opacity="0.3" fill="#ABD5E6" d="M315.607,113.637c-14.99,2.829-30.26-3.059-43.563-10.527
			c-18.515-10.393-35.039-23.968-53.019-35.263c-17.979-11.295-38.183-20.469-59.415-20.509
			c-21.232-0.04-43.508,10.882-51.877,30.396c-8.874,20.691-0.638,44.726-4.48,66.91c-6.23,35.974-42.688,61.001-48.768,97.001
			c-3.482,20.616,3.849,41.869,15.525,59.213c24.844,36.907,71.252,58.848,115.235,52.148c27.992-4.264,53.51-19.123,74.757-37.841
			c21.246-18.717,38.707-41.267,56.028-63.666"/>
		<path opacity="0.3" fill="#FFCE68" d="M328.403,373.047c-5.249-6.242-10.096-12.82-14.503-19.682
			c-4.227-6.581-8.104-13.569-9.643-21.238c-2.068-10.299,0.236-20.946,3.092-31.056c3.276-11.6,7.367-23.143,14.175-33.089
			c6.809-9.946,16.625-18.245,28.304-21.225c9.507-2.426,19.605-1.236,29.217-3.202c18.605-3.805,32.981-18.946,42.332-35.475
			c4.927-8.708,9.489-18.667,18.547-22.917c10.621-4.983,24.108,0.528,30.613,10.292c6.505,9.764,7.04,22.512,4.365,33.935
			c-2.675,11.423-8.226,21.923-13.262,32.519c-5.036,10.596-9.673,21.697-10.298,33.412c-1.031,19.324,8.944,38.301,6.205,57.457
			c-1.539,10.767-7.045,20.645-13.966,29.034c-5.745,6.967-12.627,13.154-20.772,17.053c-12.193,5.836-26.569,6.136-39.621,2.613
			s-24.898-10.636-35.497-19.028"/>
		<ellipse opacity="0.1" fill="#1D262D" cx="249.823" cy="425.283" rx="221.035" ry="12.483"/>
		<g>
			<g>
				<rect x="139.183" y="104.108" fill="#E2E2E2" width="239.168" height="319.075"/>
				<rect x="153.82" y="125.613" opacity="0.2" fill="#1D262D" width="209.894" height="285.829"/>
				<rect x="153.82" y="120.731" fill="#FFFFFF" width="209.894" height="285.829"/>
				<polygon fill="#DC894E" points="138.132,123.967 138.132,103.058 159.042,103.058 				"/>
				<polygon fill="#DC894E" points="379.401,123.967 379.401,103.058 358.491,103.058 				"/>
				<polygon fill="#DC894E" points="138.132,404.139 138.132,425.049 159.042,425.049 				"/>
				<polygon fill="#DC894E" points="379.401,404.139 379.401,425.049 358.491,425.049 				"/>
			</g>
			<path fill="#FFCE68" d="M258.767,111.969L258.767,111.969c-8.252,0-14.942,3.815-14.942-4.437v-1.268
				c0-8.252,6.69-14.942,14.942-14.942l0,0c8.252,0,14.942,6.69,14.942,14.942v1.268
				C273.708,115.784,267.019,111.969,258.767,111.969z"/>
			<rect x="219.743" y="123.967" opacity="0.2" fill="#1D262D" width="78.046" height="7.022"/>
			<g>
				<defs>
					<rect id="XMLID_21_" x="217.62" y="100.431" width="82.294" height="27.665"/>
				</defs>
				<use xlink:href="#XMLID_21_"  overflow="visible" fill="#FFCE68"/>
				<clipPath id="XMLID_2_">
					<use xlink:href="#XMLID_21_"  overflow="visible"/>
				</clipPath>
				<rect x="209.398" y="115.63" opacity="0.2" clip-path="url(#XMLID_2_)" fill="#CC2A3A" width="100.922" height="15.859"/>
			</g>
			<g>
				<path fill="#ABD5E6" d="M206.574,205.446h-34.797v-34.797h34.797V205.446z M172.828,204.396h32.696v-32.696h-32.696V204.396z"/>
			</g>
			<g>
				<path fill="#ABD5E6" d="M206.574,249.442h-34.797v-34.797h34.797V249.442z M172.828,248.392h32.696v-32.696h-32.696V248.392z"/>
			</g>
			<g>
				<path fill="#ABD5E6" d="M206.574,293.439h-34.797v-34.798h34.797V293.439z M172.828,292.389h32.696v-32.696h-32.696V292.389z"/>
			</g>
			<path fill="#23809B" d="M186.615,198.103l-16.578-16.402c-1.147-1.135-1.156-2.985-0.022-4.132
				c1.137-1.148,2.986-1.155,4.132-0.022l12.236,12.107l19.417-21.449c1.082-1.195,2.93-1.29,4.126-0.205
				c1.195,1.083,1.287,2.93,0.204,4.126L186.615,198.103z"/>
			<path fill="#23809B" d="M186.615,242.431l-16.578-16.402c-1.147-1.135-1.156-2.985-0.022-4.132
				c1.137-1.148,2.986-1.155,4.132-0.022l12.236,12.107l19.417-21.449c1.082-1.195,2.93-1.29,4.126-0.205
				c1.195,1.083,1.287,2.93,0.204,4.126L186.615,242.431z"/>
			<path fill="#23809B" d="M186.615,285.708l-16.578-16.402c-1.147-1.136-1.156-2.985-0.022-4.132
				c1.137-1.148,2.986-1.154,4.132-0.022l12.236,12.108l19.417-21.449c1.082-1.195,2.93-1.29,4.126-0.205
				c1.195,1.083,1.287,2.931,0.204,4.127L186.615,285.708z"/>
			<g>
				<path fill="#ABD5E6" d="M206.574,337.436h-34.797v-34.797h34.797V337.436z M172.828,336.385h32.696v-32.695h-32.696V336.385z"/>
			</g>
			<g>
				<path fill="#ABD5E6" d="M206.574,381.433h-34.797v-34.797h34.797V381.433z M172.828,380.382h32.696v-32.696h-32.696V380.382z"/>
			</g>
			<g>
				<rect x="216.966" y="177.992" fill="#23809B" width="127.076" height="3.465"/>
				<rect x="216.966" y="186.314" fill="#23809B" width="127.076" height="3.465"/>
				<rect x="216.966" y="194.637" fill="#23809B" width="39.286" height="3.465"/>
			</g>
			<g>
				<rect x="216.966" y="221.435" fill="#23809B" width="127.076" height="3.466"/>
				<rect x="216.966" y="229.758" fill="#23809B" width="127.076" height="3.465"/>
				<rect x="216.966" y="238.081" fill="#23809B" width="83.036" height="3.465"/>
			</g>
			<g>
				<rect x="216.966" y="264.878" fill="#23809B" width="127.076" height="3.466"/>
				<rect x="216.966" y="273.201" fill="#23809B" width="108.691" height="3.465"/>
			</g>
			<g>
				<rect x="216.966" y="308.321" fill="#23809B" width="127.076" height="3.465"/>
				<rect x="216.966" y="316.644" fill="#23809B" width="64.042" height="3.466"/>
			</g>
			<g>
				<rect x="216.966" y="351.765" fill="#23809B" width="127.076" height="3.465"/>
				<rect x="216.966" y="360.087" fill="#23809B" width="127.076" height="3.466"/>
			</g>
			<rect x="198.534" y="142.645" fill="#23809B" width="120.815" height="8.563"/>
			<circle fill="#FFFFFF" cx="258.766" cy="97.987" r="3.439"/>
		</g>
		<g>
			<circle fill="#FFCE68" cx="71.233" cy="345.103" r="5.243"/>
			<circle fill="#FFCE68" cx="437.581" cy="47.339" r="5.039"/>
			<circle fill="#215B74" cx="440.585" cy="233.223" r="3.004"/>
			<circle fill="#E15C56" cx="45.275" cy="211.572" r="3.517"/>
		</g>
	</g>
	<g>
		<circle fill="#E84849" cx="370.024" cy="340.058" r="21.065"/>
		<path fill="#FFFFFF" d="M369.188,340.786l-0.42-6.292c-0.079-1.227-0.117-2.106-0.117-2.641c0-0.727,0.19-1.293,0.57-1.7
			c0.381-0.409,0.883-0.612,1.504-0.612c0.753,0,1.258,0.261,1.511,0.781c0.254,0.521,0.381,1.273,0.381,2.254
			c0,0.577-0.03,1.165-0.091,1.759l-0.565,6.476c-0.061,0.771-0.192,1.362-0.395,1.774c-0.201,0.411-0.535,0.617-0.999,0.617
			c-0.473,0-0.801-0.198-0.985-0.597C369.397,342.207,369.266,341.6,369.188,340.786z M370.645,349.429
			c-0.534,0-1.001-0.173-1.398-0.519c-0.399-0.346-0.597-0.829-0.597-1.45c0-0.544,0.19-1.006,0.57-1.387
			c0.381-0.381,0.848-0.571,1.399-0.571c0.552,0,1.022,0.19,1.412,0.571c0.389,0.381,0.584,0.843,0.584,1.387
			c0,0.612-0.197,1.094-0.591,1.444C371.63,349.253,371.171,349.429,370.645,349.429z"/>
	</g>
	<g>
		<circle fill="none" stroke="#345BB6" stroke-width="0.9175" stroke-miterlimit="10" cx="71.233" cy="103.057" r="4.927"/>
		<circle fill="none" stroke="#345BB6" stroke-width="0.9175" stroke-miterlimit="10" cx="470.858" cy="457" r="5.871"/>
		<circle fill="none" stroke="#345BB6" stroke-width="0.9175" stroke-miterlimit="10" cx="342.399" cy="386.623" r="6.973"/>
		<g>
			
				<line fill="none" stroke="#345BB6" stroke-width="0.9175" stroke-miterlimit="10" x1="91.441" y1="282.087" x2="97.554" y2="290.153"/>
			
				<line fill="none" stroke="#345BB6" stroke-width="0.9175" stroke-miterlimit="10" x1="97.723" y1="282.221" x2="91.272" y2="290.021"/>
		</g>
		<g>
			
				<line fill="none" stroke="#345BB6" stroke-width="0.9175" stroke-miterlimit="10" x1="134.604" y1="76.233" x2="141.66" y2="85.542"/>
			
				<line fill="none" stroke="#345BB6" stroke-width="0.9175" stroke-miterlimit="10" x1="141.854" y1="76.386" x2="134.41" y2="85.388"/>
		</g>
		<g>
			
				<line fill="none" stroke="#345BB6" stroke-width="0.9175" stroke-miterlimit="10" x1="403.197" y1="299.467" x2="410.186" y2="308.687"/>
			
				<line fill="none" stroke="#345BB6" stroke-width="0.9175" stroke-miterlimit="10" x1="410.378" y1="299.618" x2="403.005" y2="308.533"/>
		</g>
	</g>
</g>
<g id="DESIGNED_BY_FREEPIK">
	<g>
		<g>
			<polygon fill="none" stroke="#F4D0D3" stroke-width="1.1302" stroke-miterlimit="10" points="88.464,399.521 76.099,416.007 
				93.959,426.998 106.667,410.512 			"/>
		</g>
		<g>
			<g>
				<polygon fill="none" stroke="#353E9B" stroke-width="1.1302" stroke-miterlimit="10" points="449.975,123.971 460.083,113.805 
					464.987,127.657 				"/>
			</g>
		</g>
		<polygon fill="none" stroke="#F4D0D3" stroke-width="1.1302" stroke-miterlimit="10" points="294.871,33.6 282.506,50.086 
			300.366,61.077 313.074,44.591 		"/>
	</g>
</g>
</svg>
