<?xml version="1.0" encoding="utf-8"?>
<!-- Generator: Adobe Illustrator 16.0.2, SVG Export Plug-In . SVG Version: 6.00 Build 0)  -->
<!DOCTYPE svg PUBLIC "-//W3C//DTD SVG 1.1//EN" "http://www.w3.org/Graphics/SVG/1.1/DTD/svg11.dtd">
<svg version="1.1" id="Capa_1" xmlns="http://www.w3.org/2000/svg" xmlns:xlink="http://www.w3.org/1999/xlink" x="0px" y="0px"
	 width="612px" height="792px" viewBox="0 0 612 792" enable-background="new 0 0 612 792" xml:space="preserve">
<g>
	<path fill="#FFFFFF" d="M0,644.626h612v-497.25H0V644.626z M19.125,166.5h573.75v459H19.125V166.5z"/>
	<polygon fill="#FFFFFF" points="179.246,293.563 179.246,406.299 276.879,349.93 	"/>
	<rect x="95.574" y="512.431" fill="#FFFFFF" width="420.75" height="19.126"/>
	<rect x="95.481" y="550.681" fill="#FFFFFF" width="420.75" height="19.126"/>
	<rect x="377.817" y="240.976" fill="#FFFFFF" width="138.507" height="57.327"/>
	<rect x="377.817" y="401.363" fill="#FFFFFF" width="138.507" height="57.327"/>
	<rect x="377.817" y="321.267" fill="#FFFFFF" width="138.507" height="57.327"/>
	<path fill="#FFFFFF" d="M132.873,466.226h173.133c20.582,0,37.335-16.753,37.335-37.335V270.772
		c0-20.582-16.753-37.334-37.335-37.334H132.873c-20.601,0-37.353,16.752-37.353,37.334V428.89
		C95.518,449.472,112.272,466.226,132.873,466.226z M114.644,270.772c0-10.048,8.181-18.21,18.229-18.21h173.133
		c10.049,0,18.211,8.162,18.211,18.21V428.89c0,10.049-8.162,18.21-18.211,18.21H132.873c-10.048,0-18.229-8.161-18.229-18.21
		V270.772z"/>
</g>
</svg>
