<?xml version="1.0" encoding="utf-8"?>
<!-- Generator: Adobe Illustrator 16.0.2, SVG Export Plug-In . SVG Version: 6.00 Build 0)  -->
<!DOCTYPE svg PUBLIC "-//W3C//DTD SVG 1.1//EN" "http://www.w3.org/Graphics/SVG/1.1/DTD/svg11.dtd">
<svg version="1.1" id="Layer_1" xmlns="http://www.w3.org/2000/svg" xmlns:xlink="http://www.w3.org/1999/xlink" x="0px" y="0px"
	 width="512px" height="512px" viewBox="0 0 512 512" enable-background="new 0 0 512 512" xml:space="preserve">
<g>
	<g transform="translate(0.000000,512.000000) scale(0.100000,-0.100000)">
		<path fill="#A2A5B9" d="M562.28,5059.023c-11.777-3.945-30.361-20.586-42.139-35.278l-20.581-26.47V2559.028V119.805
			l28.413-31.387l28.418-32.354l1261.26-2.92l1261.265-1.943l-46.084,50.947c-25.498,28.408-66.66,79.355-90.156,112.686
			l-44.092,61.748H1811.762H724.941V2560v2283.418H1866.65h1141.709V4471.04c0-314.575,1.943-378.267,14.688-409.653
			c21.563-49.971,50.947-79.355,107.783-105.83c48.994-23.501,50.947-23.501,419.434-23.501h369.453V2776.577V1621.152
			l51.914-17.617c27.451-8.809,76.445-29.395,106.807-44.082c31.387-15.664,58.779-28.418,61.748-28.418
			c2.92,0,4.912,570.371,4.912,1267.148v1268.12l-495.82,500.737l-495.869,501.758l-1284.761-0.972
			C1161.064,5067.827,573.032,5063.886,562.28,5059.023z M3503.261,4421.992l264.599-264.604h-267.519h-266.553v264.604
			c0,146.021,0.977,264.6,2.92,264.6C3237.685,4686.591,3358.203,4568.012,3503.261,4421.992z"/>
		<path fill="#A2A5B9" d="M1185.537,4044.697v-112.69h681.113h681.113v112.69v112.69H1866.65h-681.113V4044.697z"/>
		<path fill="#A2A5B9" d="M1185.537,3133.286v-112.69h1136.792h1136.792v112.69v112.69H2322.329H1185.537V3133.286z"/>
		<path fill="#A2A5B9" d="M1185.537,2217.011v-117.607h1136.792h1136.792v117.607v117.607H2322.329H1185.537V2217.011z"/>
		<path fill="#A2A5B9" d="M1185.537,1305.605v-117.617h855.552h855.552l46.074,66.67c24.473,36.24,64.668,85.244,89.199,109.775
			c25.488,23.496,45.049,47.051,45.049,50.938s-425.313,7.832-945.713,7.832h-945.713V1305.605z"/>
	</g>
</g>
<g>
	<path fill="#A2A5B9" d="M385.555,364.16c-39.071,0-70.858,31.786-70.858,70.857s31.787,70.858,70.858,70.858
		c39.07,0,70.857-31.787,70.857-70.858S424.624,364.16,385.555,364.16z M385.555,493.729c-32.373,0-58.711-26.339-58.711-58.711
		s26.338-58.71,58.711-58.71c32.372,0,58.71,26.338,58.71,58.71S417.926,493.729,385.555,493.729z"/>
	<path fill="#A2A5B9" d="M412.972,406.604c-2.372-2.372-6.22-2.372-8.588,0l-18.829,18.832l-18.83-18.832
		c-2.372-2.372-6.216-2.372-8.588,0c-2.373,2.372-2.373,6.215,0,8.588l18.829,18.831l-18.829,18.833
		c-2.373,2.372-2.373,6.215,0,8.587c1.185,1.187,2.739,1.779,4.294,1.779s3.11-0.593,4.294-1.779l18.83-18.831l18.829,18.831
		c1.186,1.187,2.74,1.779,4.294,1.779c1.555,0,3.108-0.593,4.295-1.779c2.373-2.372,2.373-6.215,0-8.587l-18.831-18.832
		l18.83-18.831C415.344,412.82,415.344,408.976,412.972,406.604z"/>
</g>
</svg>
