<?xml version="1.0" encoding="utf-8"?>
<!-- Generator: Adobe Illustrator 16.0.2, SVG Export Plug-In . SVG Version: 6.00 Build 0)  -->
<!DOCTYPE svg PUBLIC "-//W3C//DTD SVG 1.1//EN" "http://www.w3.org/Graphics/SVG/1.1/DTD/svg11.dtd">
<svg version="1.1" id="Layer_1" xmlns="http://www.w3.org/2000/svg" xmlns:xlink="http://www.w3.org/1999/xlink" x="0px" y="0px"
	 width="60px" height="60px" viewBox="0 0 60 60" enable-background="new 0 0 60 60" xml:space="preserve">
<g>
	<g>
		<g>
			<path fill="#345194" d="M48.639,17.82c0.643,0,1.161-0.52,1.161-1.16V4.046c0-1.919-1.562-3.48-3.48-3.48H4.099
				c-1.919,0-3.48,1.561-3.48,3.48v52.428c0,1.92,1.561,3.481,3.48,3.481h42.221c1.919,0,3.48-1.562,3.48-3.481V47.93
				c0-0.643-0.519-1.16-1.161-1.16c-0.639,0-1.159,0.518-1.159,1.16v8.544c0,0.639-0.521,1.16-1.16,1.16H4.099
				c-0.64,0-1.16-0.521-1.16-1.16V4.046c0-0.64,0.521-1.16,1.16-1.16h42.221c0.639,0,1.16,0.521,1.16,1.16V16.66
				C47.479,17.3,48,17.82,48.639,17.82z"/>
		</g>
	</g>
	<g>
		<g>
			<path fill="#345194" d="M25.209,6.83c-5.884,0-10.671,4.787-10.671,10.671c0,3.052,1.289,5.81,3.35,7.756
				c0.039,0.041,0.08,0.081,0.125,0.116c1.899,1.737,4.427,2.799,7.197,2.799c2.771,0,5.298-1.062,7.195-2.799
				c0.047-0.035,0.088-0.075,0.127-0.116c2.061-1.947,3.35-4.704,3.35-7.756C35.881,11.617,31.093,6.83,25.209,6.83z M25.209,25.853
				c-1.895,0-3.642-0.635-5.044-1.701c1.019-1.809,2.921-2.939,5.044-2.939c2.123,0,4.025,1.13,5.044,2.939
				C28.851,25.217,27.103,25.853,25.209,25.853z M23.353,17.037v-0.754c0-1.023,0.833-1.856,1.856-1.856
				c1.023,0,1.855,0.833,1.855,1.856v0.754c0,1.023-0.832,1.855-1.855,1.855C24.186,18.893,23.353,18.06,23.353,17.037z
				 M31.93,22.452c-0.854-1.269-2.041-2.256-3.418-2.865c0.547-0.706,0.873-1.591,0.873-2.55v-0.754
				c0-2.302-1.874-4.176-4.176-4.176c-2.303,0-4.176,1.874-4.176,4.176v0.754c0,0.959,0.327,1.844,0.873,2.55
				c-1.376,0.609-2.562,1.596-3.417,2.865c-1.024-1.387-1.631-3.099-1.631-4.951c0-4.605,3.747-8.352,8.352-8.352
				c4.605,0,8.352,3.746,8.352,8.352C33.561,19.353,32.954,21.065,31.93,22.452z"/>
		</g>
	</g>
	<g>
		<g>
			<path fill="#345194" d="M31.473,51.372h-6.264c-0.641,0-1.16,0.517-1.16,1.159c0,0.639,0.519,1.159,1.16,1.159h6.264
				c0.642,0,1.16-0.521,1.16-1.159C32.633,51.889,32.114,51.372,31.473,51.372z"/>
		</g>
	</g>
	<g>
		<g>
			<path fill="#345194" d="M31.473,44.875H15.002c-0.641,0-1.16,0.518-1.16,1.16c0,0.642,0.519,1.159,1.16,1.159h16.471
				c0.642,0,1.16-0.518,1.16-1.159C32.633,45.393,32.114,44.875,31.473,44.875z"/>
		</g>
	</g>
	<g>
		<g>
			<path fill="#345194" d="M31.473,38.379H15.002c-0.641,0-1.16,0.52-1.16,1.16c0,0.642,0.519,1.159,1.16,1.159h16.471
				c0.642,0,1.16-0.518,1.16-1.159C32.633,38.898,32.114,38.379,31.473,38.379z"/>
		</g>
	</g>
	<g>
		<g>
			<path fill="#345194" d="M10.867,32.224c-0.215-0.216-0.515-0.341-0.821-0.341c-0.305,0-0.604,0.125-0.82,0.341
				c-0.216,0.216-0.34,0.516-0.34,0.82s0.125,0.604,0.34,0.82c0.217,0.216,0.515,0.339,0.82,0.339c0.306,0,0.604-0.123,0.821-0.339
				c0.216-0.216,0.34-0.516,0.34-0.82S11.083,32.439,10.867,32.224z"/>
		</g>
	</g>
	<g>
		<g>
			<path fill="#345194" d="M10.867,38.72c-0.216-0.217-0.515-0.341-0.821-0.341c-0.305,0-0.603,0.124-0.82,0.341
				c-0.216,0.216-0.34,0.516-0.34,0.819c0,0.305,0.125,0.605,0.34,0.82c0.217,0.216,0.515,0.339,0.82,0.339
				c0.306,0,0.604-0.123,0.821-0.339c0.216-0.215,0.34-0.516,0.34-0.82C11.208,39.235,11.083,38.936,10.867,38.72z"/>
		</g>
	</g>
	<g>
		<g>
			<path fill="#345194" d="M10.867,45.216c-0.216-0.217-0.515-0.341-0.821-0.341c-0.305,0-0.603,0.124-0.82,0.341
				c-0.216,0.214-0.34,0.516-0.34,0.819s0.125,0.604,0.34,0.819c0.215,0.217,0.515,0.34,0.82,0.34c0.306,0,0.606-0.123,0.821-0.34
				c0.216-0.216,0.34-0.516,0.34-0.819S11.083,45.43,10.867,45.216z"/>
		</g>
	</g>
	<g>
		<g>
			<path fill="#345194" d="M31.473,31.883H15.002c-0.641,0-1.16,0.521-1.16,1.161c0,0.64,0.519,1.159,1.16,1.159h16.471
				c0.642,0,1.16-0.52,1.16-1.159C32.633,32.403,32.114,31.883,31.473,31.883z"/>
		</g>
	</g>
	<g>
		<g>
			<path fill="#345194" d="M57.569,15.682c-1.125-0.651-2.439-0.824-3.695-0.487c-1.257,0.337-2.308,1.143-2.958,2.27L36.318,42.747
				c-0.079,0.14-0.131,0.292-0.147,0.451l-1.027,9.204c-0.051,0.456,0.173,0.902,0.573,1.134c0.18,0.104,0.379,0.154,0.579,0.154
				c0.242,0,0.484-0.077,0.688-0.226l7.457-5.492c0.128-0.095,0.236-0.216,0.316-0.353l14.597-25.283
				C60.695,20.011,59.897,17.026,57.569,15.682z M37.743,50.023l0.537-4.806l3.356,1.938L37.743,50.023z M43.327,45.455
				l-4.419-2.553L50.62,22.615l4.421,2.552L43.327,45.455z M57.344,21.177l-1.142,1.98l-4.421-2.552l1.144-1.98
				c0.341-0.59,0.891-1.013,1.549-1.189c0.659-0.176,1.347-0.086,1.937,0.255c0.591,0.34,1.014,0.89,1.188,1.549
				C57.776,19.898,57.686,20.587,57.344,21.177z"/>
		</g>
	</g>
</g>
</svg>
