<?xml version="1.0" encoding="utf-8"?>
<!-- Generator: Adobe Illustrator 16.0.2, SVG Export Plug-In . SVG Version: 6.00 Build 0)  -->
<!DOCTYPE svg PUBLIC "-//W3C//DTD SVG 1.1//EN" "http://www.w3.org/Graphics/SVG/1.1/DTD/svg11.dtd">
<svg version="1.1" id="Layer_1" xmlns="http://www.w3.org/2000/svg" xmlns:xlink="http://www.w3.org/1999/xlink" x="0px" y="0px"
	 width="500px" height="500px" viewBox="0 0 500 500" enable-background="new 0 0 500 500" xml:space="preserve">
<path fill="#FFFFFF" d="M383.156,151.812H120.434c-10.043,0-17.859-7.897-17.859-17.866V49.827c0-11.399,9.244-20.638,20.655-20.638
	h256.662c11.312,0,20.724,9.238,20.724,20.638v84.119C400.863,143.914,393.028,151.812,383.156,151.812z M123.627,36.276
	c-7.491,0-13.551,6.058-13.551,13.55v84.119c0,6.06,4.619,10.687,10.68,10.687h262.624c6.162,0,10.703-4.627,10.703-10.687V49.827
	c0-7.493-5.975-13.55-13.561-13.55H123.627z"/>
<path fill="#FFFFFF" d="M393.451,358.077c-2.247,0-3.686-1.438-3.686-3.517c0-2.07,1.438-3.51,3.686-3.51
	c10.681,0,29.156-20.31,42.718-58.105c29.993-84.523,1.827-145.841-34.508-175.018c-1.438-1.036-1.853-3.595-0.798-5.024
	c1.022-1.439,3.655-1.757,5.093-0.717c26.948,21.759,43.138,51.745,47.672,88.737c3.9,29.665,0,63.125-11.065,94.093
	C429.807,332.173,409.472,358.077,393.451,358.077L393.451,358.077z M110.391,358.077c-16.036,0-36.36-25.678-49.198-62.674
	c-10.996-31.017-14.913-64.499-10.996-94.077c4.619-37.082,20.638-66.975,47.76-88.738c1.434-1.125,3.897-1.125,4.935,0.715
	c1.125,1.428,1.125,3.903-0.634,4.942c-36.042,29.26-64.181,90.176-34.602,175.086c13.155,37.797,31.734,57.964,42.734,57.964
	c2.144,0,3.583,1.439,3.583,3.682C113.974,357.033,112.219,358.077,110.391,358.077L110.391,358.077z"/>
<path fill="#FFFFFF" d="M397.738,239.442V500H106.475V239.442c0-9.574,7.9-17.073,17.152-17.073h256.651
	C389.766,221.971,397.351,229.869,397.738,239.442z"/>
<path fill="#FFFFFF" d="M147.459,196.706h60.998c5.656,0,9.973,4.621,9.973,9.959v15.705h-80.937v-15.705
	C137.494,200.924,141.798,196.706,147.459,196.706L147.459,196.706z M366.33,221.971h-80.939v-15.621
	c0-5.745,4.71-10.048,10.05-10.048h60.841c5.729,0,10.049,4.621,10.049,10.048V221.971z"/>
<path fill="#FFFFFF" d="M147.459,7.094h60.998c5.656,0,9.973,4.632,9.973,9.975v15.704h-80.937V17.069
	C137.494,11.726,141.798,7.094,147.459,7.094L147.459,7.094z"/>
<path fill="#FFFFFF" d="M218.431,36.276h-80.937c-2.154,0-3.584-1.432-3.584-3.503V17.069c0-7.5,6.06-13.561,13.55-13.561h60.998
	c7.499,0,13.556,6.061,13.556,13.561v15.704C222.014,34.845,220.174,36.276,218.431,36.276z M141.09,29.189h73.742v-12.12
	c0-3.599-2.863-6.462-6.375-6.462h-60.998c-3.502,0-6.37,2.863-6.37,6.462V29.189L141.09,29.189z"/>
<path fill="#FFFFFF" d="M366.33,32.773h-80.939V17.069c0-5.744,4.71-9.975,10.05-9.975h60.841c5.729,0,10.049,4.632,10.049,9.975
	V32.773z"/>
<path fill="#FFFFFF" d="M366.33,36.276h-80.939c-2.071,0-3.489-1.432-3.489-3.503V17.069c0-7.5,5.959-13.561,13.539-13.561h60.841
	c7.59,0,13.562,6.061,13.562,13.561v15.704C369.843,34.529,368.402,36.276,366.33,36.276z M288.906,29.189h73.913v-12.12
	c0-3.599-2.858-6.462-6.538-6.462H295.44c-3.656,0-6.534,2.863-6.534,6.462V29.189z"/>
<path fill="#FFFFFF" d="M396.935,105.087c5.759,0,10.453,4.616,10.453,10.365c0,5.661-4.694,10.293-10.453,10.293
	c-5.732,0-10.262-4.632-10.262-10.293C386.673,109.703,391.202,105.087,396.935,105.087z"/>
<path fill="#FFFFFF" d="M103.296,105.087c5.659,0,10.362,4.616,10.362,10.365c0,5.661-4.704,10.293-10.362,10.293
	c-5.748,0-10.364-4.632-10.364-10.293C92.933,109.703,97.548,105.087,103.296,105.087z"/>
<path d="M197.777,249.403c6.082,0,10.996,5.001,10.996,11.081c0,6.145-4.914,11.089-10.996,11.089
	c-6.169,0-11.083-4.944-11.083-11.089C186.694,254.404,191.607,249.403,197.777,249.403z"/>
<g>
	<path d="M295.201,258.736c0.974-6.025,6.686-10.132,12.814-9.16c5.955,0.973,9.975,6.619,9,12.659
		c-0.976,6.026-6.545,10.209-12.653,9.23C298.42,270.347,294.228,264.776,295.201,258.736z"/>
</g>
<g>
	<path d="M252.323,277.558c5.563,0,10.268,4.708,10.268,10.436v9.237c0,5.586-4.704,10.292-10.268,10.292
		c-5.751,0-10.437-4.706-10.437-10.292v-9.237C241.887,282.266,246.572,277.558,252.323,277.558z"/>
</g>
</svg>
