<?xml version="1.0" encoding="utf-8"?>
<!-- Generator: Adobe Illustrator 16.0.2, SVG Export Plug-In . SVG Version: 6.00 Build 0)  -->
<!DOCTYPE svg PUBLIC "-//W3C//DTD SVG 1.1//EN" "http://www.w3.org/Graphics/SVG/1.1/DTD/svg11.dtd">
<svg version="1.1" id="Layer_1" xmlns="http://www.w3.org/2000/svg" xmlns:xlink="http://www.w3.org/1999/xlink" x="0px" y="0px"
	 width="512px" height="512px" viewBox="0 0 512 512" enable-background="new 0 0 512 512" xml:space="preserve">
<g>
	<g>
		<g>
			<path fill="#FFFFFF" d="M436.165,75.833C387.907,27.577,323.746,1,255.5,1C187.252,1,123.091,27.577,74.833,75.833
				C26.577,124.091,0,188.253,0,256.5c0,68.245,26.577,132.407,74.833,180.664C123.091,485.423,187.253,512,255.5,512
				c68.246,0,132.407-26.577,180.665-74.834C484.423,388.907,511,324.745,511,256.5C511,188.253,484.423,124.092,436.165,75.833z
				 M377.567,195.692L234.782,338.479c-2.923,2.922-6.755,4.384-10.585,4.384c-3.832,0-7.663-1.462-10.586-4.384l-80.177-80.177
				c-5.847-5.845-5.847-15.324,0-21.171c5.845-5.846,15.325-5.846,21.171,0l69.592,69.591L356.396,174.52
				c5.846-5.847,15.325-5.847,21.172,0C383.414,180.367,383.414,189.845,377.567,195.692z"/>
		</g>
	</g>
	<path fill="#4CAE4F" d="M376.73,174.103c-5.846-5.845-15.325-5.845-21.171,0l-132.2,132.2l-69.591-69.591
		c-5.846-5.845-15.325-5.845-21.171,0c-5.846,5.846-5.846,15.325,0,21.171l80.176,80.177c2.923,2.924,6.755,4.385,10.585,4.385
		c3.831,0,7.664-1.463,10.586-4.385L376.73,195.273C382.577,189.428,382.577,179.949,376.73,174.103z"/>
</g>
</svg>
