<?xml version="1.0" encoding="utf-8"?>
<!-- Generator: Adobe Illustrator 16.0.2, SVG Export Plug-In . SVG Version: 6.00 Build 0)  -->
<!DOCTYPE svg PUBLIC "-//W3C//DTD SVG 1.1//EN" "http://www.w3.org/Graphics/SVG/1.1/DTD/svg11.dtd">
<svg version="1.1" id="Layer_1" xmlns="http://www.w3.org/2000/svg" xmlns:xlink="http://www.w3.org/1999/xlink" x="0px" y="0px"
	 width="60px" height="60px" viewBox="0 0 60 60" enable-background="new 0 0 60 60" xml:space="preserve">
<g>
	<path fill="#FFFFFF" d="M3.408,57.148c0.103,0.591,0.664,0.984,1.253,0.88l8.837-1.546c0.589-0.104,0.982-0.662,0.879-1.253
		l-0.172-0.986l2.061-1.673c0.807-0.672,1.846-1.003,2.893-0.925l14.41,1.052c0.026,0.003,0.049,0.003,0.074,0.003h0.088
		c3.18-0.006,6.276-1.019,8.843-2.893c0.043-0.031,0.082-0.064,0.119-0.101l17.164-16.806c0.409-0.401,0.436-1.052,0.061-1.484
		c-1.981-2.286-5.409-2.612-7.784-0.742l-7.884,5.896c-1.64-1.996-4.225-2.956-6.77-2.513l-8.059,1.41
		c-1.284,0.222-2.601,0.154-3.855-0.2l-0.901-0.258c-4.631-1.33-9.621-0.294-13.34,2.769l-0.339-1.94
		c-0.104-0.59-0.664-0.982-1.252-0.879l-8.836,1.546c-0.589,0.104-0.983,0.664-0.88,1.254L3.408,57.148z M24.073,37.094l0.901,0.257
		c1.568,0.444,3.215,0.529,4.821,0.25l8.058-1.409c2.311-0.399,4.589,0.854,5.485,3.019l-12.064,2.108
		c-0.554,0.098-0.942,0.602-0.893,1.161c0.048,0.561,0.516,0.989,1.078,0.989c0.063,0,0.126-0.005,0.188-0.017l13.247-2.317
		c0.588-0.102,0.982-0.664,0.88-1.251c-0.088-0.494-0.224-0.978-0.412-1.442l8.079-6.04c0.007-0.007,0.015-0.013,0.023-0.019
		c1.165-0.922,2.789-1.008,4.046-0.213L41.233,48.111c-2.184,1.576-4.808,2.429-7.502,2.437h-0.042l-14.374-1.056
		c-1.601-0.121-3.187,0.384-4.423,1.408l-1.116,0.904l-2.012-11.502C14.974,37.064,19.692,35.835,24.073,37.094z M9.04,37.279
		l3.019,17.259L5.354,55.71l-3.02-17.259L9.04,37.279z"/>
	<path fill="#FFFFFF" d="M32.797,32.395c8.118,0,14.697-6.579,14.697-14.696S40.915,3.001,32.798,3C24.68,3,18.1,9.58,18.1,17.697
		C18.109,25.812,24.684,32.385,32.797,32.395z M32.797,5.165c6.923,0,12.533,5.611,12.533,12.534c0,6.922-5.61,12.534-12.533,12.532
		c-6.922,0-12.533-5.61-12.533-12.533C20.272,10.779,25.879,5.172,32.797,5.165z"/>
	<path fill="#FFFFFF" d="M32.04,19.97h6.057c0.598,0,1.081-0.484,1.081-1.082c0-0.598-0.483-1.083-1.081-1.083h-5.029v-6.919
		c0-0.598-0.485-1.082-1.083-1.082c-0.597,0-1.081,0.484-1.081,1.082v7.948C30.925,19.453,31.421,19.949,32.04,19.97z"/>
</g>
</svg>
