<?xml version="1.0" encoding="utf-8"?>
<!-- Generator: Adobe Illustrator 16.0.2, SVG Export Plug-In . SVG Version: 6.00 Build 0)  -->
<!DOCTYPE svg PUBLIC "-//W3C//DTD SVG 1.1//EN" "http://www.w3.org/Graphics/SVG/1.1/DTD/svg11.dtd">
<svg version="1.1" id="Capa_1" xmlns="http://www.w3.org/2000/svg" xmlns:xlink="http://www.w3.org/1999/xlink" x="0px" y="0px"
	 width="612px" height="792px" viewBox="0 0 612 792" enable-background="new 0 0 612 792" xml:space="preserve">
<path fill="#C8A227" d="M602.417,513.545h-61.328V176.242c0-5.644,4.577-10.221,10.222-10.221h40.886
	c5.644,0,10.221,4.577,10.221,10.221V513.545z"/>
<path fill="#FFFFFF" d="M428.656,166.021h-40.886c-5.645,0-10.222,4.577-10.222,10.221v327.082c0,5.645,4.577,10.222,10.222,10.222
	h51.106V176.242C438.877,170.598,434.3,166.021,428.656,166.021z"/>
<path fill="#C8A227" d="M214.009,513.545h-61.328V176.242c0-5.644,4.577-10.221,10.221-10.221h40.886
	c5.645,0,10.221,4.577,10.221,10.221V513.545z"/>
<path fill="#FFFFFF" d="M70.911,513.545H9.583V176.242c0-5.644,4.577-10.221,10.221-10.221h40.886
	c5.645,0,10.221,4.577,10.221,10.221V513.545z"/>
<path fill="#7795DB" d="M541.089,513.545H438.877V155.8c0-5.645,4.577-10.221,10.221-10.221h81.771
	c5.645,0,10.221,4.577,10.221,10.221V513.545L541.089,513.545z"/>
<path fill="#C8A227" d="M152.681,513.545h-81.77V135.357c0-5.645,4.577-10.221,10.221-10.221h61.328
	c5.644,0,10.221,4.577,10.221,10.221V513.545z"/>
<path fill="#7795DB" d="M367.328,145.579h-81.771c-5.644,0-10.221,4.577-10.221,10.221v357.745h102.212V155.8
	C377.549,150.155,372.973,145.579,367.328,145.579z"/>
<path fill="#000000" d="M377.549,431.054l-29.424-29.424c-5.866-5.865-13.709-8.981-21.689-8.981
	c-6.861,0-13.823,2.303-19.717,7.142c-7.267,5.966-10.941,15.303-10.941,24.704v89.051h81.77L377.549,431.054L377.549,431.054z"/>
<path fill="#7795DB" d="M387.771,512.545h51.106v-21.163l-61.328-61.328v72.27C377.549,507.968,382.126,512.545,387.771,512.545z"/>
<polygon fill="#ABFFDB" points="326.442,423.313 326.442,593.194 363.709,568.771 404.341,666.864 443.577,650.611 402.946,552.518 
	446.775,543.645 "/>
<path fill="#FFFFFF" d="M214.009,513.545h61.328V135.357c0-5.645-4.577-10.221-10.221-10.221H224.23
	c-5.645,0-10.221,4.577-10.221,10.221V513.545z"/>
<g>
	<path fill="#7795DB" d="M265.114,125.136h-40.886c-5.644,0-10.221,4.577-10.221,10.221V155.8h61.328v-20.442
		C275.336,129.712,270.76,125.136,265.114,125.136z"/>
	<rect x="214.009" y="482.881" fill="#7795DB" width="61.328" height="30.664"/>
</g>
<g>
	<path fill="#F9A56B" d="M592.196,166.021h-40.886c-5.645,0-10.222,4.577-10.222,10.221v20.442h61.328v-20.442
		C602.417,170.598,597.842,166.021,592.196,166.021z"/>
	<rect x="541.089" y="482.881" fill="#F9A56B" width="61.328" height="30.664"/>
</g>
<g>
	<path fill="#000000" d="M326.442,340.421c-5.292,0-9.583,4.29-9.583,9.583v30.664c0,5.292,4.29,9.583,9.583,9.583
		c5.292,0,9.583-4.29,9.583-9.583v-30.664C336.025,344.711,331.735,340.421,326.442,340.421z"/>
	<path fill="#000000" d="M326.442,217.766c-5.292,0-9.583,4.29-9.583,9.583v81.77c0,5.292,4.29,9.583,9.583,9.583
		c5.292,0,9.583-4.29,9.583-9.583v-81.77C336.025,222.057,331.735,217.766,326.442,217.766z"/>
</g>
<path fill="#FFFFFF" d="M111.795,258.651c-5.292,0-9.583,4.29-9.583,9.583V390.89c0,5.292,4.29,9.583,9.583,9.583
	c5.292,0,9.583-4.29,9.583-9.583V268.234C121.378,262.941,117.088,258.651,111.795,258.651z"/>
<path fill="#000000" d="M489.983,319.979c-5.291,0-9.583,4.29-9.583,9.583v61.328c0,5.292,4.29,9.583,9.583,9.583
	c5.292,0,9.583-4.29,9.583-9.583v-61.328C499.565,324.268,495.275,319.979,489.983,319.979z"/>
<path fill="#7795DB" d="M80.492,208.184c0-5.292-4.29-9.583-9.583-9.583H9.583c-5.293,0-9.583,4.29-9.583,9.583
	c0,5.292,4.29,9.583,9.583,9.583h61.328C76.204,217.766,80.492,213.476,80.492,208.184z"/>
<g>
	<path fill="#F9A56B" d="M215.925,200.518c0-5.292-3.472-9.583-7.756-9.583h-49.646c-4.284,0-7.756,4.29-7.756,9.583
		c0,5.292,3.472,9.583,7.756,9.583h49.646C212.451,210.1,215.925,205.81,215.925,200.518z"/>
	<path fill="#F9A56B" d="M215.925,451.857c0-5.292-3.472-9.583-7.756-9.583h-49.646c-4.284,0-7.756,4.29-7.756,9.583
		c0,5.291,3.472,9.582,7.756,9.582h49.646C212.453,461.439,215.925,457.148,215.925,451.857z"/>
</g>
<g>
	<path fill="#7795DB" d="M442.71,206.267c0-5.292-3.472-9.583-7.756-9.583h-49.646c-4.284,0-7.756,4.29-7.756,9.583
		c0,5.292,3.472,9.583,7.756,9.583h49.646C439.236,215.85,442.71,211.56,442.71,206.267z"/>
	<path fill="#7795DB" d="M442.71,457.606c0-5.292-3.472-9.583-7.756-9.583h-49.646c-4.284,0-7.756,4.29-7.756,9.583
		c0,5.292,3.472,9.583,7.756,9.583h49.646C439.236,467.189,442.71,462.898,442.71,457.606z"/>
</g>
<g>
	<path fill="#F9A56B" d="M159.068,181.353c0-5.292-5.106-9.583-11.407-9.583H74.653c-6.301,0-11.407,4.29-11.407,9.583
		s5.106,9.583,11.407,9.583h73.008C153.962,190.936,159.068,186.645,159.068,181.353z"/>
	<path fill="#F9A56B" d="M159.068,222.237c0-5.292-5.106-9.583-11.407-9.583H74.653c-6.301,0-11.407,4.29-11.407,9.583
		c0,5.292,5.106,9.583,11.407,9.583h73.008C153.962,231.82,159.068,227.53,159.068,222.237z"/>
	<path fill="#F9A56B" d="M159.068,431.415c0-5.292-5.106-9.583-11.407-9.583H74.653c-6.301,0-11.407,4.29-11.407,9.583
		c0,5.291,5.106,9.582,11.407,9.582h73.008C153.962,440.996,159.068,436.706,159.068,431.415z"/>
	<path fill="#F9A56B" d="M159.068,472.299c0-5.291-5.106-9.582-11.407-9.582H74.653c-6.301,0-11.407,4.289-11.407,9.582
		c0,5.292,5.106,9.583,11.407,9.583h73.008C153.962,481.882,159.068,477.592,159.068,472.299z"/>
</g>
<g>
	<path fill="#000000" d="M541.089,185.366c0-5.292-5.448-9.583-12.168-9.583h-77.876c-6.72,0-12.168,4.29-12.168,9.583
		c0,5.292,5.448,9.583,12.168,9.583h77.876C535.643,194.948,541.089,190.658,541.089,185.366z"/>
	<path fill="#000000" d="M380.956,190.936c0-5.292-5.448-9.583-12.169-9.583h-77.875c-6.72,0-12.168,4.29-12.168,9.583
		c0,5.292,5.448,9.583,12.168,9.583h77.875C375.508,200.518,380.956,196.228,380.956,190.936z"/>
	<path fill="#000000" d="M329.849,462.896c0-5.292-2.724-9.583-6.084-9.583h-38.938c-3.36,0-6.084,4.29-6.084,9.583
		c0,5.292,2.724,9.583,6.084,9.583h38.938C327.125,472.479,329.849,468.188,329.849,462.896z"/>
	<path fill="#000000" d="M541.089,226.251c0-5.292-5.448-9.583-12.168-9.583h-77.876c-6.72,0-12.168,4.29-12.168,9.583
		c0,5.292,5.448,9.583,12.168,9.583h77.876C535.643,235.834,541.089,231.543,541.089,226.251z"/>
	<path fill="#000000" d="M541.089,431.593c0-5.292-5.448-9.583-12.168-9.583h-77.876c-6.72,0-12.168,4.29-12.168,9.583
		c0,5.292,5.448,9.583,12.168,9.583h77.876C535.643,441.176,541.089,436.887,541.089,431.593z"/>
	<path fill="#000000" d="M541.089,472.479c0-5.292-5.448-9.583-12.168-9.583h-77.876c-6.72,0-12.168,4.29-12.168,9.583
		c0,5.292,5.448,9.583,12.168,9.583h77.876C535.643,482.062,541.089,477.771,541.089,472.479z"/>
</g>
<path fill="#7795DB" d="M80.493,472.299c0-5.291-4.29-9.582-9.583-9.582H9.583c-5.292,0-9.583,4.289-9.583,9.582
	c0,5.292,4.29,9.583,9.583,9.583h61.328C76.204,481.882,80.493,477.592,80.493,472.299z"/>
<path fill="#000000" d="M489.983,258.651c-5.291,0-9.583,4.29-9.583,9.583v20.443c0,5.292,4.29,9.583,9.583,9.583
	c5.292,0,9.583-4.29,9.583-9.583v-20.443C499.565,262.941,495.275,258.651,489.983,258.651z"/>
<path fill="#474D54" d="M592.196,156.438h-40.886c-0.217,0-0.426,0.025-0.639,0.032v-0.67c0-10.92-8.884-19.804-19.804-19.804
	h-81.771c-10.92,0-19.804,8.884-19.804,19.804v0.67c-0.213-0.006-0.423-0.032-0.638-0.032h-40.886c-0.217,0-0.426,0.025-0.639,0.032
	v-0.67c0-10.92-8.884-19.804-19.804-19.804h-81.771c-0.216,0-0.425,0.025-0.638,0.032v-0.67c0-10.92-8.883-19.804-19.804-19.804
	H224.23c-10.92,0-19.804,8.884-19.804,19.804v21.113c-0.214-0.006-0.423-0.032-0.638-0.032h-40.886
	c-0.216,0-0.425,0.025-0.638,0.032v-21.113c0-10.92-8.884-19.804-19.804-19.804H81.132c-10.92,0-19.804,8.884-19.804,19.804v21.113
	c-0.214-0.006-0.423-0.032-0.639-0.032H19.804C8.884,156.438,0,165.321,0,176.242v337.303c0,5.291,4.29,9.582,9.583,9.582H316.86
	v70.067c0,3.521,1.931,6.757,5.027,8.432c3.1,1.674,6.865,1.515,9.808-0.416l27.588-18.081l36.204,87.403
	c0.972,2.349,2.837,4.214,5.187,5.187c1.174,0.485,2.421,0.729,3.667,0.729c1.245,0,2.492-0.242,3.667-0.729l39.237-16.253
	c2.349-0.972,4.214-2.838,5.187-5.187c0.972-2.349,0.972-4.985,0-7.333l-36.179-87.344l32.424-6.563
	c3.461-0.7,6.254-3.247,7.272-6.626c1.02-3.38,0.097-7.046-2.397-9.541l-13.74-13.742H602.42c5.291,0,9.582-4.29,9.582-9.583
	V176.242C612,165.321,603.116,156.438,592.196,156.438z M61.328,503.963H19.165V176.242c0-0.353,0.286-0.638,0.638-0.638h40.886
	c0.353,0,0.638,0.286,0.638,0.638v327.721H61.328z M143.098,503.963H80.492V135.357c0-0.353,0.286-0.638,0.639-0.638h61.328
	c0.353,0,0.638,0.286,0.638,0.638v368.605H143.098z M204.426,503.963h-42.162V176.242c0-0.353,0.286-0.638,0.638-0.638h40.886
	c0.353,0,0.638,0.286,0.638,0.638V503.963z M265.754,503.963h-42.162V135.357c0-0.353,0.286-0.638,0.638-0.638h40.886
	c0.353,0,0.638,0.286,0.638,0.638V503.963z M322.776,414.459c-3.581,1.483-5.916,4.977-5.916,8.853v80.65h-31.941v-21.72v-19.165
	V155.8c0-0.353,0.286-0.639,0.638-0.639h81.771c0.353,0,0.638,0.286,0.638,0.639v295.484l-34.749-34.749
	C330.479,413.797,326.356,412.977,322.776,414.459z M401.044,543.125c-2.806,0.569-5.211,2.362-6.558,4.89
	c-1.346,2.528-1.489,5.525-0.395,8.172l36.966,89.24l-21.531,8.919l-36.966-89.241c-1.092-2.637-3.302-4.649-6.03-5.49
	c-0.925-0.284-1.875-0.426-2.82-0.426c-1.847,0-3.675,0.533-5.254,1.568l-22.431,14.701v-129.01l91.349,91.351L401.044,543.125z
	 M429.294,503.963h-8.65l-21.72-21.721l-11.152-19.165c-0.217,0-0.427,0.019-0.639,0.032V176.242c0-0.353,0.286-0.638,0.639-0.638
	h40.886c0.353,0,0.638,0.286,0.638,0.638L429.294,503.963L429.294,503.963z M531.508,503.963H448.46V155.8
	c0-0.353,0.285-0.639,0.638-0.639h81.771c0.353,0,0.639,0.286,0.639,0.639L531.508,503.963L531.508,503.963z M592.836,503.963
	h-42.163V176.242c0-0.353,0.286-0.638,0.639-0.638h40.886c0.353,0,0.639,0.286,0.639,0.638V503.963L592.836,503.963z"/>
</svg>
