<?xml version="1.0" encoding="utf-8"?>
<!-- Generator: Adobe Illustrator 16.0.2, SVG Export Plug-In . SVG Version: 6.00 Build 0)  -->
<!DOCTYPE svg PUBLIC "-//W3C//DTD SVG 1.1//EN" "http://www.w3.org/Graphics/SVG/1.1/DTD/svg11.dtd">
<svg version="1.1" id="Layer_1" xmlns="http://www.w3.org/2000/svg" xmlns:xlink="http://www.w3.org/1999/xlink" x="0px" y="0px"
	 width="512px" height="512px" viewBox="0 0 512 512" enable-background="new 0 0 512 512" xml:space="preserve">
<path fill="#4CAE4F" d="M201.946,502.644c-11.04-0.135-20.868-3.501-28.811-11.175c-30.426-29.618-60.853-59.103-90.875-88.99
	c-23.964-23.83-47.524-48.198-71.354-72.297c-6.328-6.328-12.386-12.925-10.501-22.753c0.942-4.847,2.289-10.501,5.385-13.866
	c14.406-15.349,29.215-30.293,44.563-44.833c8.751-8.212,23.021-7.674,31.772,0.808c25.849,24.907,51.429,50.083,77.009,75.259
	c8.482,8.347,17.098,16.559,25.176,25.176c4.174,4.442,6.597,4.308,10.098-0.943c35.946-53.313,72.027-106.627,108.243-159.806
	c37.428-54.794,75.394-109.32,112.282-164.384c12.655-18.848,29.753-18.983,44.158-8.616c13.06,9.424,26.522,18.31,39.447,28.003
	c15.482,11.578,17.502,24.233,6.731,40.12C447.646,169.567,389.89,254.923,332.134,340.01
	c-33.254,49.006-66.776,97.741-100.3,146.478C224.968,496.854,214.736,502.509,201.946,502.644z"/>
</svg>
