<?xml version="1.0" encoding="utf-8"?>
<!-- Generator: Adobe Illustrator 16.0.2, SVG Export Plug-In . SVG Version: 6.00 Build 0)  -->
<!DOCTYPE svg PUBLIC "-//W3C//DTD SVG 1.1//EN" "http://www.w3.org/Graphics/SVG/1.1/DTD/svg11.dtd">
<svg version="1.1" id="Capa_1" xmlns="http://www.w3.org/2000/svg" xmlns:xlink="http://www.w3.org/1999/xlink" x="0px" y="0px"
	 width="690px" height="595px" viewBox="0 0 690 595" enable-background="new 0 0 690 595" xml:space="preserve">
<path fill="#A2A5B9" d="M642.5,297.5C642.5,133.464,509.036,0,345,0S47.5,133.464,47.5,297.5
	c0,86.643,37.258,164.739,96.563,219.154l-0.281,0.249l9.65,8.136c0.627,0.53,1.309,0.963,1.937,1.481
	c5.128,4.252,10.439,8.287,15.849,12.192c1.752,1.266,3.505,2.531,5.29,3.765c5.777,3.981,11.705,7.757,17.764,11.338
	c1.319,0.778,2.65,1.536,3.981,2.293c6.631,3.775,13.404,7.335,20.338,10.602c0.509,0.238,1.028,0.455,1.537,0.692
	c22.599,10.505,46.724,18.218,71.952,22.772c0.66,0.119,1.32,0.238,1.99,0.357c7.833,1.353,15.751,2.434,23.768,3.159
	c0.974,0.086,1.947,0.141,2.932,0.227C328.751,594.578,336.821,595,345,595c8.104,0,16.098-0.422,24.038-1.061
	c1.006-0.086,2.013-0.141,3.019-0.227c7.951-0.725,15.805-1.774,23.562-3.105c0.671-0.118,1.353-0.237,2.023-0.367
	c24.849-4.457,48.627-11.998,70.935-22.231c0.822-0.379,1.655-0.735,2.478-1.125c6.675-3.138,13.198-6.523,19.592-10.126
	c1.59-0.898,3.169-1.807,4.749-2.737c5.82-3.429,11.543-7.01,17.104-10.818c2.001-1.362,3.959-2.802,5.939-4.229
	c4.749-3.419,9.411-6.945,13.944-10.634c1.006-0.812,2.088-1.515,3.072-2.348l9.898-8.266l-0.292-0.249
	C604.885,463.04,642.5,384.586,642.5,297.5z M69.136,297.5c0-152.114,123.75-275.864,275.864-275.864S620.863,145.386,620.863,297.5
	c0,81.97-35.97,155.663-92.917,206.227c-3.181-2.195-6.383-4.164-9.661-5.809l-91.597-45.794
	c-8.223-4.11-13.328-12.376-13.328-21.561v-31.989c2.12-2.618,4.359-5.582,6.675-8.839c11.856-16.746,21.365-35.375,28.3-55.421
	c13.707-6.513,22.557-20.165,22.557-35.581v-38.351c0-9.379-3.44-18.478-9.596-25.628v-50.488
	c0.563-5.625,2.553-37.301-20.371-63.438C420.987,98.067,388.717,86.545,345,86.545c-43.716,0-75.987,11.521-95.925,34.272
	c-22.924,26.137-20.933,57.834-20.371,63.438v50.488c-6.145,7.151-9.596,16.249-9.596,25.628v38.351
	c0,11.91,5.344,23.021,14.496,30.518c8.763,34.326,26.797,60.312,33.461,69.117v31.309c0,8.827-4.814,16.941-12.571,21.182
	l-85.54,46.659c-2.726,1.481-5.431,3.213-8.135,5.149C104.577,452.113,69.136,378.874,69.136,297.5z"/>
</svg>
