<?xml version="1.0" encoding="utf-8"?>
<!-- Generator: Adobe Illustrator 16.0.2, SVG Export Plug-In . SVG Version: 6.00 Build 0)  -->
<!DOCTYPE svg PUBLIC "-//W3C//DTD SVG 1.1//EN" "http://www.w3.org/Graphics/SVG/1.1/DTD/svg11.dtd">
<svg version="1.1" id="Layer_1" xmlns="http://www.w3.org/2000/svg" xmlns:xlink="http://www.w3.org/1999/xlink" x="0px" y="0px"
	 width="512px" height="512px" viewBox="0 0 512 512" enable-background="new 0 0 512 512" xml:space="preserve">
<title>value customers users viewer</title>
<polygon fill="#D4E1F4" points="48.652,320.211 95.362,320.211 92.128,309.613 38.054,309.613 58.491,477.061 67.795,477.061 "/>
<path fill="#D4E1F4" d="M274.109,356.54c-1.156,0.159-2.335-0.006-3.404-0.476c-3.225,1.393-4.709,5.136-3.316,8.359
	c1.135,2.629,3.887,4.174,6.721,3.776c13.56-1.872,27.261-2.505,40.935-1.89l46.729,2.115c0.1,0,0.191,0.008,0.287,0.008
	c3.512,0,6.358-2.848,6.358-6.358c0-0.001,0-0.001,0-0.001c0-0.952-0.036-1.895-0.093-2.832l6.284-3.314l67.689-36.52
	c7.244-3.922,15.896-4.264,23.427-0.926l8.422-5.783c-8.297-8.622-21.327-10.646-31.849-4.949l-67.689,36.518l-6.284,3.313
	c0.057,0.938,0.093,1.881,0.093,2.832c0.001,3.511-2.846,6.358-6.357,6.358c0,0,0,0-0.001,0c-0.1,0-0.191,0-0.287-0.006
	l-46.729-2.115C301.37,354.034,287.669,354.667,274.109,356.54z"/>
<path fill="#D4E1F4" d="M128.627,338.232l13.441-11.967c25.338-19.042,59.204-22.298,87.706-8.432l5.649,2.7
	c9.711,4.67,20.348,7.097,31.123,7.1h54.784c11.71,0.013,22.608,5.986,28.919,15.851l4.8,0.216
	c-3.207-16.091-17.313-27.688-33.72-27.724h-54.783c-10.775-0.004-21.412-2.431-31.123-7.101l-5.649-2.7
	c-28.501-13.867-62.368-10.611-87.706,8.432l-13.441,11.966c-6.445,5.734-14.055,10.008-22.306,12.526l3.221,10.567
	C116.563,347.083,123.037,343.204,128.627,338.232z"/>
<path fill="#000000" d="M435.1,298.2l-2.372,1.28c-9.581-11.629-26.183-16.135-38.83-9.725c-0.046,0.021-0.091,0.046-0.135,0.069
	l-5.6,3.015c-13.683-11.586-33.162-13.346-48.7-4.4l-30.155,16.4h-40.126c-8.688-0.012-17.263-1.977-25.09-5.749l-5.52-2.67
	c-32.044-15.592-70.129-11.872-98.552,9.625c-0.131,0.101-0.259,0.2-0.381,0.313l-13.327,11.863
	c-5.037,4.474-10.99,7.792-17.443,9.723L101.3,303.1c-0.77-2.524-3.099-4.25-5.739-4.25H31.108c-3.313,0-6,2.687-6,6
	c0,0.243,0.015,0.485,0.044,0.727l21.484,176.16c0.367,3.011,2.923,5.273,5.956,5.273h96.674c3.313,0,6-2.687,6-6
	c0-0.593-0.088-1.183-0.261-1.75l-12.7-41.674l39.554-25c5.292-2.929,11.501-3.731,17.365-2.247c0.124,0.031,0.249,0.06,0.375,0.081
	l80.459,14.816c21.865,3.912,44.409,0.729,64.336-9.084c0.255-0.126,0.5-0.27,0.734-0.431l139.164-95.552
	c2.617-1.797,3.382-5.321,1.744-8.041C475.518,294.608,453.071,288.471,435.1,298.2z M399.383,300.428
	c7.315-3.662,16.524-0.66,22.406,4.953l-52.772,28.471l-3.1,1.633c-1.671-4.745-4.113-9.182-7.228-13.131L399.383,300.428z
	 M345.27,298.943c0.048-0.027,0.101-0.053,0.143-0.082c9.626-5.563,21.517-5.451,31.037,0.293L349.618,313.6
	c-5.115-3.732-10.952-6.359-17.138-7.713L345.27,298.943z M57.9,475.01L37.885,310.85h53.229l50.05,164.16H57.9z M338.684,405.579
	c-17.521,8.529-37.297,11.276-56.479,7.848l-80.261-14.779c-8.828-2.18-18.155-0.916-26.085,3.534
	c-0.093,0.052-0.186,0.107-0.277,0.165l-36.915,23.337l-26.3-86.25c8.109-2.445,15.589-6.627,21.917-12.258l13.139-11.699
	c24.819-18.66,57.997-21.852,85.918-8.266l5.519,2.67c9.457,4.559,19.818,6.932,30.315,6.946H322.7
	c16.225,0.022,30.151,11.554,33.2,27.489l-38.795-1.754c-14.104-0.635-28.236,0.019-42.221,1.951
	c-3.277,0.486-5.54,3.538-5.053,6.816c0.48,3.231,3.458,5.485,6.699,5.068c13.26-1.832,26.658-2.451,40.03-1.848l45.656,2.065
	c0.091,0,0.183,0.006,0.272,0.006c3.313,0,6-2.687,6-6c0-0.972-0.041-1.933-0.101-2.89l6.262-3.301l66.148-35.676
	c10.446-5.656,23.39-3.582,31.544,5.057L338.684,405.579z"/>
<path fill="#0635C9" d="M76.974,450.188c0,10.434,8.457,18.891,18.89,18.891c10.433,0,18.89-8.457,18.89-18.891
	c0-10.433-8.457-18.89-18.89-18.89C85.436,431.31,76.985,439.76,76.974,450.188z M95.864,443.298c3.806,0,6.89,3.085,6.89,6.89
	c0,3.806-3.084,6.891-6.89,6.891c-3.805,0-6.89-3.085-6.89-6.891c0.006-3.802,3.088-6.882,6.89-6.888V443.298z"/>
<path fill="#C8A227" d="M256.079,24.99c-25.14,0.031-45.513,20.403-45.544,45.543v19.772c0.117,25.153,20.603,45.448,45.756,45.331
	c24.987-0.116,45.215-20.344,45.331-45.331V70.533C301.591,45.394,281.219,25.021,256.079,24.99z M289.622,90.305
	c-0.101,18.525-15.2,33.461-33.726,33.361c-18.383-0.1-33.261-14.978-33.361-33.361V70.533c0.101-18.526,15.2-33.462,33.726-33.361
	c18.384,0.1,33.261,14.978,33.361,33.361V90.305z"/>
<path fill="#C8A227" d="M331.13,90.872v17.307c0,22.429,18.183,40.612,40.612,40.612s40.611-18.183,40.611-40.612V90.872
	c0-22.43-18.182-40.612-40.611-40.612S331.13,68.442,331.13,90.872L331.13,90.872z M400.354,90.872v17.307
	c0,15.802-12.81,28.612-28.611,28.612s-28.612-12.81-28.612-28.612l0,0V90.872c0-15.802,12.811-28.612,28.612-28.612
	S400.354,75.07,400.354,90.872z"/>
<path fill="#C8A227" d="M399.892,149.853c-3.199-0.235-4.845,1.791-6.179,3.418c-9.632,11.768-26.979,13.5-38.748,3.868
	c-1.762-1.442-3.339-3.098-4.693-4.929c-1.163-1.574-3.02-2.481-4.976-2.433c-7.794,0.175-15.405,2.396-22.071,6.439
	c-8.891-10.338-21.589-16.637-35.199-17.459c-3.101-0.126-4.668,1.756-6.188,3.6c-11.3,13.81-31.654,15.844-45.464,4.544
	c-2.07-1.694-3.922-3.639-5.513-5.79c-1.161-1.576-3.019-2.484-4.975-2.432c-13.158,0.304-25.671,5.762-34.845,15.2
	c-0.758,0.775-1.477,1.578-2.178,2.393c-6.195-3.772-13.217-5.976-20.457-6.422c-3.189-0.235-4.846,1.791-6.179,3.418
	c-9.631,11.768-26.979,13.5-38.747,3.869c-1.763-1.442-3.339-3.099-4.694-4.93c-1.165-1.572-3.02-2.479-4.975-2.433
	C89.439,150.396,70.003,170.329,70,194.709v38.944c0,3.314,2.687,6,6,6h100.668v13.772c0,3.313,2.687,6,6,6H329.49
	c3.313,0,6-2.687,6-6l0,0v-13.772H436c3.313,0,6-2.686,6-6v-38.944C441.986,170.993,423.56,151.364,399.892,149.853z M82,227.653
	v-32.944c0.105-16.727,12.645-30.76,29.254-32.738c14.438,16.382,39.422,17.958,55.804,3.521c1.196-1.054,2.327-2.179,3.387-3.37
	c4.131,0.618,8.106,2.02,11.71,4.132c-3.617,7.094-5.498,14.945-5.487,22.908v38.491H82z M323.49,247.425H188.668v-58.263
	c0.123-19.715,15.025-36.197,34.628-38.3c15.999,18.521,43.983,20.567,62.505,4.568c1.578-1.363,3.059-2.837,4.43-4.409
	c19.05,2.635,33.242,18.91,33.26,38.141V247.425z M430,227.653h-94.51v-38.491c0.006-7.99-1.895-15.867-5.545-22.974
	c3.92-2.286,8.277-3.724,12.789-4.221c14.436,16.386,39.422,17.966,55.808,3.529c1.197-1.055,2.33-2.182,3.392-3.374
	c16.124,2.433,28.051,16.281,28.066,32.587V227.653z"/>
<path fill="#C8A227" d="M140.258,148.791c22.419-0.026,40.586-18.193,40.612-40.612V90.872c0-22.43-18.183-40.612-40.612-40.612
	c-22.429,0-40.612,18.183-40.612,40.612l0,0v17.307C99.671,130.598,117.839,148.766,140.258,148.791z M111.646,90.872
	c-0.008-15.802,12.795-28.619,28.597-28.627c15.802-0.008,28.619,12.795,28.627,28.597c0,0.01,0,0.02,0,0.03v17.307
	c0,15.802-12.81,28.612-28.612,28.612c-15.802,0-28.612-12.81-28.612-28.612l0,0V90.872z"/>
</svg>
