<?xml version="1.0" encoding="utf-8"?>
<!-- Generator: Adobe Illustrator 16.0.2, SVG Export Plug-In . SVG Version: 6.00 Build 0)  -->
<!DOCTYPE svg PUBLIC "-//W3C//DTD SVG 1.1//EN" "http://www.w3.org/Graphics/SVG/1.1/DTD/svg11.dtd">
<svg version="1.1" id="Layer_1" xmlns="http://www.w3.org/2000/svg" xmlns:xlink="http://www.w3.org/1999/xlink" x="0px" y="0px"
	 width="512px" height="512px" viewBox="0 0 512 512" enable-background="new 0 0 512 512" xml:space="preserve">
<g>
	<circle fill="#FFFFFF" cx="255.5" cy="256.5" r="255.5"/>
	<path fill="#EB4856" d="M368.088,143.898c-5.698-5.699-14.84-5.699-20.539,0L255.5,235.947l-92.048-92.049
		c-5.7-5.699-14.84-5.699-20.539,0c-5.699,5.699-5.699,14.839,0,20.539l92.048,92.049l-92.048,92.049
		c-5.699,5.699-5.699,14.84,0,20.538c2.796,2.797,6.559,4.302,10.216,4.302c3.656,0,7.419-1.397,10.215-4.302l92.049-92.048
		l92.048,92.048c2.797,2.797,6.561,4.302,10.218,4.302c3.763,0,7.418-1.397,10.214-4.302c5.7-5.698,5.7-14.839,0-20.538
		l-91.833-92.049l92.049-92.049C373.787,158.738,373.787,149.598,368.088,143.898z"/>
</g>
</svg>
