<?xml version="1.0" encoding="utf-8"?>
<!-- Generator: Adobe Illustrator 16.0.2, SVG Export Plug-In . SVG Version: 6.00 Build 0)  -->
<!DOCTYPE svg PUBLIC "-//W3C//DTD SVG 1.1//EN" "http://www.w3.org/Graphics/SVG/1.1/DTD/svg11.dtd">
<svg version="1.1" id="Capa_1" xmlns="http://www.w3.org/2000/svg" xmlns:xlink="http://www.w3.org/1999/xlink" x="0px" y="0px"
	 width="512px" height="512px" viewBox="0 0 512 512" enable-background="new 0 0 512 512" xml:space="preserve">
<g>
	<g>
		<path fill="#EB4856" d="M437.01,75.99C388.633,27.613,324.418,1,256,1C187.583,1,123.367,27.613,74.99,75.99
			C26.613,124.367,0,188.583,0,257c0,68.418,26.613,132.633,74.99,181.01C123.367,486.387,187.583,513,256,513
			c68.418,0,132.633-26.613,181.01-74.99S512,325.418,512,257C512,188.583,485.387,124.367,437.01,75.99z M416.431,417.431
			c-42.882,42.883-99.879,66.479-160.431,66.479c-60.552,0-117.549-23.596-160.431-66.479c-88.458-88.458-88.458-232.404,0-320.862
			C138.451,53.687,195.448,30.091,256,30.091c60.552,0,117.549,23.596,160.431,66.478
			C504.889,185.027,504.889,328.973,416.431,417.431z"/>
		<path fill="#EB4856" d="M368.808,144.192c-5.71-5.71-14.868-5.71-20.579,0L256,236.421l-92.229-92.229
			c-5.71-5.71-14.869-5.71-20.579,0s-5.71,14.869,0,20.579L235.421,257l-92.229,92.229c-5.71,5.711-5.71,14.869,0,20.58
			c2.801,2.801,6.572,4.309,10.236,4.309c3.663,0,7.434-1.4,10.235-4.309l92.229-92.229l92.229,92.229
			c2.802,2.801,6.572,4.309,10.235,4.309c3.771,0,7.435-1.4,10.236-4.309c5.71-5.711,5.71-14.869,0-20.58L276.579,257l92.229-92.229
			C374.519,159.061,374.519,149.902,368.808,144.192z"/>
	</g>
</g>
</svg>
