<?xml version="1.0" encoding="utf-8"?>
<!-- Generator: Adobe Illustrator 16.0.2, SVG Export Plug-In . SVG Version: 6.00 Build 0)  -->
<!DOCTYPE svg PUBLIC "-//W3C//DTD SVG 1.1//EN" "http://www.w3.org/Graphics/SVG/1.1/DTD/svg11.dtd">
<svg version="1.1" id="Layer_1" xmlns="http://www.w3.org/2000/svg" xmlns:xlink="http://www.w3.org/1999/xlink" x="0px" y="0px"
	 width="512px" height="512px" viewBox="0 0 512 512" enable-background="new 0 0 512 512" xml:space="preserve">
<g>
	<path fill="#A2A5B9" d="M503.767,316.823c-3.997-5.861-11.992-7.374-17.854-3.378l-139.979,95.439l-31.089-41.608
		c-3.26-4.348-9.062-6.359-14.503-4.547c-6.805,2.265-10.488,9.618-8.223,16.423l25.444,76.461c0.961,2.841,2.529,5.652,4.657,8.027
		c8.418,9.403,22.868,10.206,32.273,1.786l1.66-1.484l145.57-130.307C506.459,329.403,507.44,322.213,503.767,316.823
		L503.767,316.823z"/>
	<path fill="#A2A5B9" d="M269.091,419.49H37.88V72.301h338.515v266.707c0,7.078,5.74,12.821,12.82,12.821
		c7.078,0,12.819-5.743,12.819-12.821V59.48c0-7.079-5.741-12.82-12.819-12.82H25.06c-7.079,0-12.82,5.742-12.82,12.82v372.83
		c0,7.079,5.741,12.819,12.82,12.819h244.031c7.08,0,12.823-5.74,12.823-12.819C281.914,425.229,276.171,419.49,269.091,419.49z"/>
	<path fill="#A2A5B9" d="M310.722,127.147H103.55c-7.078,0-12.819,5.741-12.819,12.82c0,7.079,5.741,12.82,12.819,12.82h207.171
		c7.078,0,12.821-5.741,12.821-12.82C323.543,132.888,317.802,127.147,310.722,127.147z"/>
	<path fill="#A2A5B9" d="M310.722,182.562H103.55c-7.078,0-12.819,5.741-12.819,12.821c0,7.078,5.741,12.82,12.819,12.82h207.171
		c7.078,0,12.821-5.742,12.821-12.82C323.543,188.303,317.802,182.562,310.722,182.562z"/>
	<path fill="#A2A5B9" d="M310.722,237.977H103.55c-7.078,0-12.819,5.741-12.819,12.82s5.741,12.82,12.819,12.82h207.171
		c7.078,0,12.821-5.741,12.821-12.82S317.802,237.977,310.722,237.977z"/>
	<path fill="#A2A5B9" d="M323.543,306.209c0-7.078-5.743-12.819-12.821-12.819H103.55c-7.078,0-12.819,5.741-12.819,12.819
		c0,7.08,5.741,12.821,12.819,12.821h207.171C317.802,319.03,323.543,313.291,323.543,306.209z"/>
	<path fill="#A2A5B9" d="M103.55,346.102c-7.078,0-12.819,5.74-12.819,12.82c0,7.079,5.741,12.819,12.819,12.819h103.584
		c7.079,0,12.82-5.74,12.82-12.819c0-7.08-5.741-12.82-12.82-12.82H103.55z"/>
</g>
</svg>
