<?xml version="1.0" encoding="utf-8"?>
<!-- Generator: Adobe Illustrator 16.0.2, SVG Export Plug-In . SVG Version: 6.00 Build 0)  -->
<!DOCTYPE svg PUBLIC "-//W3C//DTD SVG 1.1//EN" "http://www.w3.org/Graphics/SVG/1.1/DTD/svg11.dtd">
<svg version="1.1" id="Layer_1" xmlns="http://www.w3.org/2000/svg" xmlns:xlink="http://www.w3.org/1999/xlink" x="0px" y="0px"
	 width="512px" height="512px" viewBox="0 0 512 512" enable-background="new 0 0 512 512" xml:space="preserve">
<g>
	<g transform="translate(0.000000,512.000000) scale(0.100000,-0.100000)">
		<path fill="#A2A5B9" d="M562.28,5059.023c-11.777-3.945-30.361-20.586-42.139-35.278l-20.581-26.47V2559.028V119.805
			l28.413-31.387l28.418-32.354l1261.26-2.92l1261.265-1.943l-46.084,50.947c-25.498,28.408-66.66,79.355-90.156,112.686
			l-44.092,61.748H1811.763H724.941V2560v2283.418H1866.65h1141.709V4471.04c0-314.575,1.943-378.267,14.688-409.653
			c21.563-49.971,50.947-79.355,107.783-105.83c48.994-23.501,50.947-23.501,419.434-23.501h369.453V2776.577V1621.152
			l51.914-17.617c27.451-8.809,76.445-29.395,106.807-44.082c31.387-15.664,58.779-28.418,61.748-28.418
			c2.92,0,4.912,570.371,4.912,1267.148v1268.12l-495.82,500.737l-495.869,501.758l-1284.761-0.972
			C1161.064,5067.827,573.032,5063.886,562.28,5059.023z M3503.261,4421.992l264.6-264.604h-267.52h-266.553v264.604
			c0,146.021,0.977,264.6,2.92,264.6C3237.685,4686.591,3358.203,4568.012,3503.261,4421.992z"/>
		<path fill="#A2A5B9" d="M1185.537,4044.697v-112.69h681.113h681.113v112.69v112.69H1866.65h-681.113V4044.697z"/>
		<path fill="#A2A5B9" d="M1185.537,3133.286v-112.69h1136.792h1136.792v112.69v112.69H2322.329H1185.537V3133.286z"/>
		<path fill="#A2A5B9" d="M1185.537,2217.011v-117.607h1136.792h1136.792v117.607v117.607H2322.329H1185.537V2217.011z"/>
		<path fill="#A2A5B9" d="M1185.537,1305.605v-117.617h855.552h855.552l46.074,66.67c24.473,36.24,64.668,85.244,89.199,109.775
			c25.488,23.496,45.049,47.051,45.049,50.938s-425.313,7.832-945.713,7.832h-945.713V1305.605z"/>
		<path fill="#A2A5B9" d="M3973.632,1001.777l-323.379-323.379l-161.689,161.689l-161.689,161.689l-161.689-161.689
			l-161.748-161.689l313.604-313.594C3520.869,160.977,3637.5,51.201,3650.254,51.201c12.744,0,183.242,163.633,494.902,475.293
			l475.283,475.283l-161.689,161.689l-161.689,161.689L3973.632,1001.777z"/>
	</g>
</g>
</svg>
