<?xml version="1.0" encoding="utf-8"?>
<!-- Generator: Adobe Illustrator 16.0.2, SVG Export Plug-In . SVG Version: 6.00 Build 0)  -->
<!DOCTYPE svg PUBLIC "-//W3C//DTD SVG 1.1//EN" "http://www.w3.org/Graphics/SVG/1.1/DTD/svg11.dtd">
<svg version="1.1" xmlns="http://www.w3.org/2000/svg" xmlns:xlink="http://www.w3.org/1999/xlink" x="0px" y="0px" width="500px"
	 height="500px" viewBox="0 0 500 500" enable-background="new 0 0 500 500" xml:space="preserve">
<g id="BACKGROUND">
	<rect fill="#FFFFFF" width="500" height="500"/>
</g>
<g id="OBJECTS">
	<g>
		<path opacity="0.3" fill="#ABD5E6" d="M315.607,113.637c-14.99,2.829-30.26-3.059-43.563-10.527
			c-18.515-10.393-35.039-23.968-53.019-35.263c-17.979-11.295-38.183-20.469-59.415-20.509
			c-21.232-0.04-43.508,10.882-51.877,30.396c-8.874,20.691-0.638,44.726-4.48,66.91c-6.23,35.974-42.688,61.001-48.768,97.001
			c-3.482,20.616,3.849,41.869,15.525,59.213c24.844,36.907,71.252,58.848,115.235,52.148c27.992-4.264,53.51-19.123,74.757-37.841
			c21.246-18.717,38.707-41.267,56.028-63.666"/>
		<path opacity="0.3" fill="#FFCE68" d="M328.403,373.047c-5.249-6.242-10.096-12.82-14.503-19.682
			c-4.227-6.581-8.104-13.569-9.643-21.238c-2.068-10.299,0.236-20.946,3.092-31.056c3.276-11.6,7.367-23.143,14.175-33.089
			c6.809-9.946,16.625-18.245,28.304-21.225c9.507-2.426,19.605-1.236,29.217-3.202c18.605-3.805,32.981-18.946,42.332-35.475
			c4.927-8.708,9.489-18.667,18.547-22.917c10.621-4.983,24.108,0.528,30.613,10.292c6.505,9.764,7.04,22.512,4.365,33.935
			c-2.675,11.423-8.226,21.923-13.262,32.519c-5.036,10.596-9.673,21.697-10.298,33.412c-1.031,19.324,8.944,38.301,6.205,57.457
			c-1.539,10.767-7.045,20.645-13.966,29.034c-5.745,6.967-12.627,13.154-20.772,17.053c-12.193,5.836-26.569,6.136-39.621,2.613
			s-24.898-10.636-35.497-19.028"/>
		<ellipse opacity="0.1" fill="#1D262D" cx="249.823" cy="425.283" rx="221.035" ry="12.483"/>
		<g>
			<g>
				<rect x="139.183" y="104.108" fill="#E2E2E2" width="239.168" height="319.075"/>
				<rect x="153.82" y="125.613" opacity="0.2" fill="#1D262D" width="209.894" height="285.829"/>
				<rect x="153.82" y="120.731" fill="#FFFFFF" width="209.894" height="285.829"/>
				<polygon fill="#DC894E" points="138.132,123.967 138.132,103.058 159.042,103.058 				"/>
				<polygon fill="#DC894E" points="379.401,123.967 379.401,103.058 358.491,103.058 				"/>
				<polygon fill="#DC894E" points="138.132,404.139 138.132,425.049 159.042,425.049 				"/>
				<polygon fill="#DC894E" points="379.401,404.139 379.401,425.049 358.491,425.049 				"/>
			</g>
			<path fill="#FFCE68" d="M258.767,111.969L258.767,111.969c-8.252,0-14.942,3.815-14.942-4.437v-1.268
				c0-8.252,6.69-14.942,14.942-14.942l0,0c8.252,0,14.942,6.69,14.942,14.942v1.268
				C273.708,115.784,267.019,111.969,258.767,111.969z"/>
			<rect x="219.743" y="123.967" opacity="0.2" fill="#1D262D" width="78.046" height="7.022"/>
			<g>
				<defs>
					<rect id="XMLID_21_" x="217.62" y="100.431" width="82.294" height="27.665"/>
				</defs>
				<use xlink:href="#XMLID_21_"  overflow="visible" fill="#FFCE68"/>
				<clipPath id="XMLID_2_">
					<use xlink:href="#XMLID_21_"  overflow="visible"/>
				</clipPath>
				<rect x="209.398" y="115.63" opacity="0.2" clip-path="url(#XMLID_2_)" fill="#CC2A3A" width="100.922" height="15.859"/>
			</g>
			<g>
				<path fill="#ABD5E6" d="M206.574,205.446h-34.797v-34.797h34.797V205.446z M172.828,204.396h32.696v-32.696h-32.696V204.396z"/>
			</g>
			<g>
				<path fill="#ABD5E6" d="M206.574,249.442h-34.797v-34.797h34.797V249.442z M172.828,248.392h32.696v-32.696h-32.696V248.392z"/>
			</g>
			<g>
				<path fill="#ABD5E6" d="M206.574,293.439h-34.797v-34.798h34.797V293.439z M172.828,292.389h32.696v-32.696h-32.696V292.389z"/>
			</g>
			<path fill="#23809B" d="M186.615,198.103l-16.578-16.402c-1.147-1.135-1.156-2.985-0.022-4.132
				c1.137-1.148,2.986-1.155,4.132-0.022l12.236,12.107l19.417-21.449c1.082-1.195,2.93-1.29,4.126-0.205
				c1.195,1.083,1.287,2.93,0.204,4.126L186.615,198.103z"/>
			<path fill="#23809B" d="M186.615,242.431l-16.578-16.402c-1.147-1.135-1.156-2.985-0.022-4.132
				c1.137-1.148,2.986-1.155,4.132-0.022l12.236,12.107l19.417-21.449c1.082-1.195,2.93-1.29,4.126-0.205
				c1.195,1.083,1.287,2.93,0.204,4.126L186.615,242.431z"/>
			<path fill="#23809B" d="M186.615,285.708l-16.578-16.402c-1.147-1.136-1.156-2.985-0.022-4.132
				c1.137-1.148,2.986-1.154,4.132-0.022l12.236,12.108l19.417-21.449c1.082-1.195,2.93-1.29,4.126-0.205
				c1.195,1.083,1.287,2.931,0.204,4.127L186.615,285.708z"/>
			<g>
				<path fill="#ABD5E6" d="M206.574,337.436h-34.797v-34.797h34.797V337.436z M172.828,336.385h32.696v-32.695h-32.696V336.385z"/>
			</g>
			<g>
				<path fill="#ABD5E6" d="M206.574,381.433h-34.797v-34.797h34.797V381.433z M172.828,380.382h32.696v-32.696h-32.696V380.382z"/>
			</g>
			<g>
				<rect x="216.966" y="177.992" fill="#23809B" width="127.076" height="3.465"/>
				<rect x="216.966" y="186.314" fill="#23809B" width="127.076" height="3.465"/>
				<rect x="216.966" y="194.637" fill="#23809B" width="39.286" height="3.465"/>
			</g>
			<g>
				<rect x="216.966" y="221.435" fill="#23809B" width="127.076" height="3.466"/>
				<rect x="216.966" y="229.758" fill="#23809B" width="127.076" height="3.465"/>
				<rect x="216.966" y="238.081" fill="#23809B" width="83.036" height="3.465"/>
			</g>
			<g>
				<rect x="216.966" y="264.878" fill="#23809B" width="127.076" height="3.466"/>
				<rect x="216.966" y="273.201" fill="#23809B" width="108.691" height="3.465"/>
			</g>
			<g>
				<rect x="216.966" y="308.321" fill="#23809B" width="127.076" height="3.465"/>
				<rect x="216.966" y="316.644" fill="#23809B" width="64.042" height="3.466"/>
			</g>
			<g>
				<rect x="216.966" y="351.765" fill="#23809B" width="127.076" height="3.465"/>
				<rect x="216.966" y="360.087" fill="#23809B" width="127.076" height="3.466"/>
			</g>
			<rect x="198.534" y="142.645" fill="#23809B" width="120.815" height="8.563"/>
			<circle fill="#FFFFFF" cx="258.766" cy="97.987" r="3.439"/>
		</g>
		<g>
			<circle fill="#FFCE68" cx="71.233" cy="345.103" r="5.243"/>
			<circle fill="#FFCE68" cx="405.484" cy="167.246" r="5.039"/>
			<circle fill="#215B74" cx="440.585" cy="233.223" r="3.004"/>
			<circle fill="#E15C56" cx="441.21" cy="353.497" r="3.517"/>
		</g>
	</g>
	<g>
		<circle fill="#E84849" cx="370.024" cy="340.058" r="21.065"/>
		<path fill="#FFFFFF" d="M369.188,340.786l-0.42-6.292c-0.079-1.227-0.117-2.106-0.117-2.641c0-0.727,0.19-1.293,0.57-1.7
			c0.381-0.409,0.883-0.612,1.504-0.612c0.753,0,1.258,0.261,1.511,0.781c0.254,0.521,0.381,1.273,0.381,2.254
			c0,0.577-0.03,1.165-0.091,1.759l-0.565,6.476c-0.061,0.771-0.192,1.362-0.395,1.774c-0.201,0.411-0.535,0.617-0.999,0.617
			c-0.473,0-0.801-0.198-0.985-0.597C369.397,342.207,369.266,341.6,369.188,340.786z M370.645,349.429
			c-0.534,0-1.001-0.173-1.398-0.519c-0.399-0.346-0.597-0.829-0.597-1.45c0-0.544,0.19-1.006,0.57-1.387
			c0.381-0.381,0.848-0.571,1.399-0.571c0.552,0,1.022,0.19,1.412,0.571c0.389,0.381,0.584,0.843,0.584,1.387
			c0,0.612-0.197,1.094-0.591,1.444C371.63,349.253,371.171,349.429,370.645,349.429z"/>
	</g>
	<g>
		<circle fill="none" stroke="#345BB6" stroke-width="0.9175" stroke-miterlimit="10" cx="71.233" cy="103.057" r="4.927"/>
		<circle fill="none" stroke="#345BB6" stroke-width="0.9175" stroke-miterlimit="10" cx="134.41" cy="25.326" r="4.146"/>
		<circle fill="none" stroke="#345BB6" stroke-width="0.9175" stroke-miterlimit="10" cx="470.858" cy="457" r="5.871"/>
		<circle fill="none" stroke="#345BB6" stroke-width="0.9175" stroke-miterlimit="10" cx="342.399" cy="386.623" r="6.973"/>
		<g>
			
				<line fill="none" stroke="#345BB6" stroke-width="0.9175" stroke-miterlimit="10" x1="91.441" y1="282.087" x2="97.554" y2="290.153"/>
			
				<line fill="none" stroke="#345BB6" stroke-width="0.9175" stroke-miterlimit="10" x1="97.723" y1="282.221" x2="91.272" y2="290.021"/>
		</g>
		<g>
			
				<line fill="none" stroke="#345BB6" stroke-width="0.9175" stroke-miterlimit="10" x1="134.604" y1="76.233" x2="141.66" y2="85.542"/>
			
				<line fill="none" stroke="#345BB6" stroke-width="0.9175" stroke-miterlimit="10" x1="141.854" y1="76.386" x2="134.41" y2="85.388"/>
		</g>
		<g>
			
				<line fill="none" stroke="#345BB6" stroke-width="0.9175" stroke-miterlimit="10" x1="403.197" y1="299.467" x2="410.186" y2="308.687"/>
			
				<line fill="none" stroke="#345BB6" stroke-width="0.9175" stroke-miterlimit="10" x1="410.378" y1="299.618" x2="403.005" y2="308.533"/>
		</g>
		<g>
			
				<line fill="none" stroke="#345BB6" stroke-width="0.9175" stroke-miterlimit="10" x1="397.025" y1="408.935" x2="403.979" y2="418.107"/>
			
				<line fill="none" stroke="#345BB6" stroke-width="0.9175" stroke-miterlimit="10" x1="404.172" y1="409.086" x2="396.834" y2="417.956"/>
		</g>
	</g>
</g>
<g id="DESIGNED_BY_FREEPIK">
	<g>
		<g>
			<g>
				<g>
					<path fill="#EED046" d="M272.932,39.056c0,0,0.338,1.602,0.655,4.015c0.166,1.206,0.328,2.615,0.47,4.127
						c0.152,1.511,0.26,3.126,0.373,4.742c0.082,1.617,0.17,3.233,0.2,4.751c0.041,1.518,0.048,2.937,0.028,4.154
						c-0.026,2.434-0.172,4.064-0.172,4.064s-0.34-1.601-0.657-4.015c-0.166-1.207-0.329-2.616-0.47-4.127
						c-0.152-1.511-0.259-3.126-0.371-4.742c-0.082-1.617-0.168-3.233-0.198-4.752c-0.039-1.518-0.047-2.937-0.027-4.154
						C272.788,40.687,272.932,39.056,272.932,39.056z"/>
				</g>
				<g>
					<path fill="#EED046" d="M286.638,52.727c0,0-1.63,0.148-4.064,0.18c-1.218,0.023-2.636,0.019-4.154-0.017
						c-1.519-0.026-3.135-0.108-4.752-0.186c-1.615-0.108-3.231-0.21-4.743-0.359c-1.512-0.138-2.922-0.296-4.128-0.459
						c-2.415-0.311-4.017-0.647-4.017-0.647s1.63-0.15,4.064-0.182c1.217-0.023,2.636-0.02,4.154,0.018
						c1.519,0.025,3.135,0.109,4.752,0.188c1.615,0.108,3.23,0.212,4.742,0.36c1.512,0.139,2.922,0.297,4.128,0.46
						C285.036,52.393,286.638,52.727,286.638,52.727z"/>
				</g>
				<g>
					<path fill="#EED046" d="M281.512,45.884c0,0-0.827,0.953-2.184,2.231c-0.674,0.646-1.48,1.374-2.363,2.128
						c-0.877,0.763-1.846,1.534-2.812,2.309c-0.985,0.751-1.966,1.506-2.918,2.172c-0.945,0.675-1.847,1.281-2.636,1.779
						c-1.569,1.008-2.694,1.579-2.694,1.579s0.826-0.954,2.183-2.233c0.674-0.646,1.479-1.374,2.363-2.128
						c0.876-0.763,1.846-1.533,2.813-2.307c0.985-0.75,1.967-1.504,2.919-2.171c0.946-0.674,1.847-1.28,2.636-1.779
						C280.388,46.456,281.512,45.884,281.512,45.884z"/>
				</g>
				<g>
					<path fill="#EED046" d="M267.378,44.621c0,0,0.975,0.763,2.292,2.031c0.665,0.629,1.415,1.384,2.196,2.213
						c0.789,0.823,1.588,1.736,2.391,2.646c0.78,0.93,1.564,1.856,2.259,2.759c0.704,0.896,1.337,1.751,1.86,2.502
						c1.057,1.493,1.664,2.571,1.664,2.571s-0.976-0.762-2.293-2.03c-0.665-0.629-1.416-1.384-2.196-2.214
						c-0.789-0.823-1.587-1.737-2.39-2.647c-0.78-0.93-1.563-1.857-2.258-2.76c-0.703-0.896-1.336-1.752-1.859-2.502
						C267.986,45.699,267.378,44.621,267.378,44.621z"/>
				</g>
			</g>
		</g>
		<g>
			<polygon fill="none" stroke="#F4D0D3" stroke-width="1.1302" stroke-miterlimit="10" points="88.464,399.521 76.099,416.007 
				93.959,426.998 106.667,410.512 			"/>
			<polygon fill="none" stroke="#353E9B" stroke-width="1.1302" stroke-miterlimit="10" points="55.749,464.305 69.878,461.883 
				65.841,476.012 			"/>
			<g>
				<g>
					<path fill="#EED046" d="M98.584,439.275c0,0,0.064,0.295,0.152,0.813c0.076,0.518,0.217,1.254,0.33,2.143
						c0.242,1.775,0.474,4.148,0.62,6.527c0.14,2.378,0.195,4.762,0.168,6.553c-0.006,0.896-0.058,1.645-0.072,2.168
						c-0.025,0.523-0.054,0.824-0.054,0.824s-0.065-0.295-0.153-0.813c-0.076-0.517-0.218-1.254-0.331-2.143
						c-0.242-1.775-0.473-4.148-0.619-6.527c-0.139-2.378-0.193-4.762-0.166-6.553c0.006-0.896,0.057-1.645,0.071-2.168
						C98.556,439.576,98.584,439.275,98.584,439.275z"/>
				</g>
				<g>
					<path fill="#EED046" d="M108.671,449.336c0,0-0.3,0.029-0.824,0.057c-0.522,0.016-1.271,0.068-2.167,0.076
						c-1.792,0.031-4.175-0.016-6.554-0.148c-2.378-0.141-4.752-0.365-6.528-0.604c-0.889-0.109-1.627-0.25-2.145-0.325
						c-0.517-0.087-0.812-0.15-0.812-0.15s0.3-0.03,0.823-0.056c0.523-0.016,1.272-0.07,2.167-0.078
						c1.792-0.033,4.175,0.018,6.554,0.15c2.378,0.141,4.752,0.367,6.528,0.604c0.889,0.111,1.626,0.25,2.144,0.325
						C108.376,449.272,108.671,449.336,108.671,449.336z"/>
				</g>
				<g>
					<path fill="#EED046" d="M104.899,444.301c0,0-0.608,0.701-1.607,1.642c-0.994,0.948-2.375,2.14-3.808,3.266
						c-1.438,1.119-2.928,2.173-4.087,2.907c-1.155,0.742-1.983,1.162-1.983,1.162s0.607-0.702,1.606-1.644
						c0.994-0.948,2.375-2.14,3.809-3.265c1.438-1.118,2.929-2.17,4.088-2.906C104.072,444.721,104.899,444.301,104.899,444.301z"/>
				</g>
				<g>
					<path fill="#EED046" d="M94.498,443.371c0,0,0.717,0.561,1.687,1.494c0.976,0.929,2.208,2.225,3.375,3.576
						c1.163,1.357,2.261,2.77,3.032,3.873c0.777,1.098,1.224,1.893,1.224,1.893s-0.718-0.561-1.688-1.494
						c-0.976-0.928-2.208-2.225-3.375-3.577c-1.162-1.356-2.259-2.77-3.03-3.874C94.945,444.164,94.498,443.371,94.498,443.371z"/>
				</g>
			</g>
		</g>
		<g>
			<g>
				<g>
					<path fill="#EED046" d="M453.362,254.3c0,0,0.338,1.602,0.655,4.015c0.166,1.207,0.328,2.616,0.47,4.128
						c0.152,1.511,0.26,3.126,0.373,4.741c0.083,1.617,0.17,3.233,0.2,4.752c0.041,1.518,0.048,2.937,0.027,4.154
						c-0.025,2.434-0.172,4.064-0.171,4.064s-0.34-1.602-0.657-4.015c-0.166-1.206-0.329-2.616-0.47-4.128
						c-0.152-1.511-0.259-3.127-0.371-4.741c-0.082-1.617-0.168-3.233-0.198-4.752c-0.04-1.519-0.048-2.937-0.028-4.154
						C453.218,255.93,453.363,254.3,453.362,254.3z"/>
				</g>
				<g>
					<path fill="#EED046" d="M467.068,267.972c0,0-1.63,0.148-4.064,0.181c-1.218,0.022-2.636,0.018-4.154-0.018
						c-1.519-0.025-3.135-0.107-4.752-0.186c-1.615-0.108-3.231-0.211-4.743-0.359c-1.512-0.138-2.922-0.297-4.128-0.459
						c-2.415-0.312-4.017-0.647-4.017-0.647s1.63-0.149,4.064-0.183c1.218-0.023,2.636-0.02,4.154,0.018
						c1.519,0.025,3.136,0.109,4.752,0.188c1.615,0.108,3.231,0.213,4.743,0.361c1.512,0.139,2.922,0.297,4.128,0.459
						C465.466,267.637,467.068,267.972,467.068,267.972z"/>
				</g>
				<g>
					<path fill="#EED046" d="M461.942,261.128c0,0-0.827,0.953-2.184,2.231c-0.674,0.646-1.48,1.373-2.363,2.129
						c-0.876,0.763-1.845,1.533-2.812,2.309c-0.984,0.75-1.966,1.505-2.918,2.172c-0.946,0.674-1.847,1.28-2.636,1.778
						c-1.569,1.009-2.694,1.579-2.694,1.579s0.826-0.954,2.183-2.232c0.674-0.646,1.479-1.375,2.363-2.129
						c0.876-0.764,1.846-1.533,2.813-2.307c0.985-0.751,1.967-1.504,2.919-2.171c0.946-0.675,1.847-1.28,2.636-1.778
						C460.818,261.699,461.942,261.128,461.942,261.128z"/>
				</g>
				<g>
					<path fill="#EED046" d="M447.809,259.865c0,0,0.975,0.763,2.292,2.031c0.664,0.629,1.415,1.385,2.196,2.213
						c0.788,0.823,1.588,1.736,2.391,2.646c0.78,0.93,1.564,1.856,2.259,2.76c0.704,0.895,1.337,1.751,1.86,2.502
						c1.057,1.492,1.664,2.571,1.664,2.571s-0.976-0.762-2.293-2.03c-0.665-0.629-1.416-1.383-2.196-2.213
						c-0.789-0.822-1.587-1.736-2.39-2.647c-0.78-0.931-1.563-1.857-2.258-2.761c-0.703-0.896-1.336-1.752-1.859-2.502
						C448.417,260.943,447.809,259.865,447.809,259.865z"/>
				</g>
			</g>
			<g>
				<path fill="none" stroke="#353E9B" stroke-width="1.1302" stroke-miterlimit="10" d="M436.214,124.752
					c0,0,2.563-6.115,9.008-2.202c6.446,3.913,10.359-2.533,10.359-2.533s4.566-4.855,11.822-0.451"/>
				<g>
					<polygon fill="none" stroke="#353E9B" stroke-width="1.1302" stroke-miterlimit="10" points="390.473,84.127 400.58,73.961 
						405.484,87.813 					"/>
					<g>
						<g>
							<path fill="#EED046" d="M430.498,47.888c0,0,0.064,0.294,0.152,0.812c0.077,0.518,0.217,1.255,0.331,2.143
								c0.242,1.776,0.474,4.148,0.621,6.527c0.14,2.378,0.195,4.762,0.167,6.554c-0.005,0.896-0.058,1.645-0.072,2.167
								c-0.025,0.523-0.054,0.824-0.054,0.824s-0.065-0.294-0.153-0.812c-0.077-0.517-0.218-1.255-0.331-2.143
								c-0.242-1.775-0.473-4.148-0.619-6.527c-0.139-2.378-0.193-4.762-0.166-6.554c0.006-0.896,0.057-1.645,0.071-2.167
								C430.469,48.188,430.498,47.888,430.498,47.888z"/>
						</g>
						<g>
							<path fill="#EED046" d="M440.585,57.948c0,0-0.3,0.029-0.824,0.056c-0.523,0.016-1.271,0.068-2.167,0.077
								c-1.792,0.032-4.176-0.016-6.555-0.149c-2.378-0.14-4.752-0.365-6.528-0.603c-0.889-0.11-1.626-0.25-2.144-0.326
								c-0.518-0.086-0.812-0.15-0.812-0.15s0.3-0.03,0.824-0.056c0.523-0.016,1.271-0.07,2.167-0.078
								c1.792-0.033,4.176,0.017,6.555,0.15c2.378,0.141,4.752,0.367,6.528,0.604c0.888,0.111,1.626,0.25,2.144,0.325
								C440.291,57.884,440.585,57.948,440.585,57.948z"/>
						</g>
						<g>
							<path fill="#EED046" d="M436.813,52.912c0,0-0.608,0.701-1.607,1.642c-0.994,0.948-2.375,2.14-3.808,3.266
								c-1.438,1.119-2.927,2.172-4.087,2.907c-1.155,0.742-1.983,1.162-1.983,1.162s0.607-0.702,1.606-1.644
								c0.994-0.948,2.375-2.139,3.809-3.264c1.438-1.119,2.929-2.171,4.088-2.906C435.986,53.333,436.813,52.912,436.813,52.912z"
								/>
						</g>
						<g>
							<path fill="#EED046" d="M426.412,51.983c0,0,0.717,0.561,1.687,1.495c0.976,0.928,2.208,2.225,3.375,3.576
								c1.162,1.357,2.26,2.769,3.031,3.873c0.777,1.098,1.224,1.892,1.224,1.892s-0.718-0.561-1.688-1.494
								c-0.976-0.928-2.208-2.225-3.375-3.577c-1.162-1.357-2.259-2.77-3.03-3.874C426.859,52.776,426.412,51.983,426.412,51.983z"
								/>
						</g>
					</g>
				</g>
			</g>
		</g>
		<g>
			<polygon fill="none" stroke="#F4D0D3" stroke-width="1.1302" stroke-miterlimit="10" points="58.091,179.44 45.726,195.927 
				63.586,206.918 76.294,190.432 			"/>
			<g>
				<g>
					<path fill="#EED046" d="M93.925,232.917c0,0,0.064,0.295,0.152,0.813c0.076,0.518,0.217,1.254,0.33,2.143
						c0.242,1.775,0.474,4.148,0.62,6.527c0.14,2.379,0.195,4.762,0.168,6.553c-0.006,0.896-0.058,1.645-0.072,2.167
						c-0.025,0.523-0.054,0.824-0.054,0.824s-0.065-0.295-0.153-0.813c-0.076-0.515-0.218-1.253-0.331-2.142
						c-0.242-1.775-0.473-4.148-0.619-6.527c-0.139-2.377-0.193-4.761-0.166-6.552c0.006-0.896,0.057-1.645,0.071-2.168
						C93.896,233.218,93.925,232.917,93.925,232.917z"/>
				</g>
				<g>
					<path fill="#EED046" d="M104.012,242.977c0,0-0.3,0.029-0.824,0.057c-0.522,0.016-1.271,0.068-2.167,0.076
						c-1.792,0.031-4.175-0.016-6.554-0.148c-2.378-0.141-4.752-0.365-6.528-0.604c-0.889-0.109-1.627-0.25-2.145-0.324
						c-0.517-0.088-0.812-0.15-0.812-0.15s0.3-0.031,0.823-0.057c0.523-0.016,1.272-0.07,2.167-0.078
						c1.792-0.033,4.175,0.018,6.554,0.15c2.378,0.141,4.752,0.367,6.528,0.604c0.889,0.111,1.626,0.25,2.144,0.326
						C103.717,242.915,104.012,242.977,104.012,242.977z"/>
				</g>
				<g>
					<path fill="#EED046" d="M100.24,237.942c0,0-0.608,0.701-1.607,1.642c-0.994,0.948-2.375,2.139-3.808,3.266
						c-1.438,1.119-2.928,2.172-4.087,2.906c-1.155,0.742-1.983,1.162-1.983,1.162s0.607-0.701,1.606-1.643
						c0.994-0.949,2.375-2.141,3.809-3.266c1.438-1.117,2.929-2.169,4.088-2.906C99.413,238.362,100.24,237.942,100.24,237.942z"/>
				</g>
				<g>
					<path fill="#EED046" d="M89.838,237.013c0,0,0.717,0.561,1.687,1.495c0.976,0.928,2.208,2.225,3.375,3.576
						c1.162,1.356,2.261,2.769,3.031,3.872c0.778,1.099,1.225,1.893,1.225,1.893s-0.718-0.561-1.688-1.494
						c-0.977-0.928-2.208-2.225-3.375-3.577c-1.162-1.356-2.259-2.769-3.031-3.873C90.286,237.806,89.838,237.013,89.838,237.013z"
						/>
				</g>
			</g>
		</g>
	</g>
</g>
</svg>
